<svg width="200" height="91" viewBox="0 0 200 91" fill="none" xmlns="http://www.w3.org/2000/svg">
<g opacity="0.6">
<g clip-path="url(#clip0_188_3893)">
<path d="M26 46.2373C26 38.2278 21.1048 33.6793 16.1313 29.9197C21.1048 26.1601 26 21.6117 26 13.6021C26 12.5727 25.1699 11.7373 24.1429 11.7373C23.1158 11.7373 22.2858 12.5727 22.2858 13.6021C22.2858 20.3177 17.9142 23.9802 13.0002 27.6091C9.08353 24.7148 5.50857 21.8003 4.22133 17.3318H9.28555C10.3108 17.3318 11.1427 16.4965 11.1427 15.467C11.1427 14.4375 10.3108 13.6021 9.28555 13.6021H3.71422C3.71422 12.5727 2.88232 11.7373 1.85711 11.7373C0.831897 11.7373 0 12.5727 0 13.6021C0 21.6117 4.89335 26.1601 9.87054 29.9197C4.89335 33.6793 0 38.2278 0 46.2373C0 54.2468 4.89335 58.7953 9.87054 62.5549C4.89335 66.3145 0 70.8611 0 78.8725C0 79.9038 0.831897 80.7373 1.85711 80.7373C2.88232 80.7373 3.71422 79.9038 3.71422 78.8725C3.71422 72.1569 8.0858 68.4962 12.9998 64.8655C16.9165 67.7598 20.4896 70.6743 21.7787 75.1428H14.8573C13.8321 75.1428 13.0002 75.9763 13.0002 77.0076C13.0002 78.0389 13.8321 78.8725 14.8573 78.8725H22.2858C22.2858 79.9038 23.1158 80.7373 24.1429 80.7373C25.1699 80.7373 26 79.9038 26 78.8725C26 70.8611 21.1048 66.3145 16.1295 62.5549C21.1048 58.7953 26 54.2487 26 46.2373ZM12.9998 60.2443C8.0858 56.6154 3.71422 52.9528 3.71422 46.2373C3.71422 45.2377 3.82004 44.3127 4.00007 43.44H11.1427C12.1679 43.44 12.9998 42.6047 12.9998 41.5752C12.9998 40.5457 12.1679 39.7104 11.1427 39.7104H5.42657C7.14442 36.7323 9.96536 34.4719 12.9998 32.2303C17.9137 35.8592 22.2853 39.5218 22.2853 46.2373C22.2853 47.235 22.1795 48.1601 21.9995 49.0346H16.714C15.6869 49.0346 14.8569 49.8681 14.8569 50.8994C14.8569 51.9307 15.6869 52.7642 16.714 52.7642H20.573C18.8533 55.7423 16.0342 58.0027 12.9998 60.2443Z" fill="white"/>
<path d="M40.4175 36.909C41.4469 36.909 42.1885 37.2356 42.6429 37.9042C43.0818 38.5262 43.2939 39.4282 43.309 40.6252C43.309 41.8537 43.0969 42.7863 42.6429 43.4394C42.189 44.0925 41.4469 44.419 40.4175 44.419L35.2401 44.4345V49.1924C35.2401 49.6743 34.9373 49.7368 34.8164 49.7368H33.4237C33.3028 49.7368 33 49.6747 33 49.1924V42.6621C33 42.1803 33.3028 42.1332 33.4237 42.1332H40.024C40.4024 42.1332 40.675 42.0245 40.8261 41.7912C40.9929 41.5578 41.0685 41.1847 41.0685 40.6718C41.0685 40.1589 40.9929 39.7853 40.8261 39.5524C40.675 39.319 40.4024 39.2104 40.024 39.2104H33.4237C33.3028 39.2104 33 39.1638 33 38.6815V37.453C33 36.9556 33.3028 36.9086 33.4237 36.9086H40.4175V36.909ZM57.0996 49.0527C57.1601 49.1459 57.1752 49.2705 57.1601 49.4258C57.1298 49.6126 56.9933 49.7368 56.8119 49.7368H55.1467C55.0107 49.7368 54.9044 49.7058 54.8288 49.6437C54.7683 49.5971 54.723 49.5195 54.662 49.4258L51.9222 44.4345H48.7279V49.1924C48.7279 49.6743 48.4402 49.7368 48.3041 49.7368H46.9266C46.7906 49.7368 46.4878 49.6747 46.4878 49.1924V42.6621C46.4878 42.1803 46.7906 42.1332 46.9266 42.1332H53.5118C53.9053 42.1332 54.1627 42.0245 54.3139 41.7912C54.4806 41.5578 54.5562 41.1847 54.5562 40.6718C54.5562 40.1589 54.4806 39.7853 54.3139 39.5524C54.1627 39.319 53.9053 39.2104 53.5118 39.2104H46.9266C46.7906 39.2104 46.4878 39.1638 46.4878 38.6815V37.453C46.4878 36.9556 46.7906 36.9086 46.9266 36.9086H53.9053C54.9346 36.9086 55.6914 37.2351 56.1458 37.9037C56.5544 38.5413 56.7817 39.4433 56.8119 40.6247V40.7179C56.7817 41.9154 56.5544 42.8169 56.1458 43.4389C55.7674 43.9678 55.1921 44.2943 54.4504 44.3875L57.0996 49.0522V49.0527ZM69.4526 46.9382C69.5887 46.9382 69.8915 46.9848 69.8915 47.467V49.1774C69.8915 49.6592 69.5887 49.7062 69.4526 49.7062H64.0787C63.4126 49.7062 62.8524 49.6286 62.3833 49.4418C61.8991 49.2705 61.5051 48.9911 61.2023 48.5864C60.9146 48.1978 60.6874 47.6844 60.5513 47.0624C60.4455 46.5491 60.3695 45.9275 60.3544 45.1963V45.1187L60.3846 43.1594C60.4148 43.0197 60.4753 42.895 60.5513 42.7708C60.7634 42.3821 61.1418 42.1488 61.5807 42.1177L69.3922 42.1022C69.5131 42.1022 69.8159 42.1488 69.8159 42.631V43.8596C69.8159 44.3414 69.5131 44.404 69.3922 44.404H62.6252C62.61 44.404 62.5949 45.5233 62.5949 45.5233L62.6252 45.7878C62.6705 46.0832 62.7612 46.3166 62.8826 46.4874C63.0035 46.6427 63.1401 46.7519 63.3366 46.8295C63.5487 46.8916 63.8057 46.9382 64.1236 46.9382H69.4522H69.4526ZM69.4678 36.878C69.5887 36.878 69.8915 36.9401 69.8915 37.4224V38.6509C69.8915 39.1327 69.5887 39.1953 69.4678 39.1953L60.763 39.1798C60.6421 39.1798 60.3544 39.1332 60.3544 38.6509V37.4379C60.3544 36.9406 60.6421 36.878 60.763 36.878H69.4678ZM83.4104 39.8009C83.5616 40.4539 83.6376 41.2312 83.6376 42.1022V44.5432C83.6376 45.4142 83.562 46.1915 83.4104 46.8445C83.2592 47.4976 83.0018 48.042 82.6839 48.4617C82.3508 48.897 81.912 49.2235 81.3971 49.4258C80.8973 49.6281 80.277 49.7368 79.5651 49.7368H74.3877C73.9186 49.7368 73.4793 49.4879 73.237 49.0682C73.1614 48.9285 73.1009 48.7572 73.0702 48.5864L73.0853 37.9663C73.1156 37.8421 73.176 37.7019 73.2365 37.5777C73.4637 37.2045 73.8421 36.9556 74.281 36.9246V36.909H79.5642C80.2756 36.909 80.8812 37.0177 81.3961 37.2201C81.911 37.4224 82.3499 37.7489 82.6829 38.1686C83.0009 38.6039 83.2583 39.1482 83.4095 39.8013L83.4104 39.8009ZM75.2961 47.3424C75.2961 47.4045 75.3112 47.42 75.3112 47.42H79.5198C79.8679 47.42 80.1707 47.3889 80.4131 47.2958C80.6554 47.2026 80.8368 47.0624 80.9733 46.8761C81.1245 46.6737 81.2308 46.4098 81.2912 46.0677C81.3517 45.7257 81.3971 45.2904 81.3971 44.7771V41.8693C81.3971 41.3559 81.3517 40.9207 81.2912 40.5631C81.2308 40.2366 81.1245 39.9721 80.9733 39.7703C80.8373 39.568 80.6554 39.4437 80.4131 39.3506C80.1707 39.2574 79.8679 39.2108 79.5198 39.2108H75.3264C75.3112 39.2108 75.2961 39.2419 75.2961 39.304V47.3428V47.3424ZM88.6332 36.909C88.7541 36.909 89.0569 36.9712 89.0569 37.4534V49.1929C89.0569 49.6747 88.7541 49.7373 88.6332 49.7373H87.2406C87.1196 49.7373 86.8168 49.6752 86.8168 49.1929V37.4534C86.8168 36.9716 87.1196 36.909 87.2406 36.909H88.6332ZM101.486 36.909C101.606 36.909 101.909 36.9712 101.909 37.4534V38.6509C101.909 39.1483 101.606 39.2108 101.486 39.2108H96.0507C95.7328 39.2108 95.4602 39.2419 95.2637 39.3195C95.0667 39.3816 94.9306 39.4908 94.8097 39.6616C94.6888 39.8329 94.6127 40.0502 94.5522 40.3457C94.5069 40.6412 94.4767 41.0299 94.4767 41.4961V45.1191C94.4767 45.5854 94.5069 45.9746 94.5522 46.2851C94.6127 46.5806 94.6883 46.814 94.8097 46.9692C94.9306 47.1405 95.0671 47.2492 95.2637 47.3113C95.4606 47.3889 95.7328 47.42 96.0507 47.42H101.486C101.606 47.42 101.909 47.4821 101.909 47.9644V49.1929C101.909 49.6747 101.606 49.7373 101.486 49.7373H95.9751C95.309 49.7373 94.7337 49.6441 94.2646 49.4729C93.7955 49.3016 93.4015 49.0066 93.0987 48.6175C92.7959 48.2133 92.5687 47.7 92.4326 47.0935C92.2966 46.4714 92.2356 45.7252 92.2356 44.8542V41.7756C92.2356 40.9202 92.2961 40.174 92.4326 39.5675C92.5687 38.9455 92.7959 38.4326 93.0987 38.0435C93.3864 37.6548 93.7799 37.3593 94.2646 37.1725C94.7337 37.0013 95.309 36.9081 95.9751 36.9081H101.486V36.909ZM115.549 36.909C115.685 36.909 115.988 36.9556 115.988 37.4379V38.6509C115.988 39.1642 115.685 39.2108 115.549 39.2108H111.659V49.1934C111.659 49.6752 111.371 49.7222 111.235 49.7222H109.842C109.721 49.7222 109.418 49.6757 109.418 49.1934V39.2108H105.528C105.392 39.2108 105.089 39.1642 105.089 38.6509V37.4379C105.089 36.9561 105.392 36.909 105.528 36.909H115.55H115.549ZM120.984 36.909C121.104 36.909 121.407 36.9712 121.407 37.4534V49.1929C121.407 49.6747 121.104 49.7373 120.984 49.7373H119.591C119.47 49.7373 119.167 49.6752 119.167 49.1929V37.4534C119.167 36.9716 119.47 36.909 119.591 36.909H120.984ZM136.652 36.7378C136.879 36.7378 136.955 36.8775 136.985 36.9556C137.015 37.0643 137 37.189 136.94 37.3443L132.731 48.1041C132.504 48.664 132.292 49.0372 132.065 49.239C132.004 49.3011 131.929 49.3477 131.838 49.3943C131.535 49.6121 131.172 49.7364 130.793 49.7364C129.96 49.7364 129.219 49.1609 128.992 48.337L128.886 48.1037L124.647 37.3438C124.587 37.1885 124.572 37.0638 124.602 36.9552C124.617 36.893 124.693 36.7373 124.92 36.7373H126.555C126.767 36.7373 126.918 36.846 126.979 37.0638L130.748 46.6888C130.763 46.7199 130.763 46.7354 130.763 46.7354L130.823 46.7199C130.823 46.7199 130.839 46.7199 130.839 46.6888L134.547 37.0638C134.638 36.846 134.79 36.7373 134.986 36.7373H136.651L136.652 36.7378Z" fill="white"/>
<path d="M35.4811 54.7773C35.5134 54.7773 35.5853 54.7882 35.5853 54.8992V55.1789C35.5853 55.2972 35.5134 55.3081 35.4811 55.3081H34.5585V57.6109C34.5585 57.7218 34.4902 57.7328 34.4579 57.7328H34.1274C34.0987 57.7328 34.0268 57.7218 34.0268 57.6109V55.3081H33.1042C33.0719 55.3081 33 55.2972 33 55.1789V54.8992C33 54.7882 33.0719 54.7773 33.1042 54.7773H35.4806H35.4811ZM38.9616 54.7773C38.9939 54.7773 39.0659 54.7919 39.0659 54.9029V57.6109C39.0659 57.7218 38.9939 57.7364 38.9616 57.7364H38.6312C38.6025 57.7364 38.5342 57.7218 38.5342 57.6109V56.5061H37.1738V57.6109C37.1738 57.7218 37.1055 57.7364 37.0732 57.7364H36.7464C36.7141 57.7364 36.6422 57.7218 36.6422 57.6109V54.9029C36.6422 54.7919 36.7141 54.7773 36.7464 54.7773H37.0732C37.1055 54.7773 37.1738 54.7919 37.1738 54.9029V55.9753H38.5342V54.9029C38.5342 54.7919 38.6025 54.7773 38.6312 54.7773H38.9616ZM42.2811 57.091C42.3134 57.091 42.3853 57.1019 42.3853 57.2129V57.6077C42.3853 57.7187 42.3134 57.7296 42.2811 57.7296H41.0066C40.8487 57.7296 40.7158 57.7118 40.6047 57.6686C40.49 57.6291 40.3967 57.5645 40.3248 57.4712C40.2565 57.3816 40.2028 57.2634 40.1705 57.1197C40.1455 57.0014 40.1273 56.8577 40.1236 56.6894V56.6717L40.1309 56.2196C40.1382 56.1873 40.1523 56.1586 40.1705 56.13C40.2206 56.0404 40.3107 55.9867 40.4145 55.9794L42.267 55.9758C42.2956 55.9758 42.3675 55.9867 42.3675 56.0977V56.381C42.3675 56.492 42.2956 56.5066 42.267 56.5066H40.6625C40.6589 56.5066 40.6553 56.7649 40.6553 56.7649L40.6625 56.8258C40.6735 56.8941 40.6949 56.9477 40.7235 56.9873C40.7522 57.0232 40.7845 57.0483 40.8314 57.0664C40.8815 57.081 40.9425 57.0915 41.018 57.0915H42.2815L42.2811 57.091ZM42.2847 54.7701C42.3134 54.7701 42.3853 54.7846 42.3853 54.8956V55.1789C42.3853 55.2899 42.3134 55.3045 42.2847 55.3045L40.2206 55.3008C40.1919 55.3008 40.1236 55.2899 40.1236 55.1789V54.8992C40.1236 54.7846 40.1919 54.7701 40.2206 54.7701H42.2847ZM47.9145 55.979C47.9432 55.979 48.0151 55.9935 48.0151 56.1045V56.3879C48.0151 56.4988 47.9432 56.5097 47.9145 56.5097H46.3101C46.3065 56.5097 46.3028 57.6109 46.3028 57.6109C46.3028 57.7218 46.2309 57.7364 46.2022 57.7364H45.8718C45.8431 57.7364 45.7712 57.7218 45.7712 57.6109L45.7785 56.2264C45.7858 56.1941 45.7999 56.1618 45.8144 56.1331C45.8681 56.0472 45.9578 55.9899 46.062 55.9826L47.9145 55.979ZM47.9323 54.7773C47.9609 54.7773 48.0329 54.7882 48.0329 54.9029V55.1862C48.0329 55.2972 47.9609 55.3081 47.9323 55.3081H45.8681C45.8395 55.3081 45.7712 55.2936 45.7712 55.1826V54.9065C45.7712 54.7919 45.8395 54.7773 45.8681 54.7773H47.9323ZM51.5712 54.7773C51.6036 54.7773 51.6718 54.7882 51.6718 54.8992V56.6103C51.6718 56.8113 51.6573 56.9832 51.6249 57.1233C51.5926 57.2666 51.5426 57.3853 51.4706 57.4749C51.3987 57.5681 51.3054 57.6327 51.1907 57.6759C51.0797 57.7155 50.9431 57.7332 50.7852 57.7332H49.9777C49.8198 57.7332 49.6833 57.7155 49.5722 57.6759C49.4611 57.6327 49.3642 57.5681 49.2959 57.4749C49.224 57.3853 49.1703 57.267 49.138 57.1233C49.1057 56.9832 49.0911 56.8113 49.0911 56.6103V54.8992C49.0911 54.7882 49.163 54.7773 49.1953 54.7773H49.5221C49.5544 54.7773 49.6227 54.7882 49.6227 54.8992V56.6676C49.6227 56.7754 49.63 56.8686 49.6405 56.9364C49.655 57.0046 49.6764 57.0583 49.7015 57.0978C49.7301 57.1338 49.7625 57.1588 49.8093 57.177C49.8562 57.1915 49.9204 57.202 49.9959 57.202H50.7715C50.8471 57.202 50.9117 57.1911 50.9581 57.177C51.005 57.1592 51.0373 57.1338 51.066 57.0978C51.091 57.0583 51.1129 57.0046 51.1234 56.9364C51.1338 56.8681 51.1411 56.7749 51.1411 56.6676V54.8992C51.1411 54.7882 51.2094 54.7773 51.2417 54.7773H51.5721H51.5712ZM55.2097 54.7773C55.2421 54.7773 55.314 54.7882 55.314 54.8992V55.1789C55.314 55.2972 55.2421 55.3081 55.2097 55.3081H54.2871V57.6109C54.2871 57.7218 54.2189 57.7328 54.1866 57.7328H53.8561C53.8274 57.7328 53.7555 57.7218 53.7555 57.6109V55.3081H52.8329C52.8006 55.3081 52.7287 55.2972 52.7287 55.1789V54.8992C52.7287 54.7882 52.8006 54.7773 52.8329 54.7773H55.2093H55.2097ZM58.8523 54.7773C58.8847 54.7773 58.9529 54.7882 58.9529 54.8992V56.6103C58.9529 56.8113 58.9384 56.9832 58.9061 57.1233C58.8737 57.2666 58.8237 57.3853 58.7518 57.4749C58.6798 57.5681 58.5865 57.6327 58.4718 57.6759C58.3608 57.7155 58.2242 57.7332 58.0663 57.7332H57.2589C57.1009 57.7332 56.9644 57.7155 56.8533 57.6759C56.7423 57.6327 56.6453 57.5681 56.577 57.4749C56.5051 57.3853 56.4514 57.267 56.4191 57.1233C56.3868 56.9832 56.3722 56.8113 56.3722 56.6103V54.8992C56.3722 54.7882 56.4441 54.7773 56.4764 54.7773H56.8032C56.8356 54.7773 56.9038 54.7882 56.9038 54.8992V56.6676C56.9038 56.7754 56.9111 56.8686 56.9216 56.9364C56.9361 57.0046 56.9575 57.0583 56.9826 57.0978C57.0112 57.1338 57.0436 57.1588 57.0904 57.177C57.1373 57.1915 57.2015 57.202 57.2771 57.202H58.0526C58.1282 57.202 58.1928 57.1911 58.2393 57.177C58.2861 57.1592 58.3185 57.1338 58.3471 57.0978C58.3722 57.0583 58.394 57.0046 58.4045 56.9364C58.4149 56.8681 58.4222 56.7749 58.4222 56.6676V54.8992C58.4222 54.7882 58.4905 54.7773 58.5228 54.7773H58.8533H58.8523ZM62.5268 57.5786C62.5414 57.5999 62.5446 57.6286 62.5414 57.6645C62.5341 57.7077 62.5018 57.7364 62.459 57.7364H62.0639C62.0316 57.7364 62.0066 57.7291 61.9884 57.715C61.9738 57.7041 61.9633 57.6864 61.9488 57.665L61.2993 56.5134H60.5419V57.6109C60.5419 57.7218 60.4736 57.7364 60.4413 57.7364H60.1145C60.0822 57.7364 60.0103 57.7218 60.0103 57.6109V56.1045C60.0103 55.9935 60.0822 55.9826 60.1145 55.9826H61.6761C61.7694 55.9826 61.8304 55.9576 61.8664 55.9035C61.906 55.8498 61.9237 55.7634 61.9237 55.6451C61.9237 55.5269 61.906 55.4405 61.8664 55.3868C61.8304 55.3331 61.7694 55.3076 61.6761 55.3076H60.1145C60.0822 55.3076 60.0103 55.2967 60.0103 55.1858V54.9024C60.0103 54.7878 60.0822 54.7769 60.1145 54.7769H61.7694C62.0134 54.7769 62.1932 54.8524 62.3006 55.0066C62.3976 55.1535 62.4513 55.3618 62.4585 55.6342V55.6556C62.4513 55.9317 62.3976 56.14 62.3006 56.2832C62.2109 56.4051 62.0744 56.4806 61.8987 56.502L62.5268 57.5781V57.5786ZM65.7598 57.091C65.7921 57.091 65.864 57.1019 65.864 57.2129V57.6077C65.864 57.7187 65.7921 57.7296 65.7598 57.7296H64.4853C64.3274 57.7296 64.1945 57.7118 64.0834 57.6686C63.9687 57.6291 63.8754 57.5645 63.8035 57.4712C63.7353 57.3816 63.6815 57.2634 63.6492 57.1197C63.6242 57.0014 63.606 56.8577 63.6023 56.6894V56.6717L63.6096 56.2196C63.6169 56.1873 63.631 56.1586 63.6492 56.13C63.6993 56.0404 63.7894 55.9867 63.8932 55.9794L65.7457 55.9758C65.7743 55.9758 65.8463 55.9867 65.8463 56.0977V56.381C65.8463 56.492 65.7743 56.5066 65.7457 56.5066H64.1413C64.1376 56.5066 64.134 56.7649 64.134 56.7649L64.1413 56.8258C64.1522 56.8941 64.1736 56.9477 64.2022 56.9873C64.2309 57.0232 64.2632 57.0483 64.3101 57.0664C64.3602 57.081 64.4212 57.0915 64.4967 57.0915H65.7602L65.7598 57.091ZM65.7634 54.7701C65.7921 54.7701 65.864 54.7846 65.864 54.8956V55.1789C65.864 55.2899 65.7921 55.3045 65.7634 55.3045L63.6993 55.3008C63.6706 55.3008 63.6023 55.2899 63.6023 55.1789V54.8992C63.6023 54.7846 63.6706 54.7701 63.6993 54.7701H65.7634ZM71.695 55.0393C71.7669 55.1289 71.817 55.2472 71.8493 55.3909C71.878 55.531 71.8962 55.7029 71.8962 55.9003V56.6107C71.8962 56.8117 71.8784 56.9837 71.8493 57.1238C71.817 57.267 71.7669 57.3857 71.695 57.479C71.6231 57.5686 71.5298 57.6368 71.4151 57.6764C71.304 57.7159 71.1675 57.7373 71.0095 57.7373H70.1338C69.9759 57.7373 69.8393 57.7159 69.7319 57.6764C69.6172 57.6368 69.5239 57.5686 69.452 57.4753C69.3837 57.3857 69.33 57.2675 69.2977 57.1238C69.2654 56.9837 69.2508 56.8117 69.2508 56.6107V55.9003C69.2508 55.6992 69.2654 55.531 69.2977 55.3909C69.33 55.2476 69.3837 55.1289 69.452 55.0393C69.5239 54.9497 69.6172 54.8815 69.7319 54.8383C69.843 54.7987 69.9759 54.7773 70.1338 54.7773H71.0095C71.1675 54.7773 71.304 54.7987 71.4151 54.8383C71.5298 54.8815 71.6231 54.9492 71.695 55.0393ZM71.3609 55.8389C71.3609 55.7347 71.3573 55.6451 71.3432 55.5733C71.3322 55.505 71.3109 55.4514 71.2822 55.4118C71.2571 55.3759 71.2212 55.3509 71.1743 55.3327C71.1274 55.3181 71.0664 55.3076 70.9913 55.3076H70.1516C70.076 55.3076 70.015 55.3186 69.9686 55.3327C69.9217 55.3504 69.8862 55.3759 69.8607 55.4118C69.8321 55.4514 69.8138 55.505 69.7997 55.5733C69.7888 55.6451 69.782 55.7347 69.782 55.8389V56.6748C69.782 56.779 69.7893 56.8686 69.7997 56.9405C69.8143 57.005 69.8321 57.0624 69.8607 57.0983C69.8858 57.1379 69.9217 57.1629 69.9686 57.1774C70.0155 57.1952 70.0765 57.2024 70.1516 57.2024H70.9913C71.0669 57.2024 71.1279 57.1952 71.1743 57.1774C71.2212 57.1629 71.2567 57.1379 71.2822 57.0983C71.3109 57.0624 71.3322 57.005 71.3432 56.9405C71.3577 56.8686 71.3609 56.779 71.3609 56.6748V55.8389ZM75.0968 55.979C75.1255 55.979 75.1974 55.9935 75.1974 56.1045V56.3879C75.1974 56.4988 75.1255 56.5097 75.0968 56.5097H73.4924C73.4888 56.5097 73.4851 57.6109 73.4851 57.6109C73.4851 57.7218 73.4132 57.7364 73.3845 57.7364H73.0541C73.0254 57.7364 72.9535 57.7218 72.9535 57.6109L72.9608 56.2264C72.9681 56.1941 72.9822 56.1618 72.9967 56.1331C73.0505 56.0472 73.1401 55.9899 73.2444 55.9826L75.0968 55.979ZM75.1146 54.7773C75.1433 54.7773 75.2152 54.7882 75.2152 54.9029V55.1862C75.2152 55.2972 75.1433 55.3081 75.1146 55.3081H73.0505C73.0218 55.3081 72.9535 55.2936 72.9535 55.1826V54.9065C72.9535 54.7919 73.0218 54.7773 73.0505 54.7773H75.1146ZM81.5987 54.7773C81.7171 54.7773 81.7999 54.8169 81.8427 54.8919C81.8823 54.9602 81.9 55.0748 81.9 55.2399V57.6109C81.9 57.7218 81.8281 57.7364 81.7958 57.7364H81.4872C81.4585 57.7364 81.3866 57.7218 81.3866 57.6109V55.4477H81.3689C81.3652 55.4477 81.3616 55.4477 81.3616 55.455L80.7439 56.9759C80.7189 57.0514 80.6939 57.116 80.6684 57.1697C80.6429 57.2234 80.611 57.2666 80.5824 57.3025C80.55 57.3384 80.5104 57.3671 80.4677 57.3816C80.4281 57.3962 80.378 57.403 80.3243 57.403H80.1773C80.1236 57.403 80.0767 57.3957 80.0339 57.3816C79.9911 57.3675 79.9547 57.3384 79.9192 57.3025C79.8905 57.2666 79.8619 57.2234 79.8332 57.1697C79.8081 57.116 79.7831 57.0514 79.7576 56.9759L79.1436 55.4587C79.14 55.4477 79.1363 55.4477 79.1327 55.4477H79.1149V57.6109C79.1149 57.7218 79.0467 57.7364 79.0144 57.7364H78.7058C78.6734 57.7364 78.6015 57.7218 78.6015 57.6109V55.2399C78.6015 55.0748 78.6193 54.9602 78.6589 54.8919C78.7021 54.8164 78.7845 54.7773 78.9065 54.7773H79.2369C79.2838 54.7773 79.3266 54.781 79.3625 54.7919C79.3985 54.8028 79.4345 54.8205 79.4631 54.8455C79.4882 54.8742 79.5132 54.9065 79.535 54.9497C79.5528 54.9929 79.5746 55.0466 79.596 55.1148L80.2278 56.7003C80.2314 56.7149 80.2387 56.7149 80.2387 56.7149H80.2747C80.2783 56.7149 80.282 56.7149 80.2856 56.7003L80.921 55.1148C80.9424 55.0466 80.9606 54.9929 80.982 54.9497C81.0034 54.9065 81.0289 54.8742 81.0539 54.8455C81.0826 54.8205 81.1149 54.8023 81.1508 54.7919C81.1868 54.7814 81.2264 54.7773 81.2765 54.7773H81.5996H81.5987ZM85.1157 57.091C85.148 57.091 85.2199 57.1019 85.2199 57.2129V57.6077C85.2199 57.7187 85.148 57.7296 85.1157 57.7296H83.8413C83.6833 57.7296 83.5504 57.7118 83.4394 57.6686C83.3247 57.6291 83.2314 57.5645 83.1594 57.4712C83.0912 57.3816 83.0375 57.2634 83.0051 57.1197C82.9801 57.0014 82.9619 56.8577 82.9583 56.6894V56.6717L82.9656 56.2196C82.9728 56.1873 82.9869 56.1586 83.0051 56.13C83.0552 56.0404 83.1453 55.9867 83.2491 55.9794L85.1016 55.9758C85.1303 55.9758 85.2022 55.9867 85.2022 56.0977V56.381C85.2022 56.492 85.1303 56.5066 85.1016 56.5066H83.4972C83.4935 56.5066 83.4899 56.7649 83.4899 56.7649L83.4972 56.8258C83.5081 56.8941 83.5295 56.9477 83.5582 56.9873C83.5868 57.0232 83.6192 57.0483 83.666 57.0664C83.7161 57.081 83.7771 57.0915 83.8526 57.0915H85.1162L85.1157 57.091ZM85.1189 54.7701C85.1476 54.7701 85.2195 54.7846 85.2195 54.8956V55.1789C85.2195 55.2899 85.1476 55.3045 85.1189 55.3045L83.0548 55.3008C83.0261 55.3008 82.9578 55.2899 82.9578 55.1789V54.8992C82.9578 54.7846 83.0261 54.7701 83.0548 54.7701H85.1189ZM88.7292 55.4446C88.7651 55.5951 88.7829 55.7748 88.7829 55.9753V56.5384C88.7829 56.7394 88.7651 56.9186 88.7292 57.0692C88.6932 57.2197 88.6322 57.3452 88.5567 57.4421C88.4775 57.5426 88.3737 57.6177 88.2517 57.6645C88.1334 57.7114 87.9859 57.7364 87.8175 57.7364H86.59C86.4789 57.7364 86.3747 57.6791 86.3173 57.5822C86.2996 57.5499 86.285 57.5103 86.2777 57.4712L86.2814 55.0211C86.2886 54.9925 86.3027 54.9602 86.3173 54.9315C86.371 54.8456 86.4607 54.7882 86.5649 54.781V54.7773H87.8175C87.9864 54.7773 88.1297 54.8023 88.2517 54.8492C88.3737 54.896 88.4779 54.9711 88.5567 55.068C88.6322 55.1685 88.6932 55.294 88.7292 55.4446ZM86.8052 57.1842C86.8052 57.1988 86.8089 57.202 86.8089 57.202H87.8066C87.889 57.202 87.9609 57.1947 88.0182 57.1733C88.0756 57.152 88.1188 57.1197 88.1511 57.0765C88.1871 57.0296 88.2121 56.9687 88.2267 56.89C88.2413 56.8113 88.2517 56.7108 88.2517 56.5921V55.9212C88.2517 55.8029 88.2408 55.7024 88.2267 55.6201C88.2121 55.5446 88.1871 55.4837 88.1511 55.4373C88.1188 55.3904 88.0756 55.3618 88.0182 55.3404C87.9609 55.319 87.889 55.3081 87.8066 55.3081H86.8121C86.8084 55.3081 86.8048 55.3154 86.8048 55.3295V57.1838L86.8052 57.1842ZM90.2717 54.7773C90.3004 54.7773 90.3723 54.7919 90.3723 54.9029V57.6109C90.3723 57.7218 90.3004 57.7364 90.2717 57.7364H89.9413C89.9126 57.7364 89.8407 57.7218 89.8407 57.6109V54.9029C89.8407 54.7919 89.9126 54.7773 89.9413 54.7773H90.2717ZM93.623 54.7773C93.6517 54.7773 93.7236 54.7919 93.7236 54.9029V55.1789C93.7236 55.2935 93.6517 55.3081 93.623 55.3081H92.3345C92.2589 55.3081 92.1943 55.3154 92.1478 55.3331C92.101 55.3477 92.0687 55.3727 92.04 55.4123C92.0113 55.4518 91.9931 55.5019 91.979 55.5701C91.9681 55.6383 91.9612 55.7279 91.9612 55.8357V56.6717C91.9612 56.7795 91.9685 56.869 91.979 56.9405C91.9936 57.0087 92.0113 57.0624 92.04 57.0983C92.0687 57.1379 92.101 57.1629 92.1478 57.1774C92.1947 57.1952 92.2589 57.2024 92.3345 57.2024H93.623C93.6517 57.2024 93.7236 57.217 93.7236 57.328V57.6113C93.7236 57.7223 93.6517 57.7368 93.623 57.7368H92.3163C92.1583 57.7368 92.0218 57.7155 91.9107 57.6759C91.7997 57.6363 91.7059 57.5681 91.6344 57.4785C91.5625 57.3853 91.5088 57.267 91.4765 57.1269C91.4442 56.9837 91.4296 56.8113 91.4296 56.6103V55.8998C91.4296 55.7024 91.4442 55.5305 91.4765 55.3904C91.5088 55.2472 91.5625 55.1284 91.6344 55.0388C91.7027 54.9492 91.796 54.881 91.9107 54.8378C92.0218 54.7982 92.1583 54.7769 92.3163 54.7769H93.623V54.7773ZM95.212 54.7773C95.2406 54.7773 95.3125 54.7919 95.3125 54.9029V57.6109C95.3125 57.7218 95.2406 57.7364 95.212 57.7364H94.8815C94.8528 57.7364 94.7809 57.7218 94.7809 57.6109V54.9029C94.7809 54.7919 94.8528 54.7773 94.8815 54.7773H95.212ZM98.9119 54.7773C98.9406 54.7773 99.0125 54.7882 99.0125 54.9029V57.2738C99.0125 57.4494 98.9875 57.5681 98.9369 57.6327C98.8869 57.7009 98.8077 57.7368 98.7034 57.7368H98.4413C98.3912 57.7368 98.3516 57.7332 98.3193 57.7259C98.2833 57.7187 98.251 57.7082 98.2223 57.6864C98.1937 57.6686 98.1686 57.6432 98.1431 57.6072C98.1181 57.5749 98.0894 57.5317 98.0608 57.4744L96.9229 55.4587C96.9156 55.4477 96.912 55.4477 96.912 55.4477H96.8942V57.6109C96.8942 57.7218 96.8259 57.7364 96.7936 57.7364H96.4741C96.4418 57.7364 96.3699 57.7218 96.3699 57.6109V55.2399C96.3699 55.0643 96.3949 54.9456 96.4454 54.8774C96.4955 54.8128 96.5747 54.7769 96.6789 54.7769H96.9479C96.9948 54.7769 97.0376 54.7805 97.0735 54.7841C97.1131 54.7914 97.1454 54.8055 97.1741 54.8274C97.1992 54.8451 97.2242 54.8742 97.2497 54.9097C97.2747 54.942 97.2998 54.9852 97.3289 55.0388L98.4631 57.0546C98.4668 57.0655 98.4704 57.0655 98.474 57.0655H98.4918V54.9024C98.4918 54.7878 98.5601 54.7769 98.5924 54.7769H98.9119V54.7773ZM102.228 57.091C102.26 57.091 102.332 57.1019 102.332 57.2129V57.6077C102.332 57.7187 102.26 57.7296 102.228 57.7296H100.953C100.795 57.7296 100.662 57.7118 100.551 57.6686C100.437 57.6291 100.343 57.5645 100.271 57.4712C100.203 57.3816 100.149 57.2634 100.117 57.1197C100.092 57.0014 100.074 56.8577 100.07 56.6894V56.6717L100.078 56.2196C100.085 56.1873 100.099 56.1586 100.117 56.13C100.167 56.0404 100.257 55.9867 100.361 55.9794L102.214 55.9758C102.242 55.9758 102.314 55.9867 102.314 56.0977V56.381C102.314 56.492 102.242 56.5066 102.214 56.5066H100.609C100.606 56.5066 100.602 56.7649 100.602 56.7649L100.609 56.8258C100.62 56.8941 100.641 56.9477 100.67 56.9873C100.699 57.0232 100.731 57.0483 100.778 57.0664C100.828 57.081 100.889 57.0915 100.965 57.0915H102.228L102.228 57.091ZM102.231 54.7701C102.26 54.7701 102.332 54.7846 102.332 54.8956V55.1789C102.332 55.2899 102.26 55.3045 102.231 55.3045L100.167 55.3008C100.139 55.3008 100.07 55.2899 100.07 55.1789V54.8992C100.07 54.7846 100.139 54.7701 100.167 54.7701H102.231ZM103.763 57.2165C103.839 57.2165 103.903 57.2775 103.903 57.3566V57.5899C103.903 57.6654 103.839 57.73 103.763 57.73H103.529C103.45 57.73 103.389 57.6654 103.389 57.5899V57.3566C103.389 57.2775 103.45 57.2165 103.529 57.2165H103.763ZM109.77 54.7773C109.802 54.7773 109.874 54.7882 109.874 54.8992V55.1789C109.874 55.2972 109.802 55.3081 109.77 55.3081H108.847V57.6109C108.847 57.7218 108.779 57.7328 108.746 57.7328H108.416C108.387 57.7328 108.315 57.7218 108.315 57.6109V55.3081H107.393C107.36 55.3081 107.289 55.2972 107.289 55.1789V54.8992C107.289 54.7882 107.36 54.7773 107.393 54.7773H109.769H109.77ZM113.376 55.0393C113.448 55.1289 113.498 55.2472 113.53 55.3909C113.559 55.531 113.577 55.7029 113.577 55.9003V56.6107C113.577 56.8117 113.559 56.9837 113.53 57.1238C113.498 57.267 113.448 57.3857 113.376 57.479C113.304 57.5686 113.211 57.6368 113.096 57.6764C112.985 57.7159 112.848 57.7373 112.69 57.7373H111.815C111.657 57.7373 111.52 57.7159 111.413 57.6764C111.298 57.6368 111.205 57.5686 111.133 57.4753C111.065 57.3857 111.011 57.2675 110.979 57.1238C110.946 56.9837 110.932 56.8117 110.932 56.6107V55.9003C110.932 55.6992 110.946 55.531 110.979 55.3909C111.011 55.2476 111.065 55.1289 111.133 55.0393C111.205 54.9497 111.298 54.8815 111.413 54.8383C111.524 54.7987 111.657 54.7773 111.815 54.7773H112.69C112.848 54.7773 112.985 54.7987 113.096 54.8383C113.211 54.8815 113.304 54.9492 113.376 55.0393ZM113.042 55.8389C113.042 55.7347 113.039 55.6451 113.024 55.5733C113.014 55.505 112.992 55.4514 112.963 55.4118C112.938 55.3759 112.902 55.3509 112.856 55.3327C112.809 55.3181 112.748 55.3076 112.673 55.3076H111.833C111.757 55.3076 111.696 55.3186 111.65 55.3327C111.603 55.3504 111.567 55.3759 111.542 55.4118C111.513 55.4514 111.495 55.505 111.481 55.5733C111.47 55.6451 111.463 55.7347 111.463 55.8389V56.6748C111.463 56.779 111.471 56.8686 111.481 56.9405C111.496 57.005 111.513 57.0624 111.542 57.0983C111.567 57.1379 111.603 57.1629 111.65 57.1774C111.697 57.1952 111.758 57.2024 111.833 57.2024H112.673C112.748 57.2024 112.809 57.1952 112.856 57.1774C112.902 57.1629 112.938 57.1379 112.963 57.0983C112.992 57.0624 113.014 57.005 113.024 56.9405C113.039 56.8686 113.042 56.779 113.042 56.6748V55.8389ZM117.087 55.4446C117.123 55.5951 117.14 55.7748 117.14 55.9753V56.5384C117.14 56.7394 117.123 56.9186 117.087 57.0692C117.051 57.2197 116.99 57.3452 116.914 57.4421C116.835 57.5426 116.731 57.6177 116.609 57.6645C116.491 57.7114 116.343 57.7364 116.175 57.7364H114.947C114.836 57.7364 114.732 57.6791 114.675 57.5822C114.657 57.5499 114.643 57.5103 114.635 57.4712L114.639 55.0211C114.646 54.9925 114.66 54.9602 114.675 54.9315C114.729 54.8456 114.818 54.7882 114.922 54.781V54.7773H116.175C116.344 54.7773 116.487 54.8023 116.609 54.8492C116.731 54.896 116.835 54.9711 116.914 55.068C116.99 55.1685 117.051 55.294 117.087 55.4446ZM115.162 57.1842C115.162 57.1988 115.166 57.202 115.166 57.202H116.164C116.246 57.202 116.318 57.1947 116.375 57.1733C116.433 57.152 116.476 57.1197 116.508 57.0765C116.544 57.0296 116.569 56.9687 116.584 56.89C116.598 56.8113 116.609 56.7108 116.609 56.5921V55.9212C116.609 55.8029 116.598 55.7024 116.584 55.6201C116.569 55.5446 116.544 55.4837 116.508 55.4373C116.476 55.3904 116.433 55.3618 116.375 55.3404C116.318 55.319 116.246 55.3081 116.164 55.3081H115.169C115.165 55.3081 115.162 55.3154 115.162 55.3295V57.1838L115.162 57.1842ZM120.122 55.1107L121.131 57.5963C121.145 57.6286 121.149 57.6609 121.142 57.6823C121.134 57.7 121.12 57.7359 121.062 57.7359H120.678C120.628 57.7359 120.592 57.7073 120.574 57.6568L119.684 55.4364L119.68 55.4291H119.666C119.666 55.4291 119.662 55.4327 119.658 55.44L119.199 56.6021H119.644C119.691 56.6021 119.73 56.6307 119.748 56.6739L119.878 56.9932C119.889 57.0291 119.885 57.0687 119.863 57.0974C119.845 57.1297 119.809 57.1474 119.77 57.1474H118.984L118.779 57.6604C118.761 57.7073 118.725 57.7359 118.678 57.7359H118.283C118.226 57.7359 118.208 57.7036 118.204 57.6823C118.197 57.6609 118.2 57.6286 118.211 57.5963L119.213 55.1107C119.263 54.9815 119.317 54.8956 119.371 54.8487C119.385 54.8378 119.403 54.8237 119.424 54.8128C119.496 54.7628 119.582 54.7373 119.672 54.7373C119.87 54.7373 120.042 54.8701 120.099 55.0566L120.121 55.1103L120.122 55.1107ZM124.361 54.7773C124.389 54.7773 124.414 54.7951 124.425 54.8242C124.432 54.8528 124.429 54.8815 124.414 54.9065L123.326 56.8254V57.6109C123.326 57.7218 123.255 57.7328 123.226 57.7328H122.895C122.867 57.7328 122.795 57.7218 122.795 57.6109V56.8254L121.718 54.9065C121.703 54.8815 121.7 54.8528 121.707 54.8274C121.714 54.7951 121.739 54.7773 121.772 54.7773H122.181C122.213 54.7773 122.256 54.7882 122.285 54.8455L123.067 56.2805L123.857 54.8419C123.886 54.7882 123.929 54.7773 123.961 54.7773H124.36H124.361ZM125.86 57.2165C125.935 57.2165 126 57.2775 126 57.3566V57.5899C126 57.6654 125.935 57.73 125.86 57.73H125.626C125.547 57.73 125.486 57.6654 125.486 57.5899V57.3566C125.486 57.2775 125.547 57.2165 125.626 57.2165H125.86Z" fill="white"/>
</g>
</g>
<defs>
<clipPath id="clip0_188_3893">
<rect width="137" height="69" fill="white" transform="translate(0 11.7373)"/>
</clipPath>
</defs>
</svg>
