<svg width="200" height="91" viewBox="0 0 200 91" fill="none" xmlns="http://www.w3.org/2000/svg">
<g opacity="0.6" clip-path="url(#clip0_87_3534)">
<path d="M33.5347 32.8308L34.1727 27H7.92192L0.000976562 59.1692H27.4452L26.8375 65H53.08L61.001 32.8308H33.5347ZM10.4826 29.9246H30.6375L29.6785 38.6842H19.6466L19.9629 35.7907H16.7467L15.2719 49.2704H21.4753L21.8054 46.3457H18.808L19.3266 41.608H29.3586L27.7569 56.2438H4.00144L10.4826 29.9246ZM50.5203 62.0754H30.3571L30.7966 57.8602L33.2156 35.7554H57.0014L54.8895 44.331H44.0475L44.3638 41.4375H41.1476L39.6728 54.9171H45.8763L46.2063 51.9925H43.209L43.7275 47.2548H54.1686L50.5194 62.0754H50.5203Z" fill="white"/>
<path d="M71.0437 37.796V35.7884H75.001V40.4273C75.001 42.1427 74.1165 43 72.3484 43H69.6535C67.8855 43 67.001 42.1427 67.001 40.4273V32.5727C67.001 30.8573 67.8846 30 69.6535 30H72.3484C74.1165 30 75.001 30.8573 75.001 32.5727V33.7615H72.1564V32.8143C72.1564 32.7108 72.1167 32.6193 72.0392 32.5414C71.9608 32.4635 71.8648 32.4242 71.7502 32.4242H70.4024C70.2878 32.4242 70.1918 32.4635 70.1134 32.5414C70.035 32.6193 69.9954 32.71 69.9954 32.8143V40.1656C69.9954 40.27 70.0341 40.3607 70.1134 40.4385C70.1918 40.5164 70.2878 40.5557 70.4024 40.5557H71.7502C71.8639 40.5557 71.9608 40.5164 72.0392 40.4385C72.1176 40.3607 72.1564 40.27 72.1564 40.1656V37.796H71.0437Z" fill="white"/>
<path d="M85.001 32.5727V40.4273C85.001 42.1427 84.0242 43 82.0717 43H78.9303C76.9777 43 76.001 42.1427 76.001 40.4273V32.5727C76.001 30.8573 76.9768 30 78.9303 30H82.0717C84.0242 30 85.001 30.8573 85.001 32.5727ZM81.6942 40.1656V32.8143C81.6942 32.7108 81.6504 32.6193 81.5648 32.5414C81.4782 32.4635 81.3722 32.4242 81.2457 32.4242H79.7572C79.6307 32.4242 79.5247 32.4635 79.4381 32.5414C79.3515 32.6193 79.3078 32.71 79.3078 32.8143V40.1656C79.3078 40.27 79.3506 40.3607 79.4381 40.4385C79.5247 40.5164 79.6307 40.5557 79.7572 40.5557H81.2457C81.3712 40.5557 81.4782 40.5164 81.5648 40.4385C81.6514 40.3607 81.6942 40.27 81.6942 40.1656Z" fill="white"/>
<path d="M95.001 32.5727V40.4273C95.001 42.1427 94.0242 43 92.0717 43H88.9303C86.9777 43 86.001 42.1427 86.001 40.4273V32.5727C86.001 30.8573 86.9768 30 88.9303 30H92.0717C94.0242 30 95.001 30.8573 95.001 32.5727ZM91.6942 40.1656V32.8143C91.6942 32.7108 91.6504 32.6193 91.5648 32.5414C91.4782 32.4635 91.3722 32.4242 91.2457 32.4242H89.7572C89.6308 32.4242 89.5247 32.4635 89.4381 32.5414C89.3515 32.6193 89.3078 32.71 89.3078 32.8143V40.1656C89.3078 40.27 89.3506 40.3607 89.4381 40.4385C89.5247 40.5164 89.6308 40.5557 89.7572 40.5557H91.2457C91.3712 40.5557 91.4782 40.5164 91.5648 40.4385C91.6514 40.3607 91.6942 40.27 91.6942 40.1656Z" fill="white"/>
<path d="M101.072 30C103.024 30 104.001 30.8838 104.001 32.6523V40.3477C104.001 42.1162 103.024 43 101.072 43H95.001V30H101.072ZM100.693 40.0787V32.9014C100.693 32.7946 100.649 32.7003 100.564 32.62C100.477 32.5398 100.371 32.4992 100.245 32.4992H98.3078V40.4801H100.245C100.37 40.4801 100.477 40.4396 100.564 40.3593C100.65 40.279 100.693 40.1855 100.693 40.0779V40.0787Z" fill="white"/>
<path d="M110.044 37.796V35.7884H114.001V40.4273C114.001 42.1427 113.116 43 111.348 43H108.654C106.885 43 106.001 42.1427 106.001 40.4273V32.5727C106.001 30.8573 106.885 30 108.654 30H111.348C113.116 30 114.001 30.8573 114.001 32.5727V33.7615H111.156V32.8143C111.156 32.7108 111.117 32.6193 111.039 32.5414C110.961 32.4635 110.865 32.4242 110.75 32.4242H109.402C109.288 32.4242 109.192 32.4635 109.113 32.5414C109.035 32.6193 108.995 32.71 108.995 32.8143V40.1656C108.995 40.27 109.034 40.3607 109.113 40.4385C109.192 40.5164 109.288 40.5557 109.402 40.5557H110.75C110.864 40.5557 110.961 40.5164 111.039 40.4385C111.118 40.3607 111.156 40.27 111.156 40.1656V37.796H110.044Z" fill="white"/>
<path d="M138.044 37.796V35.7884H142.001V40.4273C142.001 42.1427 141.116 43 139.348 43H136.654C134.885 43 134.001 42.1427 134.001 40.4273V32.5727C134.001 30.8573 134.885 30 136.654 30H139.348C141.116 30 142.001 30.8573 142.001 32.5727V33.7615H139.156V32.8143C139.156 32.7108 139.117 32.6193 139.039 32.5414C138.961 32.4635 138.865 32.4242 138.75 32.4242H137.402C137.288 32.4242 137.192 32.4635 137.113 32.5414C137.035 32.6193 136.995 32.71 136.995 32.8143V40.1656C136.995 40.27 137.034 40.3607 137.113 40.4385C137.192 40.5164 137.288 40.5557 137.402 40.5557H138.75C138.864 40.5557 138.961 40.5164 139.039 40.4385C139.118 40.3607 139.156 40.27 139.156 40.1656V37.796H138.044Z" fill="white"/>
<path d="M121.071 30C123.024 30 124.001 30.8704 124.001 32.6119V43H120.694V38.7061H118.308V43H115.001V32.6119C115.001 30.8704 115.977 30 117.931 30H121.072H121.071ZM118.307 36.5701H120.693V32.858C120.693 32.7529 120.649 32.66 120.563 32.5809C120.477 32.5019 120.371 32.4619 120.244 32.4619H118.756C118.629 32.4619 118.523 32.5019 118.437 32.5809C118.35 32.66 118.306 32.7521 118.306 32.858V36.5701H118.307Z" fill="white"/>
<path d="M132 43H128.99V33.0723C128.99 32.9672 128.95 32.8743 128.872 32.7953C128.793 32.7162 128.697 32.6763 128.582 32.6763H127.42C127.305 32.6763 127.209 32.7162 127.13 32.7953C127.051 32.8743 127.011 32.9672 127.011 33.0723V43H124.001V32.6119C124.001 30.8704 124.889 30 126.668 30H129.334C131.112 30 132.001 30.8704 132.001 32.6119V43H132Z" fill="white"/>
<path d="M70.3455 59.3926H74.001V62H67.001V49H70.3455V59.3926Z" fill="white"/>
<path d="M80.0714 49C82.0241 49 83.001 49.8704 83.001 51.6119V62H79.6938V57.7061H77.3081V62H74.001V51.6119C74.001 49.8704 74.9769 49 76.9306 49H80.0723H80.0714ZM77.3071 55.5701H79.6929V51.858C79.6929 51.7529 79.6491 51.66 79.5635 51.5809C79.4769 51.5019 79.3708 51.4619 79.2443 51.4619H77.7557C77.6292 51.4619 77.5231 51.5019 77.4365 51.5809C77.3499 51.66 77.3062 51.7521 77.3062 51.858V55.5701H77.3071Z" fill="white"/>
<path d="M91.4658 54.8868C92.4892 55.1955 93.001 55.9046 93.001 57.0168V59.3479C93.001 61.1162 92.0242 62 90.0717 62H84.001V49H89.8829C91.8355 49 92.8122 49.8838 92.8122 51.6521V52.8379C92.8122 53.9095 92.3637 54.5931 91.4658 54.8877V54.8868ZM89.056 51.4999H87.3078V54.3845H89.056C89.1815 54.3845 89.2885 54.344 89.3751 54.2637C89.4617 54.1835 89.5055 54.0899 89.5055 53.9824V51.9012C89.5055 51.7945 89.4617 51.7001 89.3751 51.6199C89.2885 51.5396 89.1825 51.499 89.056 51.499V51.4999ZM89.6942 59.0781V56.7553C89.6942 56.6486 89.6504 56.5542 89.5648 56.474C89.4782 56.3937 89.3722 56.3532 89.2457 56.3532H87.3087V59.4794H89.2457C89.3712 59.4794 89.4782 59.4389 89.5648 59.3586C89.6514 59.2784 89.6942 59.1848 89.6942 59.0773V59.0781Z" fill="white"/>
<path d="M100.848 52.5079H97.9416V51.7429C97.9416 51.6393 97.9011 51.5478 97.8219 51.47C97.7418 51.3921 97.6436 51.3528 97.5266 51.3528H96.3241C96.2071 51.3528 96.109 51.3921 96.0289 51.47C95.9488 51.5478 95.9092 51.6385 95.9092 51.7429V53.7553C95.9092 53.8596 95.9488 53.9504 96.0289 54.0282C96.109 54.1061 96.2071 54.1454 96.3241 54.1454H98.2908C100.097 54.1711 101.001 55.0292 101.001 56.7181V59.4273C101.001 61.1427 100.097 62 98.2908 62H95.7121C93.9056 62 93.0019 61.1427 93.0019 59.4273V58.1213H95.9083V59.2956C95.9083 59.4 95.9479 59.4907 96.028 59.5686C96.1081 59.6464 96.2062 59.6858 96.3232 59.6858H97.6778C97.794 59.6858 97.893 59.6464 97.9731 59.5686C98.0532 59.4907 98.0937 59.4 98.0937 59.2956V57.0496C98.0937 56.9461 98.0532 56.8546 97.9731 56.7767C97.893 56.6989 97.7949 56.6595 97.6778 56.6595H95.7112C93.9047 56.6595 93.001 55.8022 93.001 54.0868V51.5727C93.001 49.8573 93.9038 49 95.7112 49H98.1369C99.9434 49 100.847 49.8573 100.847 51.5727V52.5079H100.848Z" fill="white"/>
</g>
<defs>
<clipPath id="clip0_87_3534">
<rect width="200" height="90" fill="white" transform="translate(0.000976562 0.737305)"/>
</clipPath>
</defs>
</svg>
