<svg width="200" height="101" viewBox="0 0 200 101" fill="none" xmlns="http://www.w3.org/2000/svg">
<g opacity="0.6">
<g clip-path="url(#clip0_188_3890)">
<path fill-rule="evenodd" clip-rule="evenodd" d="M16.3227 32.7373V54.6212V54.6891C16.3732 57.7061 18.8376 60.141 21.8657 60.141C24.8937 60.141 27.4087 57.6594 27.4087 54.5999C27.4087 51.5404 24.9274 49.0588 21.8657 49.0588C20.8984 49.0588 19.99 49.3053 19.1993 49.7387V40.6665C20.0531 40.505 20.9362 40.42 21.8405 40.42C29.6629 40.42 36.0007 46.76 36.0007 54.5787C36.0007 62.3974 29.6587 68.7373 21.8405 68.7373C14.0222 68.7373 7.9283 62.6438 7.68438 55.0376C7.68017 54.9484 7.67597 54.8634 7.67597 54.7741V41.3846H0.000732422V37.5433C0.000732422 34.8874 2.1498 32.7373 4.79933 32.7373H16.3227Z" fill="white"/>
<path d="M49.4463 46.1722V61.323H53.4408V46.1722H58.8863V42.7373H44.0007V46.1722H49.4463ZM60.9827 42.7373V61.323H64.9772V53.3053H72.3293V61.323H76.3238V42.7373H72.3293V49.8704H64.9772V42.7373H60.9827ZM95.2587 54.2935V42.7373H91.2642V54.2935C91.2642 55.683 90.9943 56.7057 90.4501 57.366C89.906 58.0089 88.9232 58.3283 87.4975 58.3283C86.6834 58.3283 86.0296 58.2161 85.5403 57.9917C85.0636 57.75 84.6925 57.4436 84.4225 57.0812C84.1525 56.7014 83.9712 56.2656 83.8868 55.778C83.8024 55.2903 83.7603 54.7984 83.7603 54.2935V42.7373H79.7657V54.2935C79.7657 56.8266 80.4364 58.6994 81.7735 59.9163C83.1318 61.1289 85.0383 61.7373 87.4975 61.7373C89.9566 61.7373 91.821 61.1289 93.1961 59.9163C94.5712 58.6821 95.2545 56.8093 95.2545 54.2935H95.2587ZM98.6964 42.7373V61.323H102.438V48.2824H102.488L106.943 61.323H110.022L114.476 48.1529H114.527V61.323H118.268V42.7373H112.646L108.626 55.519H108.575L104.328 42.7373H98.7049H98.6964ZM125.776 50.2588V45.9133H129.518C129.872 45.9133 130.214 45.9478 130.534 46.0169C130.872 46.0687 131.171 46.1722 131.424 46.3276C131.678 46.4829 131.884 46.6987 132.036 46.9792C132.188 47.2554 132.264 47.6135 132.264 48.0451C132.264 48.8261 132.036 49.3914 131.576 49.7366C131.121 50.0818 130.534 50.2588 129.822 50.2588H125.776ZM121.782 42.7373V61.323H130.585C131.399 61.323 132.188 61.2195 132.951 61.0123C133.732 60.8052 134.419 60.4816 135.014 60.05C135.626 59.6142 136.107 59.0619 136.465 58.3844C136.819 57.6896 137.001 56.874 137.001 55.9376C137.001 54.7768 136.722 53.7843 136.161 52.9687C135.617 52.1359 134.786 51.5533 133.668 51.2254C134.483 50.8284 135.094 50.3149 135.499 49.6892C135.925 49.0634 136.136 48.2824 136.136 47.346C136.136 46.4786 135.993 45.7493 135.702 45.1582C135.432 44.567 135.039 44.1009 134.533 43.7514C134.023 43.3889 133.415 43.1257 132.703 42.9703C131.99 42.815 131.201 42.7373 130.336 42.7373H121.786H121.782ZM125.776 58.147V53.0464H130.125C130.99 53.0464 131.686 53.2535 132.213 53.6721C132.74 54.0691 133.002 54.7466 133.002 55.7003C133.002 56.1879 132.918 56.5849 132.749 56.8956C132.597 57.2063 132.386 57.4609 132.112 57.6508C131.842 57.8234 131.526 57.9528 131.171 58.0391C130.817 58.1082 130.442 58.1427 130.054 58.1427H125.781L125.776 58.147Z" fill="white"/>
</g>
</g>
<defs>
<clipPath id="clip0_188_3890">
<rect width="137" height="36" fill="white" transform="translate(0.000732422 32.7373)"/>
</clipPath>
</defs>
</svg>
