<svg width="200" height="90" viewBox="0 0 200 90" fill="none" xmlns="http://www.w3.org/2000/svg">
<g opacity="0.6">
<g clip-path="url(#clip0_1536_14566)">
<path opacity="0.5" d="M8.12211 49.7272L16 54V49.7272L12.0611 47.5908C10.7957 46.9017 9.94387 45.6162 9.94387 44.141V30L6 32.1364V46.2728C6 47.748 6.8518 49.0335 8.12211 49.7272Z" fill="white"/>
<path opacity="0.5" d="M5.71561 51.1442C4.5177 50.4335 3.71445 49.1027 3.71445 47.5812V33L1.43006 34.3594C0.57574 34.8697 0 35.8189 0 36.9064V49.7896C0 51.3111 0.80325 52.6371 2.00116 53.3526L10.8973 58.628C11.3105 58.8617 11.7841 59 12.2855 59C12.787 59 13.2606 58.8664 13.6692 58.6327L16 57.2495L5.71097 51.149L5.71561 51.1442Z" fill="white"/>
<path d="M21.3931 37.1972V53.4596C21.3931 54.5463 20.8296 55.4948 20 56L23.0568 54.1316C24.22 53.4215 25 52.0917 25 50.5713V35L21.3886 37.1972H21.3931Z" fill="white"/>
<path d="M15.3931 42.5719V56.459C15.3931 57.546 14.8296 58.4947 14 59L17.0568 57.1312C18.22 56.4209 19 55.0908 19 53.57V38L17.2732 39.0488C16.1461 39.7687 15.3886 41.0749 15.3886 42.5671L15.3931 42.5719Z" fill="white"/>
<path d="M35 47.5549V37H38.0717V47.3072C38.0717 48.8324 38.8785 49.9739 40.9878 49.9739C43.0972 49.9739 43.904 48.8324 43.904 47.3072V37H47V47.5549C47 50.9405 44.4435 53 40.9927 53C37.5419 53 35.0049 50.9405 35.0049 47.5549H35Z" fill="white"/>
<path d="M66.8713 50.5616C67.9367 50.5616 68.7853 50.1236 69.2558 49.5185L71.4696 50.7693C70.4688 52.1872 68.873 53 66.8298 53C63.2553 53 61 50.6022 61 47.5C61 44.3978 63.2784 42 66.6176 42C69.7677 42 72 44.4384 72 47.5C72 47.8974 71.9585 48.2496 71.8939 48.6063H63.8734C64.2562 49.9836 65.4277 50.5661 66.8759 50.5661L66.8713 50.5616ZM69.2558 46.5201C68.9145 45.0209 67.766 44.4158 66.6176 44.4158C65.1509 44.4158 64.1501 45.188 63.8319 46.5201H69.2558Z" fill="white"/>
<path d="M79.8713 50.5616C80.9367 50.5616 81.7853 50.1236 82.2558 49.5185L84.4696 50.7693C83.4688 52.1872 81.873 53 79.8298 53C76.2553 53 74 50.6022 74 47.5C74 44.3978 76.2784 42 79.6176 42C82.7677 42 85 44.4384 85 47.5C85 47.8974 84.9585 48.2496 84.8939 48.6063H76.8734C77.2562 49.9836 78.4277 50.5661 79.8759 50.5661L79.8713 50.5616ZM82.2558 46.5201C81.9145 45.0209 80.766 44.4158 79.6176 44.4158C78.1509 44.4158 77.1501 45.188 76.8319 46.5201H82.2558Z" fill="white"/>
<path d="M98 37V52.6844H95.107V51.3636C94.2998 52.393 93.1086 53 91.4749 53C88.47 53 86 50.4215 86 47.0856C86 43.7496 88.47 41.1712 91.4749 41.1712C93.1135 41.1712 94.2998 41.7781 95.107 42.8076V37.0049H98V37ZM95.107 47.0856C95.107 45.2015 93.7844 43.9244 92.0097 43.9244C90.235 43.9244 88.893 45.2015 88.893 47.0856C88.893 48.9697 90.2156 50.2467 92.0097 50.2467C93.8039 50.2467 95.107 48.9697 95.107 47.0856Z" fill="white"/>
<path d="M100 45C100 40.4926 103.427 37 108.209 37C111.098 37 113.646 38.4294 115 40.626L112.316 42.1412C111.548 40.7784 110.013 39.9446 108.209 39.9446C105.119 39.9446 103.09 42.0316 103.09 45C103.09 47.9684 105.119 50.0363 108.209 50.0363C110.013 50.0363 111.568 49.2025 112.316 47.8588L115 49.374C113.67 51.5706 111.118 53 108.209 53C103.427 53 100 49.4836 100 45Z" fill="white"/>
<path d="M116 47.5C116 44.3978 118.655 42 121.988 42C125.321 42 128 44.3978 128 47.5C128 50.6022 125.326 53 121.988 53C118.65 53 116 50.6022 116 47.5ZM125.075 47.5C125.075 45.8112 123.738 44.6236 121.993 44.6236C120.247 44.6236 118.93 45.8112 118.93 47.5C118.93 49.1888 120.267 50.3764 121.993 50.3764C123.718 50.3764 125.075 49.1888 125.075 47.5Z" fill="white"/>
<path d="M173.995 49.6675C173.995 51.9163 171.936 53 169.597 53C167.41 53 165.788 52.124 165 50.5209L167.453 49.2069C167.761 50.0603 168.501 50.5616 169.597 50.5616C170.494 50.5616 171.106 50.2681 171.106 49.6675C171.106 48.1457 165.46 48.9811 165.46 45.3145C165.46 43.1876 167.363 42 169.621 42C171.395 42 172.928 42.7722 173.782 44.2081L171.376 45.4589C171.049 44.7906 170.437 44.3978 169.626 44.3978C168.924 44.3978 168.354 44.6913 168.354 45.2512C168.354 46.7911 174 45.8337 174 49.6675H173.995Z" fill="white"/>
<path d="M49 46.9966V53H51.7623V46.7183C51.7623 45.4842 52.7651 44.4821 54 44.4821C55.2349 44.4821 56.2377 45.4842 56.2377 46.7183V53H59V46.9966C59 44.2362 56.7623 42 54 42C51.2377 42 49 44.2362 49 46.9966Z" fill="white"/>
<path d="M140.314 41C139.023 41 137.858 41.5148 137.007 42.3495C136.156 41.5148 134.991 41 133.7 41C131.105 41 129 43.0868 129 45.6606V52H131.783V45.3824C131.783 44.3343 132.639 43.4857 133.696 43.4857C134.753 43.4857 135.609 44.3343 135.609 45.3824V52H138.391V45.3824C138.391 44.3343 139.247 43.4857 140.304 43.4857C141.361 43.4857 142.217 44.3343 142.217 45.3824V52H145V45.6606C145 43.0868 142.895 41 140.3 41H140.314Z" fill="white"/>
<path d="M158.314 41C157.023 41 155.858 41.5148 155.007 42.3495C154.156 41.5148 152.991 41 151.7 41C149.105 41 147 43.0868 147 45.6606V52H149.783V45.3824C149.783 44.3343 150.639 43.4857 151.696 43.4857C152.753 43.4857 153.609 44.3343 153.609 45.3824V52H156.391V45.3824C156.391 44.3343 157.247 43.4857 158.304 43.4857C159.361 43.4857 160.217 44.3343 160.217 45.3824V52H163V45.6606C163 43.0868 160.895 41 158.3 41H158.314Z" fill="white"/>
</g>
</g>
<defs>
<clipPath id="clip0_1536_14566">
<rect width="174" height="29" fill="white" transform="translate(0 30)"/>
</clipPath>
</defs>
</svg>
