<svg width="184" height="18" viewBox="0 0 184 18" fill="none" xmlns="http://www.w3.org/2000/svg">
<path fill-rule="evenodd" clip-rule="evenodd" d="M155.86 12.3041C156.221 13.4719 157.222 14.0573 158.614 14.0573C160.006 14.0573 160.924 13.4719 160.924 12.4161C160.924 11.6099 160.396 11.2484 159.308 10.9957L156.023 10.2982C153.518 9.74158 151.624 8.43311 151.624 5.53783C151.624 2.19785 154.407 0 158.192 0C162.367 0 164.734 2.28103 165.204 5.2339H160.834C160.473 4.28694 159.692 3.56392 158.217 3.56392C156.938 3.56392 156.074 4.12058 156.074 5.06754C156.074 5.81936 156.602 6.23525 157.494 6.4304L160.834 7.21101C163.755 7.90524 165.371 9.49204 165.371 12.1378C165.371 15.6441 162.421 17.65 158.691 17.65C154.599 17.65 151.816 15.6729 151.205 12.3041H155.853H155.86ZM122.548 11.7185V17.3683H118.123V0.278126H125.804C129.48 0.278126 132.011 2.36721 132.011 6.09428C132.011 8.68244 130.702 10.4644 128.617 11.245L132.625 17.3683H127.67L124.106 11.7185H122.548ZM122.548 8.15457H125.331C126.918 8.15457 127.641 7.34837 127.641 6.09428C127.641 4.84019 126.918 4.03399 125.331 4.03399H122.548V8.15457ZM105.12 17.3683H109.602V0.278147H105.12V17.3683ZM15.0875 17.3683H11.4692L4.31573 7.37718V17.3683H0V0.278148H4.17496L10.7717 9.68701V0.278148H15.0875V17.3683ZM27.7429 0.278148L34.2565 17.3683H29.72L28.4947 14.0571H22.2882L21.0917 17.3683H16.6672L23.1776 0.278148H27.7429ZM23.6511 10.3812H27.1574L25.4043 5.56643L23.6511 10.3812ZM31.5602 0.27817L37.9362 17.3683H37.9394H42.3095L48.6824 0.27817H44.0883L40.2141 11.3282L36.3462 0.27817H31.5602ZM62.7367 0.278171V4.12042H54.9146V6.79175H62.068V10.5508H54.9146V13.5005H62.7367V17.3683H50.5157V0.278171H62.7367ZM69.9723 17.3683V11.7185H71.5303L75.0942 17.3683H80.0498L76.0412 11.245C78.1271 10.4644 79.4355 8.68248 79.4355 6.09432C79.4355 2.36725 76.905 0.27817 73.2291 0.27817H65.5478V17.3683H69.9723ZM72.7556 8.15461H69.9723V4.03404H72.7556C74.3424 4.03404 75.0654 4.84024 75.0654 6.09432C75.0654 7.34841 74.3424 8.15461 72.7556 8.15461ZM97.0288 0.278148L103.542 17.3683H99.0059L97.7806 14.0571H91.5742L90.3777 17.3683H85.9532L92.4635 0.278148H97.0288ZM96.4434 10.3812L94.6902 5.56643L92.937 10.3812H96.4434ZM134.47 0.278147V10.3812C134.47 15.0873 137.423 17.6466 141.93 17.6466C146.438 17.6466 149.362 15.0873 149.362 10.41V0.278147H144.909V9.99093C144.909 12.4095 143.795 13.6636 141.93 13.6636C140.065 13.6636 138.923 12.4127 138.923 9.99093V0.278147H134.47ZM183.35 17.3683V0.278126H178.868V6.76291H172.271V0.278126H167.789V17.3683H172.271V10.6052H178.868V17.3683H183.35Z" fill="#1A1A1A"/>
</svg>
