<svg width="200" height="91" viewBox="0 0 200 91" fill="none" xmlns="http://www.w3.org/2000/svg">
<g opacity="0.6">
<g clip-path="url(#clip0_188_3877)">
<path d="M7.0087 65.0322C9.77492 65.0322 12.0174 62.7897 12.0174 60.0235C12.0174 57.2572 9.77492 55.0148 7.0087 55.0148C4.24247 55.0148 2 57.2572 2 60.0235C2 62.7897 4.24247 65.0322 7.0087 65.0322Z" fill="white"/>
<path d="M94.16 27.9678H67.113V34.98H94.16V27.9678Z" fill="white"/>
<path d="M77.1304 42.9939V65.0322H84.1425V42.9939H77.1304Z" fill="white"/>
<path d="M32.0522 65.0322H24.3951L12.0175 36.7309L15.8503 27.9678L32.0522 65.0322Z" fill="white"/>
<path d="M50.7146 49.9977C56.3911 48.991 60.1008 44.4711 60.1008 39.0884C60.1008 32.9727 55.3118 27.9678 49.458 27.9678H33.0538L36.3622 35.381H49.275C51.2257 35.381 52.8221 37.0488 52.8221 39.0868C52.8221 41.1249 51.2257 42.7927 49.275 42.7927H39.672L42.9804 50.2058L49.5957 65.0291L57.4251 65.0322L50.7542 50.088L50.7132 49.9977H50.7146Z" fill="white"/>
</g>
</g>
<defs>
<clipPath id="clip0_188_3877">
<rect width="93" height="38" fill="white" transform="translate(0 27)"/>
</clipPath>
</defs>
</svg>
