<svg width="200" height="90" viewBox="0 0 200 90" fill="none" xmlns="http://www.w3.org/2000/svg">
<g opacity="0.6">
<g clip-path="url(#clip0_1457_12925)">
<path d="M56.5553 31.0159C56.563 31.1389 56.6169 31.2544 56.7062 31.3393C56.7954 31.4242 56.9135 31.4723 57.0367 31.4738H61.1311C61.1968 31.4741 61.262 31.4611 61.3226 31.4355C61.3832 31.4099 61.438 31.3723 61.4837 31.325C61.5293 31.2776 61.5649 31.2215 61.5883 31.16C61.6117 31.0985 61.6223 31.0329 61.6196 30.9672C61.4101 27.0821 59.6753 23.4368 56.7923 20.824C53.9094 18.2111 50.1116 16.8421 46.2246 17.0145C38.2918 17.3643 32.1367 24.1468 32.1367 32.0868V37.7209C32.1367 37.7847 32.1493 37.848 32.1738 37.9069C32.1983 37.9659 32.2342 38.0194 32.2794 38.0645C32.3246 38.1095 32.3783 38.1452 32.4374 38.1695C32.4964 38.1937 32.5597 38.2061 32.6235 38.2059H36.7089C36.7727 38.2061 36.836 38.1937 36.895 38.1695C36.9541 38.1452 37.0078 38.1095 37.053 38.0645C37.0982 38.0194 37.1341 37.9659 37.1586 37.9069C37.1831 37.848 37.1957 37.7847 37.1957 37.7209V32.0057C37.1957 26.8368 41.1386 22.3728 46.3058 22.0681C48.8464 21.9169 51.3447 22.7703 53.262 24.4441C55.1793 26.1179 56.3621 28.4781 56.5553 31.0159Z" fill="white"/>
<path d="M73.3772 25.2578H69.29C69.1615 25.2583 69.0384 25.3095 68.9476 25.4004C68.8567 25.4912 68.8055 25.6143 68.805 25.7428V31.458C68.805 36.6287 64.8603 41.0927 59.6931 41.3956C57.1527 41.5467 54.6546 40.6934 52.7376 39.0195C50.8205 37.3457 49.6382 34.9854 49.4454 32.4478C49.4381 32.3247 49.3843 32.2089 49.295 32.1239C49.2056 32.0389 49.0873 31.991 48.964 31.9899H44.8696C44.8038 31.9896 44.7385 32.0026 44.6778 32.0282C44.6171 32.0537 44.5622 32.0913 44.5164 32.1386C44.4706 32.186 44.4349 32.242 44.4113 32.3035C44.3877 32.365 44.3768 32.4307 44.3792 32.4965C44.5892 36.3814 46.3242 40.0265 49.207 42.6392C52.0898 45.2519 55.8874 46.6211 59.7743 46.4492C67.7179 46.0994 73.8622 39.3169 73.8622 31.3769V25.7428C73.8622 25.6142 73.8111 25.4908 73.7201 25.3999C73.6292 25.3089 73.5058 25.2578 73.3772 25.2578Z" fill="white"/>
<path d="M14.4274 58.8277C13.5051 58.149 12.435 57.6986 11.3049 57.5134C10.1748 57.3282 9.01691 57.4134 7.92615 57.7622C7.62362 57.8568 7.32985 57.9775 7.04814 58.1228C4.58717 59.3722 3.08174 61.7196 3.00782 64.4005V72.8742C3.00761 72.8892 3.01037 72.904 3.01594 72.918C3.02151 72.9319 3.02978 72.9446 3.04028 72.9553C3.06184 72.9768 3.09094 72.9891 3.12141 72.9895H5.28489C5.31519 72.9896 5.34427 72.9776 5.36585 72.9564C5.38744 72.9351 5.39981 72.9063 5.40028 72.876L5.4129 64.5682C5.42101 63.3301 5.91083 62.1439 6.77859 61.2608C7.64634 60.3777 8.82383 59.8672 10.0615 59.8375C11.2993 59.8077 12.4999 60.261 13.4091 61.1013C14.3183 61.9417 14.8646 63.103 14.9322 64.3392V72.876C14.9327 72.9063 14.9451 72.9351 14.9667 72.9564C14.9883 72.9776 15.0173 72.9896 15.0476 72.9895H17.2111C17.2263 72.9898 17.2414 72.9869 17.2553 72.981C17.2693 72.9751 17.2819 72.9664 17.2923 72.9553C17.3137 72.9344 17.326 72.9059 17.3265 72.876V64.5664C17.3222 63.4504 17.0579 62.3508 16.5547 61.3547C16.0515 60.3586 15.3232 59.4934 14.4274 58.8277Z" fill="white"/>
<path d="M33.8635 57.7148H31.7C31.6694 57.7148 31.64 57.727 31.6184 57.7486C31.5967 57.7703 31.5846 57.7996 31.5846 57.8302L31.5702 66.138C31.5693 67.3809 31.0825 68.5742 30.2137 69.463C29.3449 70.3518 28.163 70.8657 26.9205 70.8949C25.6779 70.9241 24.4732 70.4662 23.5637 69.6192C22.6541 68.7722 22.1118 67.6031 22.0526 66.3616V57.8284C22.0526 57.7983 22.0406 57.7694 22.0193 57.7481C21.998 57.7268 21.9692 57.7148 21.939 57.7148H19.7755C19.7451 57.7153 19.716 57.7276 19.6945 57.7492C19.6729 57.7707 19.6606 57.7998 19.6602 57.8302V66.138C19.6644 67.2526 19.9277 68.3508 20.4293 69.3461C20.9309 70.3415 21.6569 71.2065 22.5502 71.8731C23.7832 72.7926 25.2813 73.2874 26.8195 73.2829C27.5654 73.2823 28.3072 73.1717 29.0208 72.9548C29.339 72.8595 29.6479 72.7358 29.9439 72.5852C32.3977 71.3322 33.9103 68.9794 33.9698 66.3129L33.9788 57.8392C33.9801 57.8234 33.978 57.8074 33.9728 57.7923C33.9675 57.7773 33.9592 57.7635 33.9484 57.7518C33.9376 57.7401 33.9244 57.7308 33.9098 57.7244C33.8952 57.7181 33.8794 57.7148 33.8635 57.7148Z" fill="white"/>
<path d="M51.1911 57.6953L48.8887 57.7062C48.8392 57.7061 48.7908 57.7213 48.7502 57.7497C48.7095 57.7781 48.6786 57.8182 48.6616 57.8648L44.2336 70.0597C44.1955 70.1764 44.1214 70.278 44.022 70.3501C43.9226 70.4222 43.8029 70.461 43.6801 70.461C43.5574 70.461 43.4377 70.4222 43.3383 70.3501C43.2389 70.278 43.1648 70.1764 43.1267 70.0597L38.6987 57.8666C38.6822 57.8196 38.6515 57.7788 38.6108 57.7501C38.5701 57.7213 38.5214 57.706 38.4715 57.7062L36.1692 57.6953C36.154 57.695 36.139 57.6985 36.1255 57.7054C36.112 57.7123 36.1003 57.7225 36.0917 57.735C36.0826 57.7476 36.0768 57.7623 36.0749 57.7778C36.073 57.7932 36.0751 57.8089 36.0809 57.8233L40.9145 71.0134C41.7997 73.6709 45.5588 73.6709 46.444 71.0134L51.2812 57.8215C51.2865 57.8073 51.2883 57.792 51.2865 57.7769C51.2846 57.7619 51.2791 57.7475 51.2704 57.735C51.2613 57.7225 51.2494 57.7123 51.2356 57.7054C51.2218 57.6985 51.2065 57.695 51.1911 57.6953Z" fill="white"/>
<path d="M76.8611 59.6856L72.0257 72.8757C72.0202 72.8899 72.0184 72.9052 72.0202 72.9203C72.0221 72.9354 72.0277 72.9498 72.0366 72.9622C72.0454 72.9745 72.0571 72.9845 72.0705 72.9914C72.084 72.9983 72.0989 73.0019 72.1141 73.0019H74.4182C74.4676 73.0012 74.5156 72.9855 74.5559 72.9568C74.5962 72.9282 74.6267 72.8879 74.6436 72.8415L75.563 70.3174H83.6887L84.6064 72.8415C84.6235 72.8883 84.6543 72.9288 84.6949 72.9578C84.7354 72.9867 84.7838 73.0027 84.8336 73.0037H87.1377C87.1528 73.0037 87.1678 73.0001 87.1812 72.9932C87.1947 72.9863 87.2064 72.9763 87.2152 72.9641C87.2241 72.9517 87.2297 72.9372 87.2315 72.9221C87.2334 72.907 87.2315 72.8917 87.226 72.8775L82.3907 59.6874C81.5054 57.0264 77.7464 57.0264 76.8611 59.6856ZM76.4447 67.8726L79.0715 60.6376C79.1102 60.5211 79.1845 60.4198 79.284 60.3479C79.3836 60.2761 79.5032 60.2375 79.6259 60.2375C79.7486 60.2375 79.8682 60.2761 79.9677 60.3479C80.0673 60.4198 80.1416 60.5211 80.1803 60.6376L82.8071 67.8726H76.4447Z" fill="white"/>
<path d="M102.182 66.1347C101.87 65.7227 101.486 65.3714 101.048 65.0981L100.985 65.062L101.037 65.0133C101.246 64.8202 101.432 64.605 101.594 64.3715C102.075 63.6546 102.327 62.8081 102.315 61.9448C102.318 61.4193 102.233 60.897 102.063 60.3997C101.89 59.8928 101.614 59.427 101.253 59.0313C100.866 58.6334 100.403 58.3165 99.8923 58.0992C99.2924 57.8511 98.6482 57.7284 97.9992 57.7386L90.171 57.7188C90.0562 57.7183 89.9424 57.7404 89.8361 57.7839C89.7298 57.8274 89.6332 57.8915 89.5516 57.9723C89.4701 58.0532 89.4053 58.1493 89.3609 58.2552C89.3165 58.3611 89.2935 58.4747 89.293 58.5896L89.2461 72.1114C89.2456 72.2262 89.2678 72.34 89.3113 72.4463C89.3548 72.5525 89.4188 72.6492 89.4997 72.7307C89.5805 72.8122 89.6767 72.8771 89.7826 72.9214C89.8885 72.9658 90.0021 72.9889 90.1169 72.9894L98.477 73.0128C99.1324 73.0265 99.7842 72.9113 100.395 72.6739C100.929 72.4606 101.413 72.1396 101.818 71.7309C102.201 71.3354 102.5 70.8662 102.698 70.3517C102.897 69.8339 102.999 69.2839 102.999 68.7291C103.025 67.7972 102.737 66.8835 102.182 66.1347ZM91.7521 60.0319L97.7576 60.0499C98.5293 60.0499 99.0846 60.2302 99.4073 60.5908C99.7679 61 99.9121 61.3895 99.9103 62.0331C99.9393 62.5991 99.7451 63.1539 99.3694 63.5782C99.0197 63.9388 98.495 64.1191 97.7666 64.1191H97.7468L91.7413 64.101L91.7521 60.0319ZM99.995 70.1065L99.9788 70.1228C99.5912 70.5158 99.0106 70.7069 98.2047 70.7069H98.1831L91.7035 70.6871L91.7251 66.2808L98.111 66.3006C98.9079 66.3006 99.5082 66.5187 99.95 66.9587C100.168 67.1789 100.339 67.4422 100.45 67.7318C100.561 68.0214 100.61 68.3309 100.595 68.6408C100.607 68.9142 100.559 69.1869 100.454 69.44C100.35 69.693 100.192 69.9205 99.9914 70.1065H99.995Z" fill="white"/>
<path d="M55.7068 66.6897V57.8302C55.7068 57.7996 55.6946 57.7703 55.673 57.7486C55.6513 57.727 55.622 57.7148 55.5914 57.7148H53.4279C53.3974 57.7151 53.3682 57.7274 53.3468 57.7491C53.3357 57.7595 53.3269 57.772 53.321 57.786C53.3151 57.8 53.3122 57.8151 53.3125 57.8302V66.7438V72.8737C53.313 72.904 53.3254 72.9329 53.3469 72.9541C53.3685 72.9754 53.3976 72.9873 53.4279 72.9873H55.5914C55.6199 72.9869 55.6471 72.9752 55.6671 72.9548C55.6781 72.9447 55.6868 72.9324 55.6927 72.9188C55.6986 72.9051 55.7015 72.8904 55.7014 72.8755V67.8832V66.6861L55.7068 66.6897Z" fill="white"/>
<path d="M69.6402 70.6002H63.3985C63.0696 70.6005 62.7438 70.5358 62.4399 70.4101C62.136 70.2843 61.8598 70.0999 61.6272 69.8673C61.3946 69.6347 61.2102 69.3585 61.0844 69.0546C60.9586 68.7507 60.894 68.4249 60.8943 68.096V57.8302C60.8943 57.7996 60.8821 57.7703 60.8605 57.7486C60.8388 57.727 60.8095 57.7148 60.7789 57.7148H58.6154C58.5849 57.7153 58.5558 57.7276 58.5343 57.7491C58.5126 57.7706 58.5002 57.7997 58.5 57.8302V66.7438V68.2673C58.5024 69.5196 59.0011 70.72 59.8868 71.6054C60.7725 72.4907 61.9731 72.989 63.2254 72.9909H69.6384C69.6686 72.9909 69.6977 72.979 69.7193 72.9577C69.7409 72.9365 69.7533 72.9076 69.7537 72.8773V70.7138C69.7533 70.6833 69.741 70.6543 69.7194 70.6327C69.6979 70.6112 69.6688 70.5989 69.6384 70.5984L69.6402 70.6002Z" fill="white"/>
</g>
</g>
<defs>
<clipPath id="clip0_1457_12925">
<rect width="100" height="56.2813" fill="white" transform="translate(3 17)"/>
</clipPath>
</defs>
</svg>
