<svg width="200" height="101" viewBox="0 0 200 101" fill="none" xmlns="http://www.w3.org/2000/svg">
<g opacity="0.6">
<g clip-path="url(#clip0_188_3887)">
<path d="M78.9724 51.7373H76.7152C76.3435 51.7373 75.9888 52.0359 75.9226 52.4036L74.0107 63.071C73.9445 63.4395 74.1923 63.7373 74.5641 63.7373H76.5944C76.9662 63.7373 77.3208 63.4387 77.3871 63.071L78.1478 58.8243L79.539 63.35C79.6068 63.5864 79.8181 63.7373 80.0807 63.7373H82.7689C83.0315 63.7373 83.2973 63.5864 83.4493 63.35L86.4664 58.8023L85.701 63.071C85.6348 63.4395 85.8826 63.7373 86.2544 63.7373H88.2847C88.6565 63.7373 89.0112 63.4387 89.0774 63.071L90.9893 52.4036C91.0555 52.0351 90.8077 51.7373 90.4359 51.7373H87.8304C87.5677 51.7373 87.3019 51.8889 87.1499 52.1247L82.2007 59.6061C82.1235 59.7263 81.9357 59.6933 81.896 59.5527L79.8625 52.1247C79.7947 51.8882 79.5835 51.7373 79.3208 51.7373H78.9724Z" fill="white"/>
<path d="M125.01 51.7373H122.949C122.545 51.7373 122.16 52.0356 122.088 52.4038L120.012 63.0708C119.94 63.439 120.209 63.7373 120.612 63.7373H123.052C123.455 63.7373 123.84 63.439 123.912 63.0708L125.988 52.4038C126.06 52.0356 125.791 51.7373 125.388 51.7373H125.01H125.01Z" fill="white"/>
<path d="M105.591 63.7373H113.959C115.79 63.7373 117.537 62.3403 117.862 60.6162L118.948 54.8584C119.273 53.1343 118.052 51.7373 116.223 51.7373H107.855C107.465 51.7373 107.093 52.0347 107.024 52.4018L105.011 63.0736C104.942 63.4407 105.202 63.7373 105.591 63.7373ZM110.274 55.2255C110.316 55.0056 110.539 54.8271 110.772 54.8271H114.748C114.982 54.8271 115.138 55.0056 115.096 55.2255L114.157 60.2061C114.115 60.426 113.892 60.6045 113.659 60.6045H109.682C109.448 60.6045 109.292 60.426 109.334 60.2061L110.273 55.2255H110.274Z" fill="white"/>
<path d="M125.04 63.4606C125.116 63.6312 125.291 63.7365 125.501 63.7365H128.499C128.72 63.7365 128.945 63.6194 129.082 63.4331L129.549 62.7948L129.793 62.4356H135.801L136.119 63.4307C136.179 63.6194 136.34 63.7373 136.537 63.7373H139.374C139.559 63.7373 139.748 63.632 139.87 63.4614C139.993 63.29 140.032 63.0778 139.972 62.9025L136.414 52.3613C136.185 51.73 135.565 51.7473 135.565 51.7473C135.236 51.7473 134.95 51.7403 134.69 51.7403C134.613 51.7387 134.551 51.741 134.478 51.741C134.448 51.741 134.414 51.7403 134.384 51.7403C134.179 51.7371 133.991 51.7347 133.816 51.7426V51.7528C133.816 51.7528 133.811 51.7528 133.808 51.7536V51.7426C133.172 51.7654 132.703 51.8841 132.336 52.3613L125.131 62.9025C124.998 63.0778 124.964 63.29 125.04 63.4614L125.04 63.4606ZM133.865 56.441L134.889 59.5719H131.738L133.865 56.441Z" fill="white"/>
<path d="M92.604 63.7373H102.959H103.332C103.571 63.7373 103.799 63.5586 103.841 63.3376L104.291 60.9932C104.334 60.7722 104.175 60.5935 103.936 60.5935H96.4798C96.4006 60.5935 96.3473 60.5339 96.3615 60.4602L96.5823 59.3073C96.5965 59.2336 96.6723 59.174 96.7523 59.174H102.749C102.988 59.174 103.216 58.9953 103.258 58.7743L103.656 56.6988C103.699 56.4777 103.54 56.299 103.301 56.299H97.304C97.224 56.299 97.1715 56.2395 97.1856 56.1658L97.4231 54.9305C97.4373 54.8568 97.5131 54.7973 97.5931 54.7973H105.05C105.289 54.7973 105.516 54.6178 105.559 54.3975L105.993 52.137C106.036 51.916 105.876 51.7373 105.637 51.7373H94.909C94.5106 51.7373 94.1315 52.0359 94.0606 52.4035L92.0115 63.0711C91.9406 63.4395 92.2056 63.7373 92.604 63.7373Z" fill="white"/>
<path d="M101.487 47.5128H101.839C102.215 47.5128 102.573 47.2203 102.639 46.8592L103.041 44.6884C103.054 44.6161 103.126 44.5576 103.201 44.5576L105.947 44.5545C106.083 44.5545 106.197 44.6192 106.253 44.7269L107.643 47.4204C107.793 47.7114 108.066 47.7476 108.89 47.7353C109.372 47.7414 110.105 47.7052 111.287 47.7052C111.668 47.7052 111.9 47.3157 111.714 46.9909L110.204 44.3582C110.168 44.2943 110.206 44.2081 110.285 44.1704C111.375 43.6508 112.241 42.6462 112.456 41.4823L112.95 38.8065C113.262 37.1114 112.087 35.7373 110.323 35.7373H101.745C101.369 35.7373 101.011 36.0298 100.945 36.3901L99.0108 46.8585C98.9439 47.2195 99.1943 47.512 99.5698 47.512H101.486L101.487 47.5128ZM104.128 38.8134C104.141 38.741 104.213 38.6825 104.288 38.6825H108.727C109.061 38.6825 109.285 38.9435 109.226 39.2653L108.901 41.0258C108.84 41.346 108.521 41.6062 108.188 41.6062H103.748C103.674 41.6062 103.623 41.5477 103.637 41.4753L104.128 38.8126V38.8134Z" fill="white"/>
<path d="M97.9497 38.865C98.2622 37.1376 97.0869 35.7373 95.3236 35.7373H86.7455C86.37 35.7373 86.0119 36.0354 85.945 36.4033L84.0108 47.0713C83.9439 47.4392 84.1942 47.7373 84.5697 47.7373H86.8376C87.2131 47.7373 87.5713 47.4392 87.6382 47.0713L88.0397 44.8591C88.0531 44.7854 88.1247 44.7257 88.1995 44.7257L93.6957 44.7202C95.459 44.7202 97.142 43.32 97.4553 41.5926L97.9489 38.8658L97.9497 38.865ZM94.2247 39.3333L93.8996 41.1274C93.8389 41.4545 93.5201 41.7189 93.1864 41.7189H88.7474C88.6718 41.7189 88.6222 41.6592 88.6356 41.5855L89.1268 38.8728C89.1402 38.7991 89.2118 38.7395 89.2866 38.7395H93.7256C94.0601 38.7395 94.2837 39.0054 94.2247 39.3333Z" fill="white"/>
<path d="M154.227 35.7373H147.033C145.205 35.7373 143.461 37.1349 143.136 38.8588L142.052 44.6158C141.728 46.3397 142.945 47.7373 144.773 47.7373H151.967C153.794 47.7373 155.539 46.3397 155.864 44.6158L156.948 38.8588C157.272 37.1349 156.054 35.7373 154.227 35.7373ZM152.165 44.205C152.124 44.4249 151.901 44.6033 151.668 44.6033H146.254C146.021 44.6033 145.865 44.4249 145.907 44.205L146.845 39.225C146.886 39.0051 147.109 38.8267 147.342 38.8267H152.756C152.989 38.8267 153.145 39.0051 153.103 39.225L152.165 44.205Z" fill="white"/>
<path d="M79.7881 47.7373H80.1541C81.9881 47.7373 83.7402 46.3345 84.066 44.605L84.2773 43.4826C84.6031 41.7522 83.3799 40.3502 81.546 40.3502H75.8983C75.6641 40.3502 75.5078 40.1711 75.5495 39.9504L75.692 39.1948C75.7337 38.9741 75.9573 38.795 76.1914 38.795H83.8319C84.2224 38.795 84.5949 38.4966 84.6637 38.1282L84.9887 36.4034C85.0583 36.035 84.798 35.7373 84.4074 35.7373H76.0571C74.2223 35.7373 72.4711 37.1401 72.1452 38.8697L71.9143 40.0934C71.5885 41.8237 72.8117 43.2257 74.6456 43.2257H80.2933C80.5274 43.2257 80.6838 43.4048 80.6421 43.6255L80.5356 44.1926C80.4939 44.4133 80.2704 44.5924 80.0362 44.5924H72.1845C71.794 44.5924 71.4214 44.8909 71.3519 45.2592L71.0113 47.0705C70.9417 47.4388 71.202 47.7373 71.5926 47.7373H79.7889H79.7881Z" fill="white"/>
<path d="M57.604 47.7373H67.959H68.3323C68.5715 47.7373 68.799 47.5586 68.8415 47.3376L69.2915 44.9932C69.334 44.7722 69.1748 44.5935 68.9365 44.5935H61.4798C61.4006 44.5935 61.3473 44.5339 61.3615 44.4602L61.5823 43.3073C61.5965 43.2336 61.6723 43.174 61.7523 43.174H67.749C67.9881 43.174 68.2156 42.9953 68.2581 42.7743L68.6565 40.6988C68.699 40.4777 68.5398 40.299 68.3006 40.299H62.304C62.224 40.299 62.1715 40.2395 62.1856 40.1658L62.4231 38.9305C62.4373 38.8568 62.5131 38.7973 62.5931 38.7973H70.0498C70.289 38.7973 70.5165 38.6178 70.559 38.3975L70.9931 36.137C71.0356 35.916 70.8765 35.7373 70.6373 35.7373H59.909C59.5106 35.7373 59.1315 36.0359 59.0606 36.4035L57.0115 47.0711C56.9406 47.4395 57.2056 47.7373 57.604 47.7373Z" fill="white"/>
<path d="M135.788 47.7373H136.154C137.988 47.7373 139.74 46.3345 140.066 44.605L140.277 43.4826C140.603 41.7522 139.38 40.3502 137.546 40.3502H131.898C131.664 40.3502 131.508 40.1711 131.55 39.9504L131.692 39.1948C131.734 38.9741 131.957 38.795 132.191 38.795H139.832C140.222 38.795 140.595 38.4966 140.664 38.1282L140.989 36.4034C141.058 36.035 140.798 35.7373 140.407 35.7373H132.057C130.223 35.7373 128.471 37.1401 128.145 38.8697L127.914 40.0934C127.588 41.8237 128.812 43.2257 130.646 43.2257H136.293C136.527 43.2257 136.684 43.4048 136.642 43.6255L136.536 44.1926C136.494 44.4133 136.27 44.5924 136.036 44.5924H128.185C127.794 44.5924 127.421 44.8909 127.352 45.2592L127.011 47.0705C126.942 47.4388 127.202 47.7373 127.593 47.7373H135.789H135.788Z" fill="white"/>
<path d="M114.604 47.7373H124.959H125.332C125.571 47.7373 125.799 47.5586 125.841 47.3376L126.291 44.9932C126.334 44.7722 126.175 44.5935 125.936 44.5935H118.48C118.401 44.5935 118.347 44.5339 118.361 44.4602L118.582 43.3073C118.596 43.2336 118.672 43.174 118.752 43.174H124.749C124.988 43.174 125.216 42.9953 125.258 42.7743L125.656 40.6988C125.699 40.4777 125.54 40.299 125.301 40.299H119.304C119.224 40.299 119.171 40.2395 119.186 40.1658L119.423 38.9305C119.437 38.8568 119.513 38.7973 119.593 38.7973H127.05C127.289 38.7973 127.516 38.6178 127.559 38.3975L127.993 36.137C128.036 35.916 127.876 35.7373 127.637 35.7373H116.909C116.511 35.7373 116.131 36.0359 116.061 36.4035L114.011 47.0711C113.941 47.4395 114.206 47.7373 114.604 47.7373Z" fill="white"/>
<path d="M4 38.7373H3V39.7373H4V38.7373Z" fill="white"/>
<path d="M6 38.7373H5V39.7373H6V38.7373Z" fill="white"/>
<path d="M6 39.7373H5V40.7373H6V39.7373Z" fill="white"/>
<path d="M4 41.7373H3V42.7373H4V41.7373Z" fill="white"/>
<path d="M6 41.7373H5V42.7373H6V41.7373Z" fill="white"/>
<path d="M4 43.7373H3V44.7373H4V43.7373Z" fill="white"/>
<path d="M1 35.7373H0V36.7373H1V35.7373Z" fill="white"/>
<path d="M1 40.7373H0V41.7373H1V40.7373Z" fill="white"/>
<path d="M2 46.7373H1V47.7373H2V46.7373Z" fill="white"/>
<path d="M6 46.7373H5V47.7373H6V46.7373Z" fill="white"/>
<path d="M6 47.7373H5V48.7373H6V47.7373Z" fill="white"/>
<path d="M4 49.7373H3V50.7373H4V49.7373Z" fill="white"/>
<path d="M41.4254 66.7373H3.579C0.0561916 66.7373 -0.935777 61.7373 0.91424 61.7373H44.0821C45.9321 61.7373 44.9554 66.7373 41.4254 66.7373Z" fill="white"/>
<path d="M37.5887 33.7373H8.76512C7.7868 33.7373 7 34.5277 7 35.5096V39.9569H7.00638H8.54727V41.5056H7.00638H7V41.9H7.00638L8.54727 41.9008V43.4487H7.00638L7 43.4479V49.6764H8.56562V51.2259H7V52.6463C7 56.5614 10.1616 59.7373 14.0589 59.7373H28.1766C32.0739 59.7373 35.2355 56.5614 35.2355 52.6463H37.5887C42.7795 52.6463 47 48.4066 47 43.1914C47 37.9762 42.7795 33.7373 37.5887 33.7373ZM10.4832 45.3942H8.94147V43.8447H10.4832V45.3942ZM10.4832 43.4495H8.94147V41.9016H10.4832V43.4495ZM12.4182 43.4495H10.8766V41.9016H12.4182V43.4495ZM12.4182 41.5064H10.8766V39.9577H12.4182V41.5064ZM14.3533 51.2259H12.8124V49.6764H14.3533V51.2259ZM14.3533 49.2812H12.8124V47.7333H14.3533V49.2812ZM14.3533 47.3381H12.8124V45.7902H14.3533V47.3381ZM14.3533 45.3942H12.8124V43.8447H14.3533V45.3942ZM14.3533 43.4495H12.8124V41.9016H14.3533V43.4495ZM14.3533 41.5064H12.8124V39.9577H14.3533V41.5064ZM14.3533 39.5626H12.8124V38.0131H14.3533V39.5626ZM16.2876 51.2259H14.7467V49.6764H16.2876V51.2259ZM16.2876 49.2812H14.7467V47.7333H16.2876V49.2812ZM16.2876 47.3381H14.7467V45.7902H16.2876V47.3381ZM16.2876 45.3942H14.7467V43.8447H16.2876V45.3942ZM16.2876 43.4495H14.7467V41.9016H16.2876V43.4495ZM16.2876 41.5064H14.7467V39.9577H16.2876V41.5064ZM16.2876 39.5626H14.7467V38.0131H16.2876V39.5626ZM37.5887 47.9193H35.2355V38.4644H37.5887C40.1837 38.4644 42.2944 40.5838 42.2944 43.1914C42.2944 45.799 40.1837 47.9185 37.5887 47.9185V47.9193Z" fill="white"/>
</g>
</g>
<defs>
<clipPath id="clip0_188_3887">
<rect width="157" height="33" fill="white" transform="translate(0 33.7373)"/>
</clipPath>
</defs>
</svg>
