<svg width="200" height="91" viewBox="0 0 200 91" fill="none" xmlns="http://www.w3.org/2000/svg">
<g opacity="0.6">
<g clip-path="url(#clip0_188_3885)">
<path d="M12.8891 57.1529C11.9289 56.6401 11.2319 56.0202 10.7979 55.2951V64H8V42.371H10.7979V44.6271C11.2328 43.902 11.9299 43.283 12.8891 42.7692C13.8483 42.2564 14.9899 42 16.3121 42C17.7609 42 19.0687 42.3447 20.2372 43.0351C21.4057 43.7254 22.3245 44.6806 22.9947 45.9016C23.6639 47.1227 24 48.4761 24 49.962C24 51.4479 23.6649 52.8013 22.9947 54.0224C22.3245 55.2434 21.4057 56.1986 20.2372 56.888C19.0687 57.5784 17.7609 57.9231 16.3121 57.9231C14.9899 57.9231 13.8493 57.6667 12.8891 57.1538V57.1529ZM18.77 54.7916C19.5574 54.3135 20.169 53.6504 20.6039 52.8013C21.0389 51.9523 21.2559 51.0055 21.2559 49.962C21.2559 48.9185 21.0389 47.9717 20.6039 47.1227C20.169 46.2736 19.5583 45.6105 18.77 45.1324C17.9827 44.6543 17.0811 44.4157 16.0672 44.4157C15.035 44.4157 14.1152 44.659 13.3096 45.1455C12.5041 45.6321 11.8742 46.2961 11.422 47.1358C10.9688 47.9764 10.7432 48.9185 10.7432 49.962C10.7432 51.0064 10.9698 51.9485 11.422 52.7882C11.8742 53.6288 12.5041 54.2919 13.3096 54.7785C14.1152 55.265 15.035 55.5083 16.0672 55.5083C17.0811 55.5083 17.9818 55.2697 18.77 54.7916Z" fill="white"/>
<path d="M30.8954 56.9599C29.6755 56.2662 28.7222 55.311 28.0333 54.0934C27.3444 52.8759 27 51.5111 27 50C27 48.4889 27.3444 47.1241 28.0333 45.9066C28.7222 44.689 29.6755 43.7329 30.8954 43.0401C32.1142 42.3464 33.487 42 35.0138 42C36.5396 42 37.9124 42.3464 39.1322 43.0401C40.3511 43.7338 41.3005 44.689 41.9805 45.9066C42.6595 47.1251 43 48.4889 43 50C43 50.4983 42.9812 50.8712 42.9437 51.1203H29.8769C30.0259 52.454 30.5707 53.547 31.5102 54.4002C32.4498 55.2534 33.6183 55.68 35.0138 55.68C36.0748 55.68 37.0104 55.4705 37.8196 55.0533C38.6299 54.6362 39.1826 54.1067 39.4806 53.4667H42.4128C41.9657 54.8004 41.0725 55.8886 39.7323 56.7334C38.3921 57.5772 36.8189 58 35.0138 58C33.487 58 32.1142 57.6536 30.8954 56.9599ZM38.5322 45.5857C37.6015 44.7419 36.4281 44.319 35.0138 44.319C33.5996 44.319 32.4261 44.7419 31.4954 45.5857C30.5648 46.4304 30.0249 47.5281 29.8759 48.8787H40.1784C40.0106 47.5281 39.4619 46.4304 38.5312 45.5857H38.5322Z" fill="white"/>
<path d="M54 44.105H50.4426V57H47.5574V44.105H44V41.6655H47.5574V37H50.4426V41.6655H54V44.105Z" fill="white"/>
<path d="M60.8894 57.1529C59.9292 56.6401 59.233 56.0202 58.7981 55.2951V64H56V42.371H58.7981V44.6271C59.233 43.902 59.9292 43.283 60.8894 42.7692C61.8486 42.2564 62.9903 42 64.3125 42C65.7615 42 67.0703 42.3447 68.2379 43.0351C69.4055 43.7254 70.3254 44.6806 70.9956 45.9016C71.6649 47.1227 72 48.4761 72 49.962C72 51.4479 71.6649 52.8013 70.9956 54.0224C70.3254 55.2434 69.4065 56.1986 68.2379 56.888C67.0703 57.5784 65.7615 57.9231 64.3125 57.9231C62.9903 57.9231 61.8496 57.6667 60.8894 57.1538V57.1529ZM66.7717 54.7916C67.56 54.3135 68.1707 53.6504 68.6057 52.8013C69.0406 51.9523 69.2576 51.0055 69.2576 49.962C69.2576 48.9185 69.0406 47.9717 68.6057 47.1227C68.1707 46.2736 67.56 45.6105 66.7717 45.1324C65.9833 44.6543 65.0826 44.4157 64.0687 44.4157C63.0364 44.4157 62.1165 44.659 61.3109 45.1455C60.5053 45.6321 59.8754 46.2961 59.4232 47.1358C58.9699 47.9764 58.7443 48.9185 58.7443 49.962C58.7443 51.0064 58.9709 51.9485 59.4232 52.7882C59.8754 53.6288 60.5053 54.2919 61.3109 54.7785C62.1165 55.265 63.0364 55.5083 64.0687 55.5083C65.0826 55.5083 65.9833 55.2697 66.7717 54.7916Z" fill="white"/>
<path d="M78.8954 56.9599C77.6756 56.2662 76.7222 55.311 76.0333 54.0934C75.3444 52.8759 75 51.5111 75 50C75 48.4889 75.3444 47.1241 76.0333 45.9066C76.7222 44.689 77.6756 43.7329 78.8954 43.0401C80.1142 42.3464 81.487 42 83.0138 42C84.5396 42 85.9124 42.3464 87.1322 43.0401C88.3511 43.7338 89.3005 44.689 89.9805 45.9066C90.6595 47.1251 91 48.4889 91 50C91 50.4983 90.9812 50.8712 90.9437 51.1203H77.8769C78.0259 52.454 78.5697 53.547 79.5102 54.4002C80.4498 55.2534 81.6183 55.68 83.0138 55.68C84.0748 55.68 85.0104 55.4705 85.8196 55.0533C86.6289 54.6362 87.1826 54.1067 87.4806 53.4667H90.4128C89.9657 54.8004 89.0725 55.8886 87.7323 56.7334C86.3921 57.5772 84.8189 58 83.0138 58C81.487 58 80.1142 57.6536 78.8954 56.9599ZM86.5312 45.5857C85.6005 44.7419 84.4281 44.319 83.0128 44.319C81.5976 44.319 80.4251 44.7419 79.4945 45.5857C78.5628 46.4304 78.0239 47.5281 77.8749 48.8787H88.1774C88.0106 47.5281 87.4609 46.4304 86.5302 45.5857H86.5312Z" fill="white"/>
<path d="M105.117 43.0401C106.338 43.7338 107.291 44.689 107.974 45.9066C108.658 47.1251 109 48.4889 109 50C109 51.5111 108.658 52.8759 107.974 54.0934C107.291 55.311 106.338 56.2671 105.117 56.9599C103.895 57.6536 102.528 58 101.014 58C99.4828 58 98.11 57.6536 96.8978 56.9599C95.6846 56.2662 94.7323 55.311 94.0392 54.0934C93.3461 52.8759 93 51.5111 93 50C93 48.4889 93.3461 47.1241 94.0392 45.9066C94.7323 44.689 95.6846 43.7329 96.8978 43.0401C98.11 42.3464 99.4818 42 101.014 42C102.527 42 103.895 42.3464 105.117 43.0401ZM98.2937 45.16C97.5 45.6489 96.8804 46.3162 96.4338 47.16C95.9871 48.0047 95.7638 48.9514 95.7638 50C95.7638 51.0496 95.9871 51.9962 96.4338 52.84C96.8804 53.6848 97.5 54.3511 98.2937 54.84C99.0874 55.3289 99.9941 55.5734 101.015 55.5734C102.017 55.5734 102.92 55.3289 103.723 54.84C104.525 54.3511 105.145 53.6848 105.583 52.84C106.021 51.9962 106.239 51.0486 106.239 50C106.239 48.9514 106.021 48.0047 105.583 47.16C105.145 46.3162 104.525 45.6489 103.723 45.16C102.92 44.6711 102.017 44.4266 101.015 44.4266C99.9941 44.4266 99.0874 44.6711 98.2937 45.16Z" fill="white"/>
<path d="M120 44.105H116.443V57H113.557V44.105H110V41.6655H113.557V37H116.443V41.6655H120V44.105Z" fill="white"/>
<path d="M124.763 56.9608C123.595 56.2671 122.675 55.3072 122.005 54.0812C121.335 52.8542 121 51.4941 121 50.0009C121 48.5078 121.335 47.1477 122.005 45.9207C122.675 44.6937 123.594 43.7338 124.763 43.0401C125.93 42.3464 127.239 42 128.687 42C130.009 42 131.15 42.2577 132.11 42.773C133.069 43.2893 133.767 43.9113 134.202 44.6399V42.3728H137V57.6272H134.202V55.3601C133.767 56.0887 133.07 56.7107 132.11 57.227C131.15 57.7423 130.01 58 128.687 58C127.239 58 125.93 57.6536 124.763 56.9599V56.9608ZM131.69 54.84C132.495 54.3511 133.125 53.6848 133.577 52.84C134.029 51.9962 134.256 51.0486 134.256 50C134.256 48.9514 134.029 48.0047 133.577 47.16C133.124 46.3162 132.495 45.6489 131.69 45.16C130.883 44.6711 129.965 44.4266 128.932 44.4266C127.918 44.4266 127.017 44.6664 126.23 45.1468C125.441 45.6262 124.831 46.2935 124.396 47.1468C123.961 48 123.744 48.9514 123.744 50C123.744 51.0496 123.961 52 124.396 52.8532C124.831 53.7065 125.441 54.3728 126.23 54.8532C127.017 55.3327 127.918 55.5734 128.932 55.5734C129.964 55.5734 130.883 55.3289 131.69 54.84Z" fill="white"/>
<path d="M141 57V35H144V57H141Z" fill="white"/>
<path d="M154.079 50.0224L150.899 53.1916V57H148V35H150.899V49.9158L158.919 41.7655H162.325L155.908 48.1842L163 57H159.567L154.079 50.0214V50.0224Z" fill="white"/>
<path d="M179 37.3121C178.998 37.5755 178.982 37.8369 178.957 38.0956C178.585 42.0336 175.888 45.3715 172.113 46.9817C171.898 47.0729 171.718 46.8002 171.9 46.661C172.778 45.9904 173.451 45.1082 173.825 44.1018C173.848 44.0529 173.866 44.0012 173.879 43.9476C173.894 43.8846 173.903 43.8187 173.903 43.7519C173.903 43.2741 173.492 42.8848 172.973 42.8565C172.969 42.8556 172.966 42.8556 172.962 42.8556C172.945 42.8547 172.928 42.8547 172.911 42.8547C172.903 42.8547 172.893 42.8547 172.885 42.8556C169.624 42.8001 167 40.3914 167 37.4287C167 37.14 167.025 36.856 167.074 36.5785C167.524 33.9845 170.006 32 173 32C176.273 32 178.932 34.3673 179 37.3121Z" fill="white"/>
</g>
</g>
<defs>
<clipPath id="clip0_188_3885">
<rect width="171" height="32" fill="white" transform="translate(8 32)"/>
</clipPath>
</defs>
</svg>
