<svg width="200" height="90" viewBox="0 0 200 90" fill="none" xmlns="http://www.w3.org/2000/svg">
<g opacity="0.6">
<g clip-path="url(#clip0_1536_14622)">
<path fill-rule="evenodd" clip-rule="evenodd" d="M41.6682 35.8477C38.2321 28.377 30.6805 23.1953 21.9268 23.1953C12.2877 23.1953 4.11756 29.4782 1.28785 38.1817L6.70908 42.3236C7.96198 35.0403 14.3044 29.5039 21.9471 29.5039C27.0783 29.5039 31.6234 31.9995 34.4356 35.8477H41.6682ZM42.4728 37.8569H35.6805C36.6216 39.6728 37.214 41.6999 37.3691 43.8498H43.6103L43.62 43.8731C43.5212 41.7758 43.1251 39.7567 42.4728 37.8569ZM43.6226 45.8953L37.3995 45.9013C36.9168 54.0094 30.1945 60.4293 21.9646 60.4293C13.9582 60.4293 7.36339 54.3535 6.56539 46.5583L0.4368 41.9104L0.433538 41.8992C0.297089 42.8841 0.226562 43.8903 0.226562 44.913C0.226562 56.9163 9.941 66.6132 21.9268 66.6132C33.5834 66.6132 43.1082 57.4251 43.6226 45.8953Z" fill="white"/>
<path fill-rule="evenodd" clip-rule="evenodd" d="M37.397 45.9013L26.7511 45.9115L26.4017 46.2784L26.3667 53.8089L26.0173 54.1408H22.488L22.1735 53.7739V35.8477H34.4331C31.6208 31.9995 27.0757 29.5039 21.9445 29.5039C14.3028 29.5039 7.96095 35.0389 6.70697 42.321L17.4209 50.5067V36.1971L17.8228 35.8477H21.6841V53.7739L21.3521 54.1408H16.5648L6.5625 46.5551C7.35902 54.3518 13.9545 60.4293 21.962 60.4293C30.192 60.4293 36.9142 54.0094 37.397 45.9013ZM35.678 37.8569C36.6191 39.6728 37.2115 41.6999 37.3665 43.8498H26.6987L26.3667 43.5878V38.2413L26.7511 37.8569H35.678Z" fill="white" fill-opacity="0.3"/>
<g clip-path="url(#clip1_1536_14622)">
<path d="M62.4251 53.0589C62.4251 53.0589 62.2853 53.0939 62.163 53.0939H59.9091C59.7868 53.0939 59.6994 53.0939 59.647 53.0589C59.5946 53.024 59.5422 52.9541 59.4898 52.8318L52.4311 35.7617C52.4136 35.6394 52.4136 35.5695 52.4311 35.517C52.466 35.4646 52.6058 35.4297 52.8504 35.4297H55.0693C55.2091 35.4297 55.2965 35.4297 55.3489 35.4646C55.4013 35.4821 55.4363 35.552 55.4712 35.6568L60.9924 49.3025L66.5834 35.6568C66.6358 35.552 66.6882 35.4821 66.7406 35.4646C66.7931 35.4472 66.8804 35.4297 67.0202 35.4297H69.2391C69.4663 35.4297 69.606 35.4646 69.641 35.517C69.6759 35.5695 69.6934 35.6568 69.641 35.7617L62.5648 52.8318C62.5124 52.9541 62.46 53.024 62.4076 53.0589H62.4251Z" fill="white"/>
<path d="M72.1751 40.6545C71.7732 40.6545 71.4413 40.5322 71.1792 40.2876C70.9171 40.043 70.7773 39.746 70.7773 39.3965C70.7773 39.0471 70.9171 38.7326 71.1792 38.488C71.4413 38.2434 71.7732 38.1211 72.1751 38.1211C72.577 38.1211 72.9089 38.2434 73.171 38.488C73.4331 38.7326 73.5729 39.0471 73.5729 39.3965C73.5729 39.746 73.4331 40.043 73.171 40.2876C72.9089 40.5322 72.5595 40.6545 72.1751 40.6545ZM71.3015 52.8675C71.3015 52.8675 71.1792 52.85 71.1268 52.7976C71.0744 52.7452 71.0569 52.7102 71.0569 52.6403V42.8909C71.0569 42.8909 71.0744 42.7861 71.1268 42.7337C71.1792 42.6813 71.2316 42.6638 71.3015 42.6638H73.0138C73.0138 42.6638 73.1361 42.6813 73.1885 42.7337C73.2409 42.7861 73.2584 42.8211 73.2584 42.8909V52.6403C73.2584 52.6403 73.2409 52.7452 73.1885 52.7976C73.1361 52.8325 73.0836 52.8675 73.0138 52.8675H71.3015Z" fill="white"/>
<path d="M81.698 44.4597C81.4184 44.3898 81.1913 44.3549 80.9816 44.3374C80.772 44.3199 80.5973 44.3374 80.4575 44.3374C80.0556 44.4073 79.7237 44.5645 79.4616 44.8091C79.1995 45.0538 79.0248 45.3333 78.885 45.6478C78.7627 45.9623 78.6753 46.3117 78.6229 46.6787C78.588 47.0456 78.553 47.395 78.553 47.727V52.5492C78.553 52.724 78.4657 52.8113 78.3084 52.8113H76.6136C76.4564 52.8113 76.3865 52.724 76.3865 52.5318V45.0712C76.3865 44.6694 76.3865 44.285 76.369 43.8831C76.369 43.4813 76.3516 43.1493 76.3516 42.8523C76.3516 42.7475 76.369 42.6776 76.4215 42.6426C76.4564 42.6077 76.5263 42.5902 76.6311 42.5902H78.3259C78.4133 42.5902 78.4831 42.5902 78.4831 42.6251C78.4831 42.6601 78.5006 42.695 78.5006 42.7475V43.5686C78.588 43.4114 78.7278 43.2716 78.885 43.1144C79.0422 42.9571 79.217 42.8348 79.3917 42.7125C79.5839 42.5902 79.7586 42.5028 79.9508 42.433C80.143 42.3631 80.3177 42.3281 80.475 42.3281C80.737 42.3281 80.9642 42.3281 81.1738 42.3281C81.3835 42.3281 81.6106 42.398 81.8378 42.5203C81.9077 42.5378 81.9426 42.5902 81.9601 42.6426C81.9601 42.695 81.9775 42.7475 81.9775 42.7999V44.1976C81.9775 44.1976 81.9601 44.3025 81.9077 44.3723C81.8727 44.4422 81.7854 44.4597 81.6631 44.4248L81.698 44.4597Z" fill="white"/>
<path d="M89.2442 52.6715C89.052 52.7763 88.755 52.8811 88.3356 52.9685C87.9163 53.0559 87.4795 53.1083 86.9903 53.1083C86.4137 53.1083 85.9595 53.0034 85.61 52.7763C85.2606 52.5666 85.016 52.3046 84.8587 52.025C84.6665 51.7105 84.5442 51.3261 84.5093 50.8893C84.4743 50.4525 84.4394 49.8759 84.4394 49.1247V44.4771H82.7446C82.7446 44.4771 82.6223 44.4596 82.5699 44.4072C82.5175 44.3548 82.5 44.3199 82.5 44.25V42.7823C82.5 42.7823 82.5175 42.66 82.5699 42.6251C82.6223 42.5901 82.6747 42.5552 82.7446 42.5552H84.4394V39.9693C84.4394 39.9693 84.4743 39.8645 84.5268 39.8121C84.5792 39.7597 84.6491 39.7422 84.7189 39.7422H86.3788C86.3788 39.7422 86.5186 39.7597 86.571 39.8121C86.6234 39.8645 86.6409 39.8994 86.6409 39.9693V42.5552H88.5977C88.5977 42.5552 88.72 42.5727 88.7724 42.6251C88.8249 42.66 88.8423 42.7124 88.8423 42.7823V44.25C88.8423 44.25 88.8249 44.3723 88.7724 44.4072C88.72 44.4422 88.6676 44.4771 88.5977 44.4771H86.6409V49.247C86.6409 50.0856 86.6583 50.6272 86.7108 50.8369C86.7632 51.064 86.9029 51.2038 87.0951 51.2388C87.2873 51.2737 87.5319 51.3087 87.794 51.2737C87.9687 51.2562 88.1609 51.2213 88.3881 51.1689C88.5977 51.1339 88.7899 51.0815 88.9646 51.0116C89.0345 50.9942 89.0869 50.9767 89.1044 51.0116C89.1219 51.0466 89.1568 51.0815 89.1918 51.1863L89.349 52.4094C89.349 52.4094 89.3316 52.5666 89.2442 52.6365V52.6715Z" fill="white"/>
<path d="M98.2949 52.8342C98.2949 52.8342 98.1726 52.8342 98.1202 52.7818C98.0678 52.7468 98.0503 52.7119 98.0678 52.642V51.8907C97.7183 52.2926 97.2815 52.5896 96.7748 52.7992C96.2682 53.0089 95.7265 53.1137 95.1674 53.1137C93.8396 53.1137 92.8611 52.7643 92.1972 52.0654C91.5332 51.3665 91.2188 50.3532 91.2188 49.0428V42.8402C91.2188 42.8402 91.2362 42.7179 91.2886 42.6655C91.3411 42.6131 91.3935 42.5781 91.4634 42.5781H93.1407C93.1407 42.5781 93.263 42.6131 93.3329 42.6655C93.3853 42.7354 93.4202 42.7878 93.4202 42.8577V48.7457C93.4202 49.6718 93.5949 50.3182 93.9269 50.7026C94.2589 51.087 94.7481 51.2792 95.412 51.2792C96.1459 51.2792 96.7574 51.0346 97.2466 50.5279C97.7358 50.0212 97.9804 49.2699 97.9804 48.274V42.8402C97.9804 42.8402 97.9979 42.7179 98.0503 42.6655C98.1027 42.6131 98.1551 42.5781 98.225 42.5781H99.9198C99.9198 42.5781 100.042 42.6131 100.095 42.683C100.147 42.7528 100.164 42.8227 100.164 42.8751V50.4231C100.164 50.8074 100.164 51.1918 100.182 51.5587C100.199 51.9256 100.199 52.2751 100.199 52.5721C100.199 52.7294 100.129 52.8167 99.9722 52.8167H98.3124L98.2949 52.8342Z" fill="white"/>
<path d="M109.688 52.8304C109.601 52.8304 109.531 52.8304 109.496 52.7955C109.461 52.7605 109.461 52.7256 109.461 52.6557V51.8171C109.112 52.2539 108.693 52.5684 108.168 52.7955C107.644 53.0052 107.12 53.1275 106.578 53.1275C106.019 53.1275 105.495 53.0576 105.041 52.9178C104.569 52.778 104.167 52.5858 103.835 52.3063C103.503 52.0267 103.241 51.6948 103.049 51.2929C102.857 50.891 102.77 50.4193 102.77 49.8951C102.77 49.2661 102.892 48.707 103.136 48.2353C103.381 47.7636 103.765 47.3617 104.29 47.0472C104.814 46.7327 105.495 46.5056 106.299 46.3483C107.12 46.1911 108.116 46.1212 109.269 46.1212C109.269 45.894 109.234 45.6494 109.182 45.4223C109.129 45.1952 109.042 44.9855 108.902 44.7933C108.78 44.6011 108.588 44.4613 108.361 44.339C108.133 44.2167 107.836 44.1643 107.487 44.1643C106.875 44.1643 106.316 44.2342 105.81 44.3915C105.303 44.5312 104.849 44.7409 104.412 44.9855C104.202 45.1078 104.045 45.1602 103.975 45.1428C103.905 45.1428 103.87 45.0554 103.87 44.9331V43.5179C103.87 43.5179 103.87 43.413 103.87 43.3606C103.87 43.3082 103.87 43.2558 103.905 43.2208C103.94 43.1684 104.045 43.0985 104.22 43.0112C104.691 42.8015 105.163 42.6268 105.635 42.487C106.107 42.3472 106.736 42.2773 107.47 42.2773C108.85 42.2773 109.863 42.5744 110.527 43.1859C111.191 43.7974 111.523 44.7409 111.523 46.0338V50.4193C111.523 50.7687 111.523 51.1356 111.523 51.5026C111.523 51.8869 111.558 52.2189 111.593 52.4985C111.628 52.6907 111.54 52.7955 111.366 52.7955H109.706L109.688 52.8304ZM106.054 48.3751C105.39 48.707 105.076 49.2137 105.076 49.8777C105.076 50.3494 105.233 50.6988 105.53 50.926C105.827 51.1531 106.229 51.2754 106.736 51.2754C107.522 51.2754 108.133 51.0133 108.605 50.4892C109.077 49.965 109.304 49.1613 109.304 48.0606V47.8509C107.784 47.8509 106.701 48.0256 106.054 48.3576V48.3751Z" fill="white"/>
<path d="M114.704 52.8676C114.546 52.8676 114.477 52.7977 114.477 52.6405V38.0514C114.477 38.0514 114.494 37.9291 114.546 37.8941C114.599 37.8592 114.651 37.8242 114.721 37.8242H116.433C116.433 37.8242 116.556 37.8417 116.608 37.8941C116.661 37.9291 116.678 37.9815 116.678 38.0514V52.6405C116.678 52.6405 116.661 52.7628 116.608 52.7977C116.556 52.8327 116.503 52.8676 116.433 52.8676H114.686H114.704Z" fill="white"/>
<path d="M123.037 37.9107V42.7679H129.45C129.677 42.7679 129.781 42.8553 129.781 43.0475V44.9519C129.781 45.1441 129.677 45.2315 129.45 45.2315H123.037V52.7444C123.037 52.9716 122.915 53.0939 122.67 53.0939H120.556C120.294 53.0939 120.172 52.9716 120.172 52.7444V35.849C120.172 35.6743 120.207 35.5695 120.277 35.517C120.347 35.4646 120.451 35.4297 120.591 35.4297H129.834C129.834 35.4297 129.991 35.4646 130.061 35.517C130.113 35.5695 130.148 35.6394 130.148 35.7092V37.5787C130.148 37.7884 130.044 37.9107 129.834 37.9107H123.055H123.037Z" fill="white"/>
<path d="M132.68 52.8676C132.523 52.8676 132.453 52.7977 132.453 52.6405V38.0514C132.453 38.0514 132.471 37.9291 132.523 37.8941C132.575 37.8592 132.628 37.8242 132.698 37.8242H134.41C134.41 37.8242 134.532 37.8417 134.585 37.8941C134.637 37.9291 134.655 37.9815 134.655 38.0514V52.6405C134.655 52.6405 134.637 52.7628 134.585 52.7977C134.532 52.8327 134.48 52.8676 134.41 52.8676H132.663H132.68Z" fill="white"/>
<path d="M146.259 51.4136C145.77 51.9727 145.176 52.392 144.495 52.689C143.813 52.986 143.044 53.1258 142.188 53.1258C141.332 53.1258 140.546 52.986 139.882 52.7065C139.218 52.4269 138.659 52.0251 138.205 51.5359C137.75 51.0467 137.418 50.4701 137.191 49.8061C136.964 49.1597 136.859 48.4608 136.859 47.7095C136.859 46.9582 136.964 46.2768 137.191 45.6129C137.418 44.9489 137.75 44.3898 138.205 43.9006C138.659 43.4114 139.218 43.027 139.882 42.7475C140.546 42.4679 141.315 42.3281 142.206 42.3281C143.097 42.3281 143.848 42.4679 144.512 42.7475C145.176 43.027 145.735 43.4114 146.189 43.9006C146.644 44.3898 146.976 44.9664 147.203 45.6129C147.43 46.2593 147.535 46.9582 147.535 47.7095C147.535 48.4608 147.43 49.1247 147.203 49.7537C146.993 50.3827 146.679 50.9418 146.259 51.4136ZM142.188 44.1277C141.664 44.1277 141.192 44.2326 140.808 44.4422C140.424 44.6519 140.109 44.9315 139.865 45.2634C139.62 45.5954 139.428 45.9798 139.305 46.4166C139.183 46.8534 139.113 47.2727 139.113 47.7095C139.113 48.1463 139.183 48.5656 139.305 49.0024C139.428 49.4392 139.62 49.8061 139.865 50.1556C140.109 50.505 140.424 50.7846 140.808 50.9942C141.192 51.2039 141.664 51.3087 142.188 51.3087C142.712 51.3087 143.184 51.2039 143.569 50.9942C143.953 50.7846 144.267 50.505 144.512 50.1556C144.757 49.8061 144.949 49.4218 145.071 49.0024C145.194 48.5831 145.263 48.1463 145.263 47.7095C145.263 47.2727 145.194 46.8708 145.071 46.434C144.949 45.9972 144.757 45.6303 144.512 45.2809C144.267 44.9315 143.953 44.6694 143.569 44.4422C143.184 44.2151 142.712 44.1103 142.188 44.1103V44.1277Z" fill="white"/>
<path d="M161.861 52.7781C161.861 52.7781 161.774 52.813 161.704 52.813H159.8C159.8 52.813 159.677 52.813 159.642 52.7781C159.608 52.7431 159.573 52.7082 159.538 52.6383L157.004 45.667L154.453 52.6383C154.453 52.6383 154.366 52.7606 154.331 52.7781C154.296 52.7956 154.244 52.813 154.174 52.813H152.287C152.287 52.813 152.182 52.813 152.147 52.7781C152.112 52.7431 152.077 52.7082 152.042 52.6383L148.391 42.8016C148.391 42.8016 148.356 42.6967 148.391 42.6618C148.408 42.6268 148.495 42.6094 148.653 42.6094H150.435C150.435 42.6094 150.575 42.6094 150.609 42.6443C150.644 42.6618 150.679 42.6967 150.697 42.7666L153.23 50.0175L155.816 42.7666C155.851 42.6618 155.921 42.6268 156.061 42.6268H157.965C158.105 42.6268 158.175 42.6793 158.21 42.7666L160.796 50.0175L163.329 42.7666C163.364 42.6618 163.434 42.6268 163.574 42.6268H165.391C165.531 42.6268 165.6 42.6443 165.635 42.6793C165.653 42.7142 165.653 42.7666 165.635 42.819L161.966 52.6558C161.966 52.6558 161.914 52.7781 161.879 52.7956L161.861 52.7781Z" fill="white"/>
</g>
</g>
</g>
<defs>
<clipPath id="clip0_1536_14622">
<rect width="165.984" height="43.68" fill="white" transform="translate(0 23)"/>
</clipPath>
<clipPath id="clip1_1536_14622">
<rect width="113.236" height="17.6991" fill="white" transform="translate(52.4141 35.4297)"/>
</clipPath>
</defs>
</svg>
