<svg width="200" height="91" viewBox="0 0 200 91" fill="none" xmlns="http://www.w3.org/2000/svg">
<g opacity="0.6">
<g clip-path="url(#clip0_188_3878)">
<path fill-rule="evenodd" clip-rule="evenodd" d="M91.1475 38.6353C83.9504 39.397 77.3089 36.6571 70.3768 33.5226L70.3761 33.5234L70.2989 33.4885C62.2641 29.856 55.5882 26.838 47.831 29.1017C44.6366 30.0336 42.0231 31.7703 39.4569 33.4756C36.2798 35.5869 33.1751 37.6499 29.1304 38.078C25.42 38.4706 22.8303 37.5319 20.202 36.5791C17.2255 35.5001 14.1994 34.4031 9.43948 35.2016C1.11674 36.5977 -3.43024 48.5005 3.12814 55.7575C7.76534 60.8906 15.932 63.5611 24.9765 63.6743C30.7158 63.746 35.9234 63.133 41.3617 62.4929C47.0231 61.8265 52.9345 61.1307 59.956 61.1473C69.7093 61.1701 77.2835 61.9221 83.9364 62.5826C88.0295 62.9889 91.7739 63.3607 95.4625 63.5067C103.647 63.8306 109.939 62.2499 115.24 58.2172C122.613 52.6088 122.759 39.525 113.675 35.5064C108.457 33.1979 103.899 34.8143 99.1992 36.4808C96.6035 37.4013 93.9646 38.3371 91.1475 38.6353ZM50.8103 52.9628V38.72H45.9061V40.0799H49.0491V52.9628H45.7601V54.32H54.0801V52.9628H50.8103ZM42.606 49.8899C42.673 49.1377 42.6374 48.4378 42.532 47.8026V47.8019C42.0415 44.8702 40.0223 43.92 38.2521 43.92C35.6684 43.92 33.2801 45.7845 33.2801 49.7729C33.2801 53.4137 35.5344 55.36 38.4712 55.36C40.0139 55.36 41.4157 54.7904 42.3409 53.6675L41.401 52.7377C40.697 53.5343 39.6776 53.9636 38.6017 53.9636C37.1567 53.9636 35.0628 53.1607 34.9337 49.8899H42.606ZM38.1314 45.2438C39.8841 45.2438 41.1345 46.8002 40.9321 48.5696H34.9902C35.3244 45.9938 36.9711 45.2438 38.1314 45.2438ZM61.8462 43.4414V52.9446H64.4801V54.32H57.2001V52.9446H60.0638V44.8371H57.3473V43.4414H61.8455H61.8462ZM62.2726 39.9407C62.2724 40.6131 61.704 41.16 61 41.16C60.2958 41.16 59.7244 40.6129 59.7244 39.9431C59.7244 39.2733 60.2951 38.72 61 38.72C61.7047 38.72 62.2724 39.2668 62.2726 39.9407ZM88.3675 49.8899C88.4317 49.1377 88.3982 48.4378 88.2921 47.8026L88.2914 47.8019C87.8009 44.8702 85.7842 43.92 84.0111 43.92C81.4293 43.92 79.0401 45.7845 79.0401 49.7729C79.0401 53.4137 81.2953 55.36 84.2309 55.36C85.7745 55.36 87.1749 54.7904 88.1009 53.6675L87.1617 52.7377C86.4583 53.5343 85.4381 53.9636 84.3635 53.9636C82.9184 53.9636 80.8243 53.1607 80.6938 49.8899H88.3675ZM83.8918 45.2438C85.6454 45.2438 86.8944 46.8002 86.6921 48.5696H80.7483C81.0874 45.9938 82.7335 45.2438 83.8918 45.2438ZM74.9184 47.15L74.9175 47.1488L75.9201 45.9474C75.0787 44.6836 73.6448 43.92 71.9265 43.92C68.788 43.92 66.5601 46.3162 66.5601 49.6186C66.5601 52.9209 68.799 55.36 71.8203 55.36C73.3105 55.36 74.7403 54.7467 75.759 53.6213L74.7896 52.4636C74.0682 53.3017 73.0323 53.7878 71.9615 53.7878C69.8801 53.7878 68.2941 51.9368 68.2941 49.4415C68.2941 46.9463 69.8589 45.3875 71.821 45.3875C73.3861 45.3875 74.3767 46.4984 74.5895 46.7371L74.5897 46.7373L74.5907 46.7385L74.5908 46.7386C74.6054 46.7549 74.6162 46.767 74.6231 46.7742C74.727 46.8807 74.9035 47.1289 74.9175 47.1488L74.9171 47.1493L74.9184 47.15ZM23.0199 45.834L26.6322 44.5994L27.0401 45.9182L23.427 47.1529L25.6605 50.3849L24.5939 51.2L22.3597 47.968L20.1269 51.2L19.0596 50.3849L21.2924 47.1529L17.6801 45.9182L18.0872 44.5994L21.7002 45.834V41.84H23.0199V45.834ZM102.96 45.9182L102.552 44.5994L98.9385 45.834V41.84H97.6202V45.834L94.0065 44.5994L93.6001 45.9182L97.2124 47.1529L94.9803 50.3849L96.0469 51.2L98.2804 47.968L100.513 51.2L101.581 50.3849L99.347 47.1529L102.96 45.9182ZM17.68 39.4304L16.1846 38.72L8.32 54.6694L9.79428 55.36L17.68 39.4304ZM111.865 38.72L113.36 39.4304L105.472 55.36L104 54.6694L111.865 38.72Z" fill="white"/>
</g>
</g>
<defs>
<clipPath id="clip0_188_3878">
<rect width="121" height="36" fill="white" transform="translate(0 28)"/>
</clipPath>
</defs>
</svg>
