<svg width="200" height="91" viewBox="0 0 200 91" fill="none" xmlns="http://www.w3.org/2000/svg">
<g opacity="0.6">
<g clip-path="url(#clip0_188_3879)">
<path d="M16.5011 30.7373C16.9075 30.7373 17.2605 30.8785 17.5537 31.1678C17.8534 31.4704 18 31.8269 18 32.2506V46.6978C17.9867 49.193 17.1007 51.3251 15.3486 53.0873C13.5966 54.8495 11.4715 55.7373 9 55.7373C6.5285 55.7373 4.39674 54.8495 2.63805 53.0739C0.879349 51.2982 0 49.1594 0 46.6507C0 44.1419 0.879349 42.0031 2.63805 40.2275C4.39674 38.4519 6.51517 37.564 9 37.564C11.265 37.564 13.2502 38.3241 14.9489 39.8441V32.2506C14.9489 31.8269 15.0955 31.4704 15.3953 31.1678C15.695 30.8785 16.0415 30.7373 16.4478 30.7373H16.4944H16.5011ZM4.78312 42.4403C3.63064 43.6173 3.05107 45.0365 3.05107 46.7045C3.05107 48.3725 3.63064 49.7715 4.78312 50.9485C5.94893 52.1255 7.35455 52.7107 9.00666 52.7107C10.6588 52.7107 12.0577 52.1255 13.2102 50.9485C14.376 49.7715 14.9556 48.359 14.9556 46.7045C14.9556 45.0499 14.3694 43.6173 13.2102 42.4403C12.0577 41.2633 10.6521 40.6781 9.00666 40.6781C7.36121 40.6781 5.94893 41.2633 4.78312 42.4403Z" fill="white"/>
<path d="M29 37.7373C31.4848 37.7373 33.6033 38.6167 35.362 40.3754C37.1207 42.134 38 44.2525 38 46.7373C38 49.2221 37.1207 51.3406 35.362 53.0993C33.6033 54.858 31.4848 55.7373 29 55.7373C26.5152 55.7373 24.3967 54.858 22.638 53.0993C20.8793 51.3406 20 49.2221 20 46.7373C20 44.2525 20.8793 42.134 22.638 40.3754C24.3967 38.6167 26.5152 37.7373 29 37.7373ZM29 40.8217C27.3479 40.8217 25.9423 41.4013 24.7765 42.5671C23.624 43.7329 23.0444 45.1385 23.0444 46.7906C23.0444 48.4427 23.624 49.8283 24.7765 50.9942C25.9423 52.16 27.3479 52.7395 29 52.7395C30.6521 52.7395 32.0511 52.16 33.2036 50.9942C34.3694 49.8283 34.9489 48.4294 34.9489 46.7906C34.9489 45.1518 34.3627 43.7329 33.2036 42.5671C32.0511 41.4013 30.6454 40.8217 29 40.8217Z" fill="white"/>
<path d="M42.4972 34.3837C42.0789 34.3837 41.7266 34.2088 41.4349 33.8522C41.1431 33.4956 41 33.0651 41 32.5538C41 32.0425 41.1431 31.6254 41.4349 31.2688C41.7266 30.9122 42.0789 30.7373 42.4972 30.7373C42.9156 30.7373 43.2569 30.9122 43.5486 31.2688C43.8459 31.6254 44 32.0492 44 32.5538C44 33.0583 43.8514 33.4956 43.5486 33.8522C43.2569 34.2088 42.9101 34.3837 42.4972 34.3837ZM42.5138 37.5524C42.8605 37.5524 43.1468 37.7004 43.3835 38.0032C43.6312 38.3059 43.7523 38.6625 43.7523 39.0863V54.2236C43.7523 54.6474 43.6312 54.9973 43.3835 55.2866C43.1468 55.5893 42.855 55.7373 42.5138 55.7373H42.4862C42.1394 55.7373 41.8477 55.5893 41.6 55.2866C41.3523 54.9973 41.2312 54.6407 41.2312 54.2236V39.0796C41.2312 38.6558 41.3523 38.2992 41.6 37.9965C41.8477 37.6937 42.1394 37.5457 42.4862 37.5457H42.5138V37.5524Z" fill="white"/>
<path d="M51.0548 54.2384C51.0548 54.6581 50.9078 55.0045 50.607 55.291C50.3062 55.5907 49.9586 55.7373 49.5508 55.7373H49.504C49.0963 55.7373 48.742 55.5907 48.4479 55.291C48.1471 55.0045 48 54.6514 48 54.2384V45.2184C48 43.1533 48.7353 41.3879 50.1992 39.929C51.6631 38.4701 53.4345 37.7373 55.5067 37.7373C57.5789 37.7373 59.3369 38.4701 60.8008 39.929C62.2647 41.3879 63 43.1533 63 45.2184V54.2384C63 54.6581 62.8529 55.0045 62.5521 55.291C62.2647 55.5907 61.9104 55.7373 61.496 55.7373H61.4626C61.0414 55.7373 60.6872 55.5907 60.3864 55.291C60.0856 55.0045 59.9385 54.6514 59.9385 54.2384V45.2184C59.9385 43.9993 59.5107 42.9534 58.6484 42.0874C57.7794 41.2214 56.7299 40.7817 55.5067 40.7817C54.2834 40.7817 53.2206 41.2147 52.3449 42.0874C51.4826 42.9534 51.0548 43.9993 51.0548 45.2184V54.2384Z" fill="white"/>
<path d="M74 59.6526C75.5055 59.6526 76.8645 59.068 78.0703 57.8919C79.3227 56.6822 79.9489 55.2709 79.9489 53.6513V53.6177C78.2435 55.1365 76.2583 55.8959 74 55.8959C71.5152 55.8959 69.3967 55.0088 67.638 53.2346C65.8793 51.4604 65 49.3233 65 46.8166C65 44.3099 65.8793 42.1728 67.638 40.3986C69.3967 38.6244 71.5152 37.7373 74 37.7373C76.4848 37.7373 78.5899 38.6177 80.3486 40.3852C82.1073 42.1459 82.9933 44.283 83 46.7897V53.658C83 56.111 82.054 58.2481 80.1621 60.076C78.3368 61.8502 76.285 62.7373 73.9933 62.7373C70.4626 62.7373 67.8246 61.3596 66.0792 58.611C65.8127 58.201 65.7594 57.7642 65.9127 57.2938C66.0659 56.83 66.3723 56.5142 66.8386 56.3462L66.8853 56.3327C67.6247 56.0774 68.211 56.279 68.6506 56.9309C69.8364 58.7521 71.6151 59.6593 73.9933 59.6593L74 59.6526ZM79.9556 46.7091C79.9356 45.0693 79.3427 43.6782 78.1769 42.5357C77.0244 41.3798 75.6321 40.8085 74.0067 40.8085C72.3812 40.8085 70.9489 41.3999 69.7831 42.5693C68.6306 43.7454 68.0511 45.1567 68.0511 46.8099C68.0511 48.4631 68.6306 49.8946 69.7831 51.0706C70.9489 52.2333 72.3546 52.8179 74.0067 52.8179C75.6588 52.8179 77.0577 52.2333 78.2102 51.0706C79.3627 49.908 79.9556 48.4766 79.9556 46.8099V46.7091Z" fill="white"/>
<path d="M87.523 30.7373C87.9234 30.7373 88.2713 30.8785 88.5602 31.1678C88.8556 31.4704 89 31.8269 89 32.2506V54.224C89 54.6477 88.8556 54.9975 88.5602 55.2867C88.2648 55.5893 87.9234 55.7373 87.523 55.7373H87.477C87.0766 55.7373 86.7287 55.5893 86.4398 55.2867C86.1444 54.9975 86 54.641 86 54.224V32.2506C86 31.8269 86.1444 31.4704 86.4398 31.1678C86.7352 30.8785 87.0766 30.7373 87.477 30.7373H87.523Z" fill="white"/>
<path d="M108.361 40.3754C110.12 42.134 111 44.2525 111 46.7373V54.2384C111 54.6581 110.853 55.0045 110.553 55.291C110.254 55.5907 109.907 55.7373 109.501 55.7373H109.454C109.047 55.7373 108.694 55.5907 108.401 55.291C108.101 55.0045 107.954 54.6514 107.954 54.2384V53.479C106.248 54.9845 104.262 55.7373 102.003 55.7373C99.5176 55.7373 97.3984 54.858 95.639 53.0993C93.8797 51.3406 93 49.2221 93 46.7373C93 44.2525 93.8797 42.134 95.639 40.3754C97.3984 38.6167 99.5176 37.7373 102.003 37.7373C104.489 37.7373 106.608 38.6167 108.368 40.3754H108.361ZM97.7716 42.5338C96.6187 43.6996 96.0389 45.0985 96.0389 46.7373C96.0389 48.3761 96.6187 49.795 97.7716 50.9608C98.9378 52.1133 100.344 52.6929 101.997 52.6929C103.649 52.6929 105.049 52.1133 106.202 50.9608C107.355 49.8084 107.948 48.3894 107.948 46.7373C107.948 45.0852 107.361 43.6996 106.202 42.5338C105.049 41.3679 103.643 40.7884 101.997 40.7884C100.351 40.7884 98.9378 41.3746 97.7716 42.5338Z" fill="white"/>
<path d="M115.552 30.7373C115.959 30.7373 116.312 30.8785 116.605 31.1678C116.905 31.4704 117.051 31.8269 117.051 32.2506V39.8441C118.743 38.3241 120.728 37.564 123 37.564C125.485 37.564 127.603 38.4519 129.362 40.2275C131.121 42.0031 132 44.1419 132 46.6507C132 49.1594 131.121 51.2982 129.362 53.0739C127.603 54.8495 125.485 55.7373 123 55.7373C120.515 55.7373 118.397 54.8562 116.651 53.0873C114.893 51.3251 114.007 49.193 114 46.6978V32.2506C114 31.8269 114.147 31.4704 114.446 31.1678C114.746 30.8785 115.093 30.7373 115.499 30.7373H115.546H115.552ZM123 40.6781C121.348 40.6781 119.942 41.2633 118.776 42.4403C117.624 43.6173 117.044 45.0365 117.044 46.7045C117.044 48.3725 117.624 49.7715 118.776 50.9485C119.942 52.1255 121.348 52.7107 123 52.7107C124.652 52.7107 126.051 52.1255 127.204 50.9485C128.369 49.7715 128.949 48.359 128.949 46.7045C128.949 45.0499 128.363 43.6173 127.204 42.4403C126.051 41.2633 124.645 40.6781 123 40.6781Z" fill="white"/>
</g>
</g>
<defs>
<clipPath id="clip0_188_3879">
<rect width="132" height="32" fill="white" transform="translate(0 30.7373)"/>
</clipPath>
</defs>
</svg>
