<svg width="200" height="101" viewBox="0 0 200 101" fill="none" xmlns="http://www.w3.org/2000/svg">
<g opacity="0.6">
<g clip-path="url(#clip0_188_3889)">
<path d="M37.8433 33.0457C37.8005 33.011 37.7577 32.9751 37.7136 32.9417C37.6021 32.857 37.488 32.7775 37.3713 32.7018C37.3311 32.6748 37.2909 32.6479 37.2494 32.6235C37.1327 32.5504 37.0121 32.4836 36.8915 32.4195C36.8422 32.3938 36.7929 32.3682 36.7436 32.3438C36.6321 32.2886 36.5193 32.2386 36.4039 32.1911C36.3351 32.1628 36.2664 32.1346 36.1964 32.109C36.1004 32.073 36.0031 32.0409 35.9059 32.0102C35.8125 31.9806 35.7178 31.9524 35.6219 31.928C35.5454 31.9088 35.4702 31.8908 35.3937 31.8741C35.2756 31.8485 35.1576 31.8254 35.0383 31.8074C34.98 31.7984 34.9203 31.7907 34.862 31.783C34.7297 31.7664 34.5961 31.7535 34.4612 31.7458C34.4094 31.7433 34.3575 31.742 34.3043 31.7407C34.1682 31.7368 34.032 31.7356 33.8958 31.7407C33.8362 31.7433 33.7778 31.7484 33.7182 31.7522C33.5911 31.7612 33.4653 31.7715 33.3382 31.7882C33.2604 31.7984 33.1839 31.8125 33.1074 31.8267C33.0283 31.8408 32.9479 31.8485 32.8688 31.8664C32.8299 31.8754 32.7936 31.8857 32.7547 31.8947C32.7222 31.9024 32.6898 31.9113 32.6574 31.919C32.5122 31.9563 32.3682 31.9986 32.2281 32.0461C32.1996 32.0551 32.1711 32.064 32.1426 32.0743C31.9805 32.1321 31.8235 32.1949 31.6692 32.2655C31.6342 32.2809 31.5992 32.2989 31.5655 32.3155C31.4397 32.3759 31.3165 32.44 31.1972 32.508C31.1596 32.5298 31.1207 32.5504 31.0831 32.5735C30.9417 32.6581 30.8043 32.748 30.672 32.8442C30.6318 32.8737 30.5929 32.9045 30.5527 32.934C30.4502 33.0123 30.3517 33.0919 30.2544 33.1765C30.2246 33.2022 30.1935 33.2227 30.1649 33.2497C30.152 33.2612 30.1403 33.2753 30.1273 33.2869C30.0171 33.3883 29.9121 33.4935 29.8109 33.6026C29.7551 33.6616 29.7033 33.7219 29.6514 33.7835C29.5982 33.8463 29.5464 33.9092 29.4958 33.9747C29.4076 34.0876 29.3233 34.2018 29.2442 34.3198C29.204 34.3789 29.1638 34.4392 29.1249 34.4995C29.0769 34.5765 29.0315 34.6547 28.9874 34.733C28.9472 34.8049 28.9096 34.878 28.872 34.9524C28.8253 35.0448 28.7812 35.1372 28.7397 35.2309C28.6918 35.3399 28.6464 35.4503 28.6049 35.5619C28.5867 35.612 28.5686 35.662 28.5517 35.7133C28.5374 35.7531 28.5219 35.7929 28.5089 35.834C28.5024 35.8558 28.4972 35.8776 28.4908 35.8981H28.4869L26.4262 42.4589L14.9599 45.0239L10.2473 39.9773H10.246C10.2369 39.9696 10.2291 39.9593 10.2214 39.949C10.2071 39.9336 10.1928 39.9221 10.1786 39.9067C10.0813 39.804 9.97885 39.7052 9.87511 39.609C9.81675 39.5551 9.7571 39.5025 9.69615 39.4512C9.63001 39.396 9.56258 39.3434 9.49515 39.2908C9.38103 39.2022 9.26431 39.1188 9.1463 39.0406C9.09054 39.0034 9.03478 38.9674 8.97902 38.9315C8.89862 38.8827 8.81821 38.834 8.73651 38.7891C8.66389 38.7493 8.58998 38.7121 8.51606 38.6749C8.40972 38.6223 8.30338 38.5722 8.19445 38.526C8.09978 38.485 8.00382 38.4465 7.90656 38.4118C7.8508 38.3913 7.79503 38.3708 7.73797 38.3528C7.41118 38.245 7.07401 38.1655 6.73036 38.1141C6.71868 38.1128 6.70572 38.1103 6.69405 38.109C6.33224 38.059 5.96265 38.041 5.59046 38.059C5.58657 38.059 5.58139 38.059 5.5775 38.059C5.39594 38.0679 5.21439 38.0846 5.03154 38.1116C5.02635 38.1116 5.02246 38.1116 5.01728 38.1128C4.85907 38.1359 4.70086 38.1642 4.54135 38.2001C4.52579 38.2039 4.51023 38.2091 4.49466 38.2129C4.39481 38.236 4.29755 38.2681 4.20029 38.2963C4.1134 38.322 4.02392 38.3438 3.93963 38.3733C3.83329 38.4105 3.72955 38.4554 3.62451 38.4978C3.55059 38.5286 3.47408 38.5543 3.40275 38.5876C3.29901 38.6351 3.19915 38.6915 3.098 38.7454C3.02927 38.7827 2.95665 38.8147 2.89052 38.8545C2.79714 38.9097 2.70767 38.9726 2.61559 39.0329C2.54556 39.0791 2.47424 39.1214 2.40681 39.1702C2.31603 39.2356 2.23044 39.3087 2.14355 39.3806C2.08261 39.4306 2.01776 39.4781 1.95941 39.5307C1.94514 39.5436 1.92958 39.5538 1.91661 39.5654C1.83362 39.6411 1.7584 39.7219 1.6806 39.8015C1.6391 39.8438 1.59501 39.8836 1.55481 39.9272C1.45365 40.035 1.36158 40.1479 1.26951 40.2621C1.24487 40.2929 1.21764 40.3237 1.193 40.3545C1.09963 40.4751 1.01533 40.6009 0.933635 40.7266C0.914183 40.7574 0.892138 40.7869 0.872685 40.819C0.796174 40.9422 0.727443 41.0667 0.661306 41.1937C0.63926 41.236 0.614621 41.2784 0.593872 41.322C0.539406 41.4349 0.490128 41.5479 0.442146 41.6633C0.414913 41.7288 0.386383 41.7942 0.361744 41.8609C0.328027 41.9533 0.298201 42.047 0.268374 42.1407C0.238548 42.2343 0.210018 42.328 0.184082 42.4243C0.165926 42.4935 0.151662 42.5628 0.137397 42.6321C0.110164 42.754 0.0855245 42.8746 0.0660724 42.9978C0.0582916 43.0453 0.0544012 43.0928 0.0479172 43.1415C0.0297619 43.2827 0.0142002 43.4251 0.00771618 43.5688C0.00641937 43.606 0.00641937 43.642 0.00512257 43.6779C-6.46556e-05 43.828 -0.00136146 43.9782 0.00512257 44.1308C0.00641937 44.1706 0.0116066 44.2104 0.0142002 44.2502C0.0245747 44.3952 0.0362459 44.5402 0.0569948 44.6865C0.0647756 44.7455 0.0790405 44.8032 0.0894149 44.861C0.108867 44.97 0.123132 45.0791 0.149068 45.1882C0.152958 45.2061 0.159442 45.2228 0.16463 45.2408C0.182785 45.3178 0.208721 45.3922 0.230767 45.4679C0.26189 45.5757 0.29042 45.6848 0.328027 45.7887C0.35526 45.867 0.390274 45.9414 0.421397 46.0184C0.461598 46.1197 0.499205 46.2211 0.54589 46.3199C0.579607 46.3905 0.619808 46.4585 0.656119 46.5278C0.707991 46.6279 0.758567 46.7305 0.815626 46.8268C0.855827 46.8948 0.903809 46.9602 0.9479 47.0269C1.00885 47.1206 1.0685 47.2156 1.13464 47.3054C1.18781 47.3772 1.24876 47.4452 1.30582 47.5158C1.36936 47.5941 1.43161 47.6749 1.50034 47.7494C1.51071 47.7609 1.51979 47.775 1.53146 47.7866C1.64169 47.9059 1.75581 48.0175 1.87252 48.1253C1.87641 48.1279 1.87901 48.1317 1.8829 48.1343C2.01776 48.2588 2.15912 48.3743 2.30306 48.4833C2.30566 48.4859 2.30955 48.4885 2.31214 48.491C2.60911 48.7156 2.92423 48.908 3.25103 49.0697C3.2614 49.0749 3.27307 49.08 3.28345 49.0851C3.59598 49.2365 3.92018 49.3597 4.25086 49.4534C4.30792 49.4701 4.36498 49.4842 4.42334 49.4996C4.52449 49.5252 4.62564 49.5471 4.72679 49.5663C4.84221 49.5894 4.95892 49.6086 5.07693 49.624C5.15863 49.6356 5.24162 49.6459 5.32462 49.6536C5.41799 49.6625 5.51136 49.6677 5.60603 49.6728C5.67346 49.6754 5.7396 49.6767 5.80703 49.6779C5.94968 49.6792 6.09362 49.6767 6.23757 49.6677C6.32316 49.6625 6.40875 49.6574 6.49563 49.6484C6.57474 49.6407 6.65384 49.6305 6.73425 49.6189C6.8756 49.5984 7.01565 49.574 7.15441 49.5445C7.17386 49.5406 7.19461 49.5381 7.21406 49.5342C7.22703 49.5317 7.2387 49.5278 7.25167 49.524L14.0249 48.0111L22.0028 56.5544L19.9422 63.1164H19.9474C19.9383 63.1459 19.9267 63.1729 19.9189 63.1998C19.9072 63.2396 19.8968 63.2794 19.8852 63.3192C19.8735 63.359 19.8618 63.3987 19.8514 63.4398C19.8086 63.5989 19.771 63.758 19.7425 63.921C19.7399 63.9364 19.7386 63.9531 19.736 63.9685C19.7101 64.1186 19.6932 64.2713 19.679 64.424C19.6751 64.4676 19.6712 64.5099 19.6686 64.5536C19.6582 64.7178 19.653 64.8821 19.6569 65.0489C19.6569 65.0784 19.6608 65.1079 19.6621 65.1387C19.6673 65.2837 19.679 65.4287 19.6958 65.575C19.701 65.6186 19.7049 65.6622 19.7114 65.7058C19.7321 65.8585 19.7581 66.0112 19.7918 66.1639C19.7944 66.1755 19.7983 66.187 19.8009 66.1986C19.8035 66.2127 19.8048 66.2268 19.8086 66.2409C19.8307 66.332 19.8605 66.418 19.8852 66.5065C19.9111 66.5951 19.9331 66.6862 19.963 66.7734C19.9954 66.871 20.0356 66.9633 20.0732 67.0583C20.1082 67.1455 20.1393 67.2341 20.1782 67.3175C20.2197 67.4086 20.269 67.4958 20.3144 67.5844C20.3572 67.6665 20.3974 67.7499 20.4441 67.8295C20.4947 67.9154 20.5517 67.9976 20.6062 68.081C20.6555 68.1567 20.7034 68.2337 20.7566 68.3068C20.815 68.3876 20.8798 68.4633 20.942 68.5403C20.9978 68.6096 21.0523 68.6815 21.1119 68.7482C21.1781 68.8226 21.2481 68.8906 21.3181 68.9612C21.3804 69.0254 21.4413 69.0908 21.5075 69.1524C21.5788 69.2191 21.6553 69.2794 21.7305 69.3436C21.7992 69.4013 21.8667 69.4616 21.938 69.5168C22.0145 69.5758 22.0949 69.6285 22.174 69.6823C22.2492 69.735 22.3231 69.7888 22.401 69.8363C22.4814 69.8864 22.5657 69.9313 22.6486 69.9775C22.729 70.0224 22.8095 70.0699 22.8924 70.1122C22.9767 70.1545 23.0649 70.1905 23.1505 70.229C23.2361 70.2675 23.3204 70.3072 23.4086 70.3406C23.4968 70.374 23.5875 70.4022 23.677 70.4317C23.7665 70.4612 23.8547 70.4933 23.9467 70.519C24.0388 70.5446 24.1335 70.5639 24.2269 70.5844C24.3189 70.6049 24.4097 70.6293 24.5018 70.646C24.5977 70.6627 24.6963 70.6729 24.7936 70.6858C24.8856 70.6973 24.9777 70.7127 25.0711 70.7191C25.1722 70.7268 25.2747 70.7268 25.3758 70.7307C25.4679 70.7333 25.5587 70.7384 25.6507 70.7371C25.7545 70.7345 25.8595 70.7243 25.9646 70.7179C26.0567 70.7114 26.1474 70.7076 26.2395 70.6973C26.3445 70.6845 26.4496 70.664 26.5546 70.646C26.635 70.6319 26.7154 70.6242 26.7971 70.6062C26.8101 70.6037 26.8205 70.5998 26.8334 70.596C26.8464 70.5934 26.8607 70.5921 26.8736 70.5883C26.9631 70.5677 27.0474 70.5382 27.1343 70.5138C27.2277 70.4882 27.3223 70.4651 27.4131 70.4343C27.5104 70.4022 27.6024 70.3624 27.6971 70.3265C27.7853 70.2918 27.8761 70.2598 27.9617 70.2213C28.055 70.1802 28.1432 70.1315 28.2327 70.0853C28.3144 70.0429 28.3987 70.0044 28.4778 69.9582C28.5673 69.9069 28.6516 69.8504 28.7371 69.7953C28.8124 69.7478 28.8889 69.7016 28.9602 69.6503C29.0445 69.5912 29.1223 69.5258 29.2027 69.4616C29.2701 69.4078 29.3402 69.3564 29.4063 69.3C29.4841 69.232 29.5554 69.1601 29.6294 69.0895C29.6916 69.0305 29.7551 68.9728 29.8135 68.9112C29.8835 68.838 29.9484 68.7585 30.0132 68.6815C30.069 68.616 30.1273 68.5519 30.1805 68.4852C30.2414 68.4069 30.2972 68.3248 30.3543 68.2426C30.4048 68.1708 30.458 68.1002 30.5047 68.0271C30.5566 67.945 30.6033 67.8603 30.6512 67.7756C30.6953 67.6973 30.7433 67.6203 30.7835 67.5408C30.8263 67.4561 30.8639 67.3675 30.9028 67.2816C30.9404 67.1982 30.9806 67.1148 31.0143 67.0301C31.0494 66.9428 31.0766 66.853 31.1064 66.7632C31.1362 66.6746 31.1687 66.5874 31.1946 66.4976C31.2205 66.4077 31.2387 66.3153 31.2607 66.2242C31.2828 66.1319 31.3061 66.0407 31.323 65.9471C31.3398 65.8547 31.3489 65.761 31.3619 65.6686C31.3749 65.5737 31.3891 65.4787 31.3969 65.3825C31.4047 65.2888 31.4047 65.1939 31.4073 65.1002C31.4099 65.0027 31.4163 64.9064 31.4138 64.8076C31.4125 64.714 31.4021 64.619 31.3956 64.5241C31.3891 64.424 31.3839 64.3239 31.3723 64.2238C31.3606 64.1327 31.3424 64.0403 31.3256 63.9479C31.31 63.8568 31.2996 63.767 31.2802 63.6772C31.2776 63.6631 31.2724 63.6502 31.2685 63.6361C31.2659 63.6246 31.2646 63.613 31.262 63.6015C31.253 63.5655 31.2387 63.5322 31.2296 63.4963C31.1829 63.3115 31.1272 63.1306 31.0636 62.9548C31.039 62.888 31.0143 62.8239 30.9871 62.7597C30.9223 62.6006 30.8509 62.4453 30.7731 62.2939C30.7446 62.2388 30.7187 62.1836 30.6888 62.1297C30.5786 61.9308 30.4606 61.7383 30.3283 61.5561C30.3205 61.5459 30.3128 61.5369 30.305 61.5279C30.1805 61.3572 30.0456 61.1956 29.9043 61.0403C29.8874 61.0223 29.8744 61.0018 29.8576 60.9838C29.8381 60.962 29.8161 60.9428 29.7953 60.921L29.7992 60.9184L25.0853 55.8717L28.5738 44.7634L35.3483 43.248V43.2455C35.3599 43.2429 35.3729 43.2416 35.3859 43.2391C35.3988 43.2365 35.4118 43.2314 35.4248 43.2288C35.4274 43.2288 35.4313 43.2288 35.4339 43.2275C35.4455 43.2249 35.4572 43.2198 35.4702 43.2172C35.6777 43.1685 35.88 43.1095 36.0784 43.0402C36.1393 43.0184 36.2003 42.994 36.2612 42.9709C36.4181 42.9106 36.5699 42.8451 36.719 42.772C36.7825 42.7412 36.8461 42.7104 36.9083 42.677C37.0769 42.5872 37.2403 42.4897 37.3972 42.3858C37.4309 42.3627 37.4672 42.3447 37.4997 42.3203C37.6851 42.1907 37.8615 42.0509 38.0288 41.902C38.0482 41.8853 38.0703 41.8712 38.0897 41.8545C38.1507 41.7994 38.2038 41.739 38.2622 41.6826C38.3167 41.6287 38.3711 41.5774 38.423 41.5209C38.5112 41.4272 38.5942 41.3297 38.6759 41.2309C38.7122 41.1873 38.7485 41.1437 38.7835 41.0988C38.8691 40.9897 38.9482 40.8768 39.0247 40.7638C39.0519 40.7228 39.0792 40.6817 39.1064 40.6407C39.179 40.5252 39.2465 40.4084 39.3113 40.2891C39.3385 40.2403 39.3645 40.1903 39.3891 40.1402C39.4436 40.0299 39.4954 39.9182 39.5421 39.8066C39.5707 39.7386 39.5992 39.6706 39.6251 39.6013C39.6614 39.5064 39.6939 39.4101 39.725 39.3139C39.7548 39.2215 39.7833 39.1278 39.808 39.0329C39.8274 38.9572 39.8456 38.8827 39.8624 38.807C39.8884 38.6903 39.9117 38.5748 39.9299 38.4554C39.939 38.3977 39.9467 38.3387 39.9545 38.2809C39.9714 38.1488 39.9843 38.0179 39.9921 37.8844C39.9947 37.8331 39.996 37.7818 39.9973 37.7305C40.0012 37.5957 40.0025 37.461 39.9973 37.3237C39.9947 37.266 39.9908 37.2082 39.9856 37.1518C39.9766 37.026 39.9662 36.899 39.948 36.7719C39.9377 36.6975 39.9234 36.6244 39.9104 36.55C39.8962 36.4691 39.8871 36.3896 39.8702 36.3087C39.8637 36.2779 39.8521 36.2497 39.8456 36.2189C39.8248 36.1317 39.7989 36.0457 39.7743 35.9597C39.7457 35.8622 39.7198 35.7647 39.6874 35.6697C39.6562 35.5812 39.6199 35.4939 39.5849 35.4067C39.5486 35.3168 39.5149 35.2257 39.4747 35.1385C39.4345 35.0512 39.3878 34.9665 39.3437 34.8819C39.2996 34.7972 39.2568 34.7125 39.2101 34.6316C39.1609 34.5482 39.1051 34.4661 39.0506 34.3853C38.9988 34.307 38.9495 34.2274 38.8937 34.153C38.8341 34.0709 38.7679 33.9926 38.7031 33.9131C38.646 33.8438 38.5916 33.7732 38.5319 33.7078C38.5112 33.6847 38.493 33.659 38.4723 33.6359C38.4152 33.5743 38.3543 33.5204 38.2946 33.4627C38.2414 33.4101 38.1909 33.3575 38.1364 33.3074C38.0404 33.2189 37.9406 33.1355 37.8407 33.0546L37.8433 33.0457ZM35.238 34.6432C35.273 34.656 35.3081 34.6701 35.3431 34.6843C35.4066 34.7099 35.4689 34.7381 35.5298 34.7677C35.5545 34.7805 35.5791 34.7933 35.6037 34.8062C35.6699 34.8408 35.736 34.878 35.7995 34.9178C35.8203 34.9306 35.841 34.9447 35.8605 34.9576C35.924 34.9986 35.9863 35.0423 36.0459 35.0884C36.0693 35.1064 36.0913 35.1244 36.1134 35.1423C36.1678 35.186 36.221 35.2309 36.2729 35.2784C36.3014 35.3053 36.3299 35.3335 36.3572 35.3618C36.4 35.4041 36.4428 35.4477 36.4843 35.4926C36.5167 35.5286 36.5465 35.5658 36.5763 35.603C36.6101 35.6453 36.6451 35.6864 36.6775 35.73C36.7073 35.7711 36.7345 35.8134 36.7618 35.8545C36.7903 35.8981 36.8201 35.9405 36.8461 35.9854C36.872 36.029 36.8941 36.0752 36.9174 36.1201C36.9407 36.165 36.9654 36.2099 36.9874 36.2574C37.0095 36.3049 37.0276 36.3524 37.0458 36.3998C37.0652 36.446 37.0847 36.4935 37.1002 36.541C37.1171 36.591 37.1314 36.6436 37.1469 36.695C37.1599 36.7412 37.1742 36.7873 37.1858 36.8348C37.2001 36.8938 37.2105 36.9516 37.2208 37.0106C37.2273 37.0504 37.2351 37.0889 37.2403 37.1287C37.2494 37.198 37.2559 37.2672 37.2611 37.3353C37.2636 37.3635 37.2649 37.393 37.2662 37.4212C37.2688 37.4956 37.2688 37.5714 37.2662 37.6458C37.2662 37.6702 37.2649 37.6945 37.2636 37.7189C37.2598 37.7933 37.252 37.8665 37.2429 37.9396C37.239 37.9678 37.2364 37.9948 37.2312 38.023C37.2208 38.0897 37.2079 38.1552 37.1923 38.2206C37.1845 38.2578 37.1755 38.2938 37.1664 38.3297C37.1521 38.3836 37.1353 38.4375 37.1184 38.4914C37.1028 38.5389 37.0873 38.5863 37.0691 38.6338C37.0536 38.6749 37.0367 38.7146 37.0198 38.7544C36.9952 38.8109 36.9706 38.8673 36.942 38.9225C36.9265 38.952 36.9109 38.9815 36.8954 39.0111C36.8629 39.0714 36.8279 39.1317 36.7916 39.1907C36.776 39.2164 36.7592 39.2407 36.7423 39.2651C36.7034 39.3229 36.6619 39.3806 36.6191 39.4371C36.5984 39.464 36.5763 39.4897 36.5556 39.5153C36.5141 39.5654 36.4713 39.6154 36.4272 39.6629C36.3974 39.695 36.365 39.7258 36.3325 39.7566C36.2923 39.7963 36.2521 39.8348 36.2093 39.8721C36.1704 39.9067 36.1289 39.9375 36.0887 39.9696C36.0485 40.0017 36.0083 40.0337 35.9668 40.0645C35.924 40.0953 35.88 40.1223 35.8372 40.1505C35.7944 40.1787 35.7516 40.207 35.7075 40.2326C35.6634 40.2583 35.618 40.2801 35.5726 40.3032C35.5259 40.3276 35.4805 40.352 35.4326 40.3738C35.3872 40.3943 35.3405 40.411 35.2938 40.4302C35.2445 40.4495 35.1952 40.47 35.1434 40.488C35.0954 40.5046 35.0461 40.5175 34.9981 40.5316C34.9475 40.5457 34.8983 40.5611 34.8464 40.5727C34.7906 40.5855 34.7349 40.5958 34.6791 40.6047C34.635 40.6124 34.5922 40.6201 34.5481 40.6265C34.4833 40.6355 34.4172 40.6407 34.351 40.6458C34.3173 40.6484 34.2836 40.6509 34.2512 40.6522C34.1798 40.6548 34.1085 40.6548 34.0372 40.6522C34.0074 40.6522 33.9788 40.6509 33.949 40.6496C33.879 40.6458 33.8077 40.6381 33.7376 40.6304C33.7052 40.6265 33.6728 40.6227 33.6417 40.6176C33.5781 40.6073 33.5159 40.5958 33.4536 40.5816C33.4134 40.5727 33.3719 40.5637 33.3317 40.5534C33.2812 40.5406 33.2293 40.5252 33.18 40.5098C33.1281 40.4931 33.0776 40.4764 33.027 40.4572C32.9894 40.4431 32.9518 40.4277 32.9142 40.4123C32.8545 40.3866 32.7936 40.3609 32.7352 40.3314C32.708 40.3173 32.6807 40.3032 32.6522 40.2891C32.5887 40.2557 32.5264 40.2198 32.4642 40.1826C32.4408 40.1685 32.4175 40.1531 32.3954 40.1377C32.3345 40.0979 32.2748 40.0568 32.2178 40.0119C32.1931 39.9927 32.1685 39.9721 32.1439 39.9529C32.092 39.9105 32.0401 39.8669 31.9908 39.822C31.9597 39.7938 31.9299 39.763 31.9001 39.7335C31.8586 39.6924 31.8184 39.6513 31.7795 39.6077C31.7457 39.5692 31.7146 39.5307 31.6822 39.491C31.6498 39.4512 31.6161 39.4114 31.5862 39.3691C31.5551 39.3267 31.5266 39.2818 31.498 39.2382C31.4708 39.1958 31.4423 39.1561 31.4163 39.1124C31.3891 39.0675 31.3671 39.02 31.3424 38.9738C31.3191 38.9302 31.2957 38.8866 31.2737 38.8404C31.2517 38.7929 31.2335 38.7442 31.214 38.6967C31.1959 38.6505 31.1764 38.6043 31.1596 38.5568C31.1427 38.5068 31.1285 38.4554 31.1129 38.4041C31.0999 38.3579 31.0857 38.3105 31.074 38.263C31.0597 38.2052 31.0494 38.1462 31.039 38.0885C31.0325 38.0487 31.0247 38.0089 31.0195 37.9691C31.0104 37.9011 31.004 37.8318 30.9988 37.7625C30.9962 37.733 30.9949 37.7048 30.9936 37.6766C30.991 37.6021 30.991 37.5264 30.9936 37.452C30.9936 37.4276 30.9949 37.4033 30.9962 37.3789C31.0001 37.3045 31.0079 37.2313 31.0169 37.1569C31.0208 37.1299 31.0234 37.1017 31.0286 37.0748C31.039 37.008 31.0519 36.9413 31.0675 36.8759C31.0753 36.84 31.0844 36.804 31.0934 36.7681C31.1077 36.7142 31.1246 36.6603 31.1414 36.6064C31.157 36.5589 31.1725 36.5115 31.1907 36.4653C31.2063 36.4242 31.2231 36.3844 31.24 36.3447C31.2646 36.2882 31.2893 36.2305 31.3178 36.1753C31.3321 36.1458 31.3489 36.1163 31.3645 36.0867C31.3982 36.0251 31.4319 35.9648 31.4695 35.9058C31.4851 35.8814 31.5019 35.8571 31.5175 35.8327C31.5577 35.7737 31.5979 35.7159 31.642 35.6595C31.6614 35.6338 31.6822 35.6094 31.7029 35.585C31.7457 35.5337 31.7898 35.4824 31.8352 35.4336C31.8637 35.4041 31.8936 35.3746 31.9234 35.3464C31.9662 35.3053 32.0077 35.263 32.0531 35.2245C32.0894 35.1924 32.127 35.1629 32.1646 35.1334C32.2074 35.0987 32.2502 35.0641 32.2956 35.032C32.3345 35.0038 32.3747 34.9794 32.4149 34.9537C32.4616 34.9229 32.507 34.8921 32.5562 34.8652C32.5964 34.8421 32.6379 34.8215 32.6794 34.801C32.73 34.7754 32.7793 34.7484 32.8325 34.7253C32.874 34.7061 32.9168 34.6907 32.9595 34.674C33.0127 34.6535 33.0659 34.6316 33.1204 34.6124C33.1657 34.597 33.2124 34.5854 33.2578 34.5713C33.311 34.5559 33.3629 34.5405 33.4173 34.5277C33.4705 34.5149 33.525 34.5059 33.5794 34.4969C33.6248 34.4892 33.6702 34.4802 33.7156 34.4738C33.7791 34.4648 33.8427 34.4597 33.9075 34.4558C33.9425 34.4533 33.9788 34.4507 34.0138 34.4494C34.0826 34.4469 34.1526 34.4469 34.2213 34.4494C34.2525 34.4494 34.2836 34.4507 34.3147 34.4533C34.3834 34.4571 34.4509 34.4635 34.5196 34.4725C34.5546 34.4764 34.5883 34.4815 34.6233 34.4866C34.6843 34.4956 34.744 34.5085 34.8049 34.5213C34.849 34.5303 34.8918 34.5405 34.9346 34.5521C34.9826 34.5649 35.0305 34.579 35.0785 34.5944C35.133 34.6111 35.1875 34.6291 35.2406 34.6496L35.238 34.6432ZM8.9855 43.4354C8.99588 43.506 9.00106 43.5778 9.00625 43.6484C9.00884 43.6753 9.01144 43.7036 9.01273 43.7305C9.01662 43.8075 9.01533 43.8832 9.01273 43.9602C9.01273 43.9833 9.01273 44.0064 9.01144 44.0295C9.00755 44.1026 8.99977 44.177 8.99069 44.2502C8.9868 44.2784 8.9842 44.3066 8.98031 44.3336C8.96994 44.3977 8.95697 44.4606 8.94271 44.5248C8.93493 44.5633 8.92714 44.6018 8.91677 44.639C8.9038 44.689 8.88824 44.7391 8.87268 44.7891C8.85712 44.8392 8.84156 44.8892 8.8234 44.938C8.81043 44.9739 8.79487 45.0098 8.77931 45.047C8.75467 45.1073 8.72873 45.1664 8.7002 45.2254C8.68724 45.251 8.67427 45.2754 8.6613 45.2998C8.62629 45.3652 8.59127 45.4307 8.55237 45.4936C8.5407 45.5128 8.52643 45.5321 8.51346 45.5513C8.47197 45.6155 8.42788 45.6796 8.38119 45.7399C8.36433 45.7617 8.34618 45.7823 8.32932 45.8041C8.28393 45.8605 8.23854 45.9157 8.18926 45.9683C8.16073 45.9991 8.12961 46.0274 8.09978 46.0582C8.05829 46.0992 8.01679 46.1416 7.97399 46.1813C7.9312 46.2185 7.88711 46.2532 7.84302 46.2878C7.80671 46.3173 7.77169 46.3481 7.73279 46.3751C7.6861 46.4097 7.63682 46.4392 7.58754 46.47C7.54994 46.4944 7.51363 46.5214 7.47343 46.5445C7.42804 46.5714 7.38006 46.5932 7.33337 46.6176C7.28928 46.6407 7.24519 46.6651 7.1998 46.6869C7.15441 46.7074 7.10902 46.7241 7.06234 46.7421C7.01306 46.7626 6.96378 46.7844 6.91191 46.8011C6.86133 46.8178 6.81076 46.8306 6.76018 46.846C6.7122 46.8601 6.66422 46.8755 6.61494 46.8871C6.5514 46.9025 6.48785 46.9127 6.42431 46.9243C6.388 46.9307 6.35169 46.9384 6.31668 46.9435C6.24016 46.9538 6.16365 46.9602 6.08714 46.9653C6.0638 46.9666 6.04046 46.9692 6.01841 46.9705C5.93671 46.9743 5.85501 46.973 5.77461 46.9705C5.75516 46.9705 5.73571 46.9705 5.71625 46.9692C5.63715 46.9653 5.55934 46.9576 5.48153 46.9474C5.45819 46.9448 5.43355 46.9422 5.41021 46.9384C5.34148 46.9281 5.27275 46.914 5.20402 46.8999C5.1703 46.8922 5.13529 46.8858 5.10157 46.8768C5.04581 46.8627 4.99134 46.846 4.93687 46.8293C4.89019 46.8152 4.8435 46.8011 4.79812 46.7844C4.75662 46.769 4.71642 46.7523 4.67622 46.7357C4.62045 46.7126 4.56339 46.6895 4.50893 46.6625C4.4791 46.6484 4.44928 46.6317 4.41945 46.6163C4.3572 46.5842 4.29625 46.5522 4.2366 46.5162C4.21196 46.5008 4.18732 46.4842 4.16398 46.4688C4.10432 46.4303 4.04467 46.3905 3.98632 46.3481C3.95908 46.3276 3.93315 46.3058 3.90591 46.284C3.85534 46.2429 3.80347 46.2019 3.75548 46.1582C3.71917 46.1249 3.68416 46.0889 3.64785 46.053C3.61154 46.0171 3.57393 45.9824 3.54021 45.944C3.49483 45.8939 3.45203 45.8413 3.41053 45.7887C3.38849 45.7617 3.36515 45.7361 3.3444 45.7078C3.29771 45.645 3.25492 45.5795 3.21342 45.5128C3.20045 45.4923 3.18619 45.473 3.17322 45.4525C3.13302 45.3858 3.098 45.3165 3.06299 45.2472C3.05132 45.2254 3.03835 45.2036 3.02798 45.1818C2.99815 45.1189 2.97481 45.056 2.95017 44.9918C2.9372 44.9598 2.92294 44.9303 2.91256 44.8969C2.89181 44.8379 2.87625 44.7776 2.85809 44.7173C2.84772 44.6788 2.83475 44.6415 2.82438 44.6018C2.80752 44.535 2.79585 44.467 2.78418 44.399C2.77899 44.3682 2.77121 44.3362 2.76732 44.3054C2.75694 44.2284 2.74916 44.1501 2.74398 44.0718C2.74268 44.0513 2.74009 44.0295 2.73879 44.009C2.7349 43.9281 2.7362 43.8473 2.73879 43.7664C2.73879 43.7472 2.73879 43.7279 2.74009 43.7087C2.74398 43.633 2.75176 43.556 2.76213 43.4803C2.76472 43.4546 2.76732 43.429 2.77121 43.4033C2.78158 43.3379 2.79455 43.2724 2.80882 43.207C2.8166 43.1698 2.82438 43.1326 2.83346 43.0966C2.84642 43.0453 2.86328 42.9953 2.87884 42.9452C2.89441 42.8952 2.90997 42.8451 2.92812 42.7951C2.94109 42.7592 2.95665 42.7258 2.97092 42.6899C2.99685 42.6283 3.02279 42.5667 3.05132 42.5077C3.06299 42.4846 3.07596 42.4615 3.08763 42.4396C3.12264 42.3716 3.16025 42.3049 3.20045 42.2395C3.21083 42.2228 3.2225 42.2074 3.23287 42.1907C3.27696 42.1227 3.32235 42.056 3.37163 41.9918C3.3846 41.9751 3.39886 41.9597 3.41183 41.9431C3.46111 41.8815 3.51039 41.8212 3.56485 41.7634C3.5869 41.7403 3.61024 41.7185 3.63229 41.6954C3.68027 41.6467 3.72955 41.5966 3.78142 41.5504C3.81125 41.5235 3.84367 41.5004 3.87479 41.4747C3.92277 41.4349 3.97075 41.3939 4.02263 41.3567C4.04986 41.3361 4.07969 41.3195 4.10822 41.3002C4.16527 41.2617 4.22104 41.2232 4.28199 41.1873C4.30403 41.1745 4.32608 41.1642 4.34812 41.1526C4.41686 41.1154 4.48559 41.0782 4.55691 41.0449C4.57896 41.0346 4.6023 41.0269 4.62564 41.0179C4.69697 40.9871 4.76959 40.9563 4.8448 40.9307C4.87852 40.9191 4.91223 40.9114 4.94595 40.9011C5.01079 40.8819 5.07563 40.8614 5.14177 40.846C5.19234 40.8344 5.24292 40.8254 5.2935 40.8165C5.34277 40.8075 5.39205 40.7972 5.44133 40.7895C5.50617 40.7805 5.57231 40.7754 5.63715 40.7703C5.67087 40.7677 5.70588 40.7638 5.7396 40.7626C5.81092 40.76 5.88354 40.76 5.95487 40.7626C5.9834 40.7626 6.01322 40.7626 6.04175 40.7651C6.11178 40.769 6.18051 40.7767 6.24924 40.7844C6.28296 40.7882 6.31538 40.7921 6.3491 40.7959C6.40875 40.8049 6.4684 40.8177 6.52805 40.8306C6.57085 40.8396 6.61364 40.8485 6.65644 40.8588C6.70312 40.8703 6.74981 40.8857 6.79649 40.8999C6.85096 40.9165 6.90543 40.9332 6.95989 40.9525C6.99231 40.964 7.02473 40.9781 7.05715 40.991C7.12199 41.0166 7.18683 41.0436 7.24908 41.0744C7.27112 41.0846 7.29187 41.0962 7.31262 41.1077C7.38265 41.1437 7.45138 41.1809 7.51881 41.2219C7.53567 41.2322 7.55123 41.2425 7.5668 41.2527C7.63553 41.2964 7.70296 41.3413 7.7678 41.39C7.78596 41.4041 7.80411 41.4195 7.82227 41.4337C7.88192 41.4811 7.94157 41.5286 7.99863 41.5799C8.02586 41.6043 8.0505 41.6313 8.07644 41.6569C8.12313 41.7018 8.16851 41.7467 8.21261 41.7942C8.24632 41.8314 8.27745 41.8712 8.30857 41.9097C8.34229 41.9508 8.376 41.9893 8.40842 42.0316C8.44084 42.0752 8.46808 42.1201 8.4979 42.1651C8.52513 42.2061 8.55367 42.2459 8.5796 42.287C8.60554 42.3306 8.62629 42.3742 8.64963 42.4191C8.67427 42.4653 8.7002 42.5102 8.72355 42.559C8.743 42.6 8.75726 42.6424 8.77542 42.6834C8.79746 42.7361 8.82081 42.7887 8.84026 42.8438C8.85582 42.8875 8.86749 42.9337 8.88046 42.9773C8.89602 43.0312 8.91418 43.0838 8.92715 43.1377C8.94141 43.1941 8.95049 43.2519 8.96086 43.3096C8.96864 43.3507 8.97772 43.3918 8.98291 43.4328L8.9855 43.4354ZM26.6713 62.0232C26.7206 62.0424 26.7673 62.0642 26.8153 62.0861C26.8594 62.1053 26.9048 62.1246 26.9476 62.1451C26.9929 62.1682 27.0357 62.1938 27.0798 62.2182C27.1239 62.2426 27.168 62.2657 27.2108 62.2926C27.2523 62.3183 27.2912 62.3478 27.3314 62.3748C27.3742 62.4043 27.417 62.4325 27.4585 62.4646C27.4961 62.4928 27.5311 62.5249 27.5674 62.5557C27.6076 62.5903 27.6504 62.6237 27.6893 62.6596C27.723 62.6917 27.7542 62.7251 27.7866 62.7584C27.8242 62.7969 27.8631 62.8354 27.8994 62.8752C27.9305 62.9098 27.9591 62.9471 27.9876 62.9843C28.0213 63.0266 28.0563 63.0677 28.0887 63.1113C28.1173 63.1511 28.1432 63.1921 28.1691 63.2332C28.1977 63.2768 28.2275 63.3205 28.2547 63.3654C28.2807 63.4103 28.304 63.4565 28.3274 63.5027C28.3507 63.5476 28.3753 63.5912 28.3961 63.6374C28.4194 63.6874 28.4389 63.74 28.4583 63.7927C28.4765 63.8376 28.4946 63.8812 28.5102 63.9274C28.5284 63.9826 28.5439 64.0403 28.5595 64.0968C28.5725 64.1417 28.5867 64.1866 28.5971 64.2328C28.6101 64.2905 28.6191 64.3483 28.6282 64.4073C28.636 64.4535 28.6464 64.4997 28.6516 64.5459C28.6593 64.6049 28.6619 64.6626 28.6658 64.7204C28.6684 64.7653 28.6736 64.8115 28.6749 64.8564C28.6749 64.9154 28.6736 64.9732 28.671 65.0322C28.6697 65.0758 28.6697 65.1194 28.6658 65.1631C28.6606 65.2221 28.6516 65.2798 28.6438 65.3389C28.6386 65.3812 28.6334 65.4235 28.6269 65.4646C28.6165 65.5224 28.6023 65.5801 28.588 65.6366C28.5776 65.6776 28.5699 65.7174 28.5582 65.7585C28.5426 65.8149 28.5219 65.8688 28.5037 65.924C28.4895 65.9638 28.4778 66.0035 28.4622 66.0433C28.4415 66.0959 28.4168 66.1472 28.3935 66.1986C28.3753 66.2384 28.3585 66.2781 28.339 66.3179C28.3144 66.3667 28.2859 66.4129 28.2586 66.4603C28.2366 66.5001 28.2145 66.5399 28.1899 66.5771C28.1614 66.622 28.1302 66.6644 28.0991 66.7067C28.0719 66.7452 28.046 66.785 28.0161 66.8222C27.985 66.862 27.95 66.9005 27.9163 66.939C27.8838 66.9762 27.8527 67.0147 27.819 67.0493C27.784 67.0852 27.7477 67.1199 27.7114 67.1545C27.6751 67.1892 27.6401 67.2251 27.6011 67.2585C27.5635 67.2905 27.5233 67.3213 27.4844 67.3509C27.4442 67.3829 27.404 67.415 27.3625 67.4458C27.3223 67.474 27.2795 67.4997 27.2367 67.5266C27.1927 67.5549 27.1499 67.5844 27.1045 67.61C27.0604 67.6344 27.015 67.6562 26.9696 67.6793C26.9229 67.7037 26.8762 67.7281 26.8282 67.7499C26.7816 67.7704 26.7336 67.7884 26.6856 67.8064C26.635 67.8256 26.5857 67.8462 26.5352 67.8641C26.4872 67.8795 26.4379 67.8923 26.3899 67.9052C26.3355 67.9206 26.281 67.9373 26.2252 67.9501C26.1786 67.9604 26.1319 67.9668 26.0865 67.9745C26.0268 67.9847 25.9672 67.9963 25.9088 68.004C25.8647 68.0091 25.8206 68.0104 25.7765 68.0142C25.7156 68.0194 25.6546 68.0245 25.595 68.0258C25.5522 68.0258 25.5081 68.0232 25.4653 68.0232C25.4044 68.0219 25.3447 68.0219 25.2838 68.0168C25.241 68.013 25.1995 68.0065 25.1567 68.0014C25.097 67.9937 25.0387 67.9886 24.9803 67.977C24.9375 67.9693 24.896 67.9591 24.8545 67.9488C24.7975 67.936 24.7391 67.9244 24.6833 67.909C24.6431 67.8975 24.6029 67.8834 24.5627 67.8692C24.507 67.8513 24.4512 67.8333 24.3954 67.8128C24.3565 67.7974 24.3202 67.7794 24.2826 67.764C24.2282 67.7409 24.1737 67.7178 24.1205 67.6909C24.0842 67.6729 24.0505 67.6524 24.0155 67.6331C23.9623 67.6036 23.9091 67.5754 23.8586 67.5433C23.8261 67.5228 23.795 67.4997 23.7626 67.4779C23.712 67.4432 23.6602 67.4099 23.6122 67.3714C23.5823 67.3483 23.5538 67.3226 23.5253 67.2982C23.4773 67.2585 23.428 67.2187 23.3826 67.1763C23.3554 67.1507 23.3308 67.1237 23.3035 67.0968C23.2594 67.0519 23.2141 67.0082 23.1713 66.9608C23.1466 66.9325 23.1246 66.903 23.0999 66.8735C23.0597 66.8248 23.0195 66.776 22.9819 66.7247C22.9586 66.6926 22.9391 66.6592 22.9171 66.6272C22.8821 66.5758 22.8471 66.5232 22.8159 66.4693C22.7952 66.4334 22.777 66.3962 22.7589 66.3603C22.7303 66.3064 22.7005 66.2525 22.6746 66.196C22.6564 66.1562 22.6422 66.1152 22.6253 66.0741C22.6033 66.0189 22.5799 65.9638 22.5605 65.906C22.5462 65.8624 22.5345 65.8162 22.5216 65.7726C22.5047 65.7161 22.4878 65.6597 22.4749 65.6006C22.4645 65.5544 22.458 65.507 22.4489 65.4608C22.4386 65.403 22.4269 65.3466 22.4204 65.2888C22.4139 65.2388 22.4126 65.19 22.4087 65.14C22.4048 65.0861 22.3997 65.0322 22.3984 64.9796C22.3984 64.9257 22.401 64.8731 22.4023 64.8205C22.4036 64.7717 22.4035 64.7217 22.4074 64.6742C22.4113 64.619 22.4204 64.5638 22.4282 64.5087C22.4347 64.4638 22.4386 64.4188 22.4463 64.3739C22.4567 64.3175 22.471 64.261 22.484 64.2046C22.4943 64.1635 22.5021 64.1211 22.5138 64.0801C22.5306 64.0236 22.5501 63.9685 22.5695 63.912C22.5825 63.8735 22.5955 63.8337 22.6097 63.7952C22.6318 63.7413 22.6564 63.6874 22.6811 63.6348C22.6979 63.5976 22.7148 63.5591 22.7329 63.5219C22.7589 63.4706 22.7887 63.4218 22.8172 63.3718C22.838 63.3346 22.8587 63.2974 22.8808 63.2614C22.9119 63.214 22.9456 63.1678 22.978 63.1216C23.0027 63.0869 23.0273 63.051 23.0532 63.0163C23.0883 62.9727 23.1259 62.9304 23.1622 62.888C23.1907 62.8547 23.2192 62.82 23.2491 62.7879C23.2867 62.7482 23.3282 62.711 23.3684 62.6725C23.4008 62.6417 23.4332 62.6096 23.4669 62.5788C23.5084 62.5429 23.5538 62.5095 23.5966 62.4749C23.6329 62.4466 23.6679 62.4171 23.7055 62.3915C23.7509 62.3594 23.7989 62.3299 23.8469 62.3003C23.8858 62.276 23.9234 62.2503 23.9636 62.2272C24.0129 62.199 24.0648 62.1733 24.1166 62.1477C24.1568 62.1271 24.197 62.1053 24.2398 62.0861C24.293 62.0617 24.3488 62.0424 24.4045 62.0206C24.4473 62.0039 24.4901 61.986 24.5329 61.9719C24.5887 61.9539 24.647 61.9385 24.7041 61.9231C24.7508 61.9103 24.7962 61.8962 24.8428 61.8859C24.8999 61.8731 24.9557 61.8654 25.0127 61.8551C25.062 61.8474 25.1113 61.8371 25.1593 61.8307C25.215 61.8243 25.2708 61.8217 25.3265 61.8179C25.3758 61.814 25.4251 61.8102 25.4731 61.8089C25.5289 61.8089 25.5833 61.8115 25.6391 61.8127C25.6871 61.814 25.735 61.814 25.783 61.8179C25.8388 61.8217 25.8933 61.8307 25.9477 61.8384C25.9944 61.8448 26.0411 61.8487 26.0878 61.8577C26.1422 61.8666 26.1954 61.8808 26.2486 61.8936C26.294 61.9039 26.3407 61.9128 26.3847 61.9257C26.4366 61.9398 26.4872 61.959 26.5378 61.9757C26.5832 61.9911 26.6285 62.0039 26.6726 62.0219L26.6713 62.0232ZM22.9417 53.5659L17.11 47.3221L25.4912 45.4474L22.9417 53.5659Z" fill="white"/>
<path d="M52.4413 32.7373H49.5589L43.0007 48.7373H46.5881L47.7728 45.4582H54.2273L55.4121 48.7373H59.0007L52.4426 32.7373H52.4413ZM48.7145 42.7886L50.9879 36.4522L53.2627 42.7886H48.7145Z" fill="white"/>
<path d="M73.0007 48.7373L68.2253 42.8089L68.4373 42.7582C70.6994 42.2235 72.1608 40.2837 72.1608 37.8181C72.1608 34.9698 69.9654 32.7373 67.1617 32.7373H61.0007V48.7373H64.4246V42.9217H64.6418L64.7085 42.9825L68.9501 48.7373H73.0007ZM66.5428 40.3711H64.4246V35.2866H66.5428C67.7059 35.2866 68.9083 36.233 68.9083 37.8168C68.9083 39.4006 67.6902 40.3699 66.5428 40.3699V40.3711Z" fill="white"/>
<path d="M77.7898 48.7373H81.2117V35.7184H86.0007V32.7373H73.0007V35.7184H77.7898V48.7373Z" fill="white"/>
<path d="M91.0007 32.7373H88.0007V48.7373H91.0007V32.7373Z" fill="white"/>
<path d="M97.2602 35.7184H103.001V32.7373H94.0007V48.7373H97.2602V42.2038H102.765V39.2227H97.2602V35.7184Z" fill="white"/>
<path d="M109.001 32.7373H106.001V48.7373H109.001V32.7373Z" fill="white"/>
<path d="M120.231 49.736C123.738 49.736 126.836 47.4656 128.001 44.0685H124.285C123.577 45.5402 121.924 46.5624 120.231 46.5624C117.545 46.5624 115.361 44.173 115.361 41.2373C115.361 38.3016 117.545 35.9109 120.231 35.9109C121.961 35.9109 123.569 36.8886 124.262 38.3552H127.977C126.814 34.9868 123.724 32.7373 120.231 32.7373C115.693 32.7373 112.001 36.5514 112.001 41.2373C112.001 45.9232 115.693 49.7373 120.231 49.7373V49.736Z" fill="white"/>
<path d="M134.001 32.7373H131.001V48.7373H134.001V32.7373Z" fill="white"/>
<path d="M142.559 32.7373L136.001 48.7373H139.589L140.774 45.4582H147.229L148.412 48.7373H152.001L145.443 32.7373H142.56H142.559ZM141.714 42.7886L143.988 36.4522L146.263 42.7886H141.714Z" fill="white"/>
<path d="M157.261 32.7373H154.001V48.7373H163.001V45.7562H157.261V32.7373Z" fill="white"/>
<path d="M50.811 59.4795C48.8441 59.0402 47.1467 58.6605 47.1467 57.3453C47.1467 56.03 48.7459 55.4676 49.8222 55.4676C51.8528 55.4676 52.8282 56.157 53.0578 57.769H56.4168C56.2416 54.615 53.7691 52.7373 49.7731 52.7373C46.7751 52.7373 43.5488 54.2716 43.5488 57.6394C43.5488 61.0073 46.7273 61.8574 49.5329 62.5338C51.6086 63.034 53.4015 63.4655 53.4015 64.9337C53.4015 66.5923 51.3232 67.0316 50.2257 67.0316C48.5442 67.0316 46.7114 66.2697 46.5323 64.1432H43.0007C43.1096 68.2691 46.8627 69.7373 50.0744 69.7373C53.2861 69.7373 57.0007 68.365 57.0007 64.5164C57.0007 60.6678 53.5701 60.095 50.8136 59.4782L50.811 59.4795Z" fill="white"/>
<path d="M66.5007 52.7373C61.973 52.7373 58.0007 56.7095 58.0007 61.2373C58.0007 65.7651 61.973 69.7373 66.5007 69.7373C71.0285 69.7373 75.0007 65.7651 75.0007 61.2373C75.0007 56.7095 71.0285 52.7373 66.5007 52.7373ZM66.5007 66.3167C63.8421 66.3167 61.4214 63.8842 61.4214 61.2125C61.4214 58.5408 63.8421 56.1331 66.5007 56.1331C69.1593 56.1331 71.5801 58.5538 71.5801 61.2125C71.5801 63.8711 69.1593 66.3167 66.5007 66.3167Z" fill="white"/>
<path d="M80.361 61.2386C80.361 58.3016 82.5454 55.9122 85.2311 55.9122C86.9612 55.9122 88.5685 56.8912 89.2621 58.3565H92.9767C91.8136 54.9881 88.7242 52.7373 85.2311 52.7373C80.6925 52.7373 77.0007 56.5514 77.0007 61.2373C77.0007 65.9232 80.6925 69.7373 85.2311 69.7373C88.7381 69.7373 91.8364 67.4669 93.0007 64.0685H89.2849C88.5774 65.5402 86.9245 66.5624 85.2311 66.5624C82.5454 66.5624 80.361 64.173 80.361 61.2373V61.2386Z" fill="white"/>
<path d="M99.0007 53.7373H96.0007V69.7373H99.0007V53.7373Z" fill="white"/>
<path d="M105.261 63.2038H110.765V60.2227H105.261V56.7184H111.001V53.7373H102.001V69.7373H111.001V66.7562H105.261V63.2038Z" fill="white"/>
<path d="M117.79 69.7373H121.21V56.7184H126.001V53.7373H113.001V56.7184H117.79V69.7373Z" fill="white"/>
<path d="M127.001 53.7373L132.852 62.3245V69.7373H136.151V62.3245L142.001 53.7373H138.077L134.502 59.4828L130.925 53.7373H127.001Z" fill="white"/>
</g>
</g>
<defs>
<clipPath id="clip0_188_3889">
<rect width="163" height="39" fill="white" transform="translate(0.000732422 31.7373)"/>
</clipPath>
</defs>
</svg>
