<svg width="200" height="91" viewBox="0 0 200 91" fill="none" xmlns="http://www.w3.org/2000/svg">
<g opacity="0.6">
<g clip-path="url(#clip0_188_3884)">
<path d="M27 51.3934L28.4421 47.6398C29.7544 48.5266 31.278 49.0197 32.8424 49.0656C34.1214 49.0656 34.5774 48.7598 34.5774 48.2323C34.5774 46.3135 27.2113 47.8615 27.2113 42.1624C27.2113 39.3109 29.2799 37.0022 33.4282 37.0022C35.1891 36.964 36.9277 37.4265 38.4551 38.3362L37.0723 42.0745C35.9527 41.3673 34.6738 40.9736 33.3614 40.9316C32.0417 40.9316 31.6302 41.375 31.6302 41.8948C31.6302 43.7296 39 42.2044 39 47.8386C39 50.6366 36.9277 52.9988 32.7831 52.9988C30.7479 53.0294 28.7461 52.4713 27.0037 51.3934H27Z" fill="white"/>
<path d="M53 49.1882V53H42V38H52.7535V41.8118H46.3853V43.566H51.9773V47.2091H46.3853V49.1807H53V49.1882Z" fill="white"/>
<path d="M57 38H61.6971V49.0787H68V53H57V38Z" fill="white"/>
<path d="M82 49.1882V53H71V38H81.7897V41.8118H75.4022V43.566H81.0111V47.2091H75.4022V49.1807H82V49.1882Z" fill="white"/>
<path d="M85 45.0153C85 40.3167 88.2823 37.007 92.7528 37.007C93.9721 36.9535 95.1836 37.206 96.2751 37.7417C97.3666 38.2773 98.3033 39.0809 99 40.068L96.0351 42.9606C95.7216 42.4326 95.2803 41.9888 94.7462 41.675C94.2121 41.3613 93.6082 41.1853 92.9889 41.1661C91.042 41.1661 89.7299 42.6507 89.7299 44.9923C89.7299 47.334 91.042 48.8186 92.9889 48.8186C93.6082 48.7994 94.2121 48.6234 94.7462 48.3097C95.2765 47.9959 95.7216 47.5521 96.0351 47.0241L99 49.932C98.3033 50.923 97.3666 51.7227 96.2751 52.2583C95.1797 52.794 93.9721 53.0465 92.7528 52.993C88.3171 53.0083 85 49.7024 85 45V45.0153Z" fill="white"/>
<path d="M104.807 41.9168H101V38H113V41.9168H109.193V53H104.807V41.9168Z" fill="white"/>
<path d="M116 51.3934L117.446 47.6398C118.758 48.5266 120.278 49.0197 121.846 49.0656C123.125 49.0656 123.581 48.7598 123.581 48.2323C123.581 46.3135 116.211 47.8615 116.211 42.1624C116.211 39.3109 118.284 37.0022 122.428 37.0022C124.189 36.964 125.928 37.4265 127.455 38.3362L126.076 42.0745C124.956 41.3673 123.677 40.9736 122.365 40.9316C121.045 40.9316 120.63 41.375 120.63 41.8948C120.63 43.7296 128 42.2044 128 47.8386C128 50.6366 125.928 52.9988 121.783 52.9988C119.752 53.0294 117.75 52.4713 116.004 51.3934H116Z" fill="white"/>
<path d="M133.812 41.9168H130V38H142V41.9168H138.188V53H133.797L133.812 41.9168Z" fill="white"/>
<path d="M153.486 50.3838H148.44L147.54 53H143L148.802 38H153.198L159 53H154.375L153.486 50.3838ZM152.249 46.7444L150.976 42.9738L149.684 46.7444H152.249Z" fill="white"/>
<path d="M167.797 49.2294H166.575V53H162V38H168.528C172.311 38 174.71 40.1814 174.71 43.6597C174.762 44.6042 174.551 45.5412 174.102 46.3733C173.65 47.2054 172.975 47.8951 172.156 48.3673L175 53H170.082L167.797 49.2294ZM168.227 41.8981H166.575V45.3951H168.238C168.491 45.425 168.743 45.4063 168.981 45.3313C169.222 45.2564 169.445 45.1364 169.633 44.9715C169.822 44.8066 169.973 44.6042 170.075 44.3718C170.18 44.1432 170.233 43.8958 170.233 43.6447C170.233 43.3936 170.18 43.1499 170.075 42.9213C169.973 42.6927 169.822 42.4865 169.633 42.3216C169.445 42.1567 169.222 42.033 168.981 41.9618C168.743 41.8868 168.491 41.8643 168.238 41.8981H168.227Z" fill="white"/>
<path d="M19 45.4981C19 45.2068 18.8489 44.9385 18.6056 44.7929L15.2111 42.7539L18.6056 40.7149C18.8489 40.5692 18.9963 40.301 18.9963 40.0097C18.9963 39.7184 18.8489 39.4501 18.6056 39.3044L9.99573 34.138C9.68982 33.954 9.31018 33.954 9.00427 34.138L0.390689 39.3083C0.151115 39.4539 0 39.7222 0 40.0135C0 40.3048 0.14743 40.5731 0.390689 40.7187L3.78894 42.7577L0.390689 44.7929C0.151115 44.9385 0 45.2068 0 45.4981C0 45.7894 0.14743 46.0577 0.390689 46.2033L3.78894 48.2423L0.390689 50.2813C0.151115 50.4269 0 50.6952 0 50.9865C0 51.2778 0.14743 51.5461 0.390689 51.6917L9.00427 56.862C9.15538 56.954 9.32861 57 9.49816 57C9.6677 57 9.84093 56.954 9.99573 56.862L18.6056 51.6917C18.8489 51.5461 19 51.2778 19 50.9865C19 50.6952 18.8489 50.4269 18.6056 50.2813L15.2111 48.2423L18.6056 46.2033C18.8489 46.0577 19 45.7894 19 45.4981ZM1.50378 40.0097L9.33598 35.3108L9.12958 39.5612C9.08535 39.5804 9.04113 39.5996 9.00427 39.6226L4.92784 42.0678L1.50378 40.0097ZM8.8937 44.4479L6.07042 42.7539L9.06324 40.9602L8.8937 44.4479ZM4.93152 43.4399L7.44151 44.9462L1.78758 45.3256L4.93152 43.4399ZM9.06324 50.036L6.0741 48.2385L8.8937 46.5444L9.06324 50.036ZM1.78758 45.6667L7.44151 46.05L4.93152 47.5562L1.78758 45.6706V45.6667ZM1.50378 50.9865L4.93152 48.9283L9.00427 51.3736C9.0485 51.4004 9.08904 51.4196 9.13327 51.4388L9.33967 55.6931L1.50378 50.9865ZM17.2161 45.3294L11.5585 44.95L14.0722 43.4399L17.2161 45.3294ZM9.93676 40.9602L12.9296 42.7539L10.1063 44.4479L9.93676 40.9602ZM12.9296 48.2423L9.93676 50.0398L10.1063 46.5482L12.9296 48.2423ZM17.4962 40.0135L14.0722 42.0717L9.99573 39.6264C9.95519 39.6034 9.91465 39.5804 9.87042 39.5612L9.66402 35.3108L17.4962 40.0135ZM17.4962 50.9865L9.66033 55.6931L9.86673 51.4388C9.91096 51.4196 9.95519 51.4004 9.99573 51.3736L14.0685 48.9283L17.4962 50.9865ZM14.0722 47.5562L11.5585 46.05L17.2161 45.6706L14.0722 47.5562Z" fill="white"/>
</g>
</g>
<defs>
<clipPath id="clip0_188_3884">
<rect width="175" height="23" fill="white" transform="translate(0 34)"/>
</clipPath>
</defs>
</svg>
