<svg width="200" height="91" viewBox="0 0 200 91" fill="none" xmlns="http://www.w3.org/2000/svg">
<g opacity="0.6">
<g clip-path="url(#clip0_188_3883)">
<path d="M16.1218 34.902H2.50562C1.12304 34.902 0 36.0919 0 37.5568V37.6678C0 39.1327 1.12304 40.3226 2.50562 40.3226H6.74821V57.7374C6.74821 59.2023 7.87125 60.3922 9.25383 60.3922H9.35865C10.7412 60.3922 11.8643 59.2023 11.8643 57.7374V40.3226H16.1218C17.5044 40.3226 18.6275 39.1327 18.6275 37.6678V37.5568C18.6275 36.0919 17.5044 34.902 16.1218 34.902Z" fill="white"/>
<path d="M32.8381 60.3922C27.7045 60.3922 23.5294 56.4848 23.5294 51.6787V37.4663C23.5294 36.0493 24.6184 34.902 25.9632 34.902C27.3081 34.902 28.397 36.0493 28.397 37.4663V50.9807C28.397 53.746 30.4344 55.2635 32.8431 55.2635C35.2519 55.2635 37.2892 53.82 37.2892 50.9807V37.4663C37.2892 36.0493 38.3782 34.902 39.7231 34.902C41.0679 34.902 42.1569 36.0493 42.1569 37.4663V51.6734C42.1569 56.4796 37.9818 60.3869 32.8482 60.3869L32.8381 60.3922Z" fill="white"/>
<path d="M65.6411 42.7626C65.596 42.1283 65.4906 41.4463 65.3251 40.7063C65.0993 39.7124 64.7281 38.7874 64.2164 37.9257C63.6745 37.0958 62.9622 36.3821 62.0842 35.7901C61.2013 35.198 60.0925 34.902 58.7581 34.902H54.6493C53.1693 34.902 51.9452 35.1504 50.982 35.6473C50.0137 36.1442 49.2311 36.7944 48.6341 37.5927C48.0622 38.3909 47.6609 39.3107 47.42 40.3521C47.2344 41.1503 47.119 41.9591 47.0789 42.7679L47.0588 57.8231C47.0588 59.2398 48.1475 60.3869 49.492 60.3869C50.8365 60.3869 51.9252 59.2398 51.9252 57.8231V43.471C51.9603 42.493 52.2161 41.6578 52.7178 40.9759C53.2446 40.2569 54.6292 39.8975 56.3099 39.8975C57.8149 39.8975 59.2848 40.2041 59.9019 40.812C60.4638 41.3723 60.7648 42.2445 60.8099 43.4287L60.82 57.8284C60.82 59.2451 61.9086 60.3922 63.2531 60.3922C64.5976 60.3922 65.6863 59.2451 65.6863 57.8284L65.6612 42.7732L65.6411 42.7626Z" fill="white"/>
<path d="M97.3075 46.5418C97.897 45.3995 98.2317 44.0721 98.2317 42.6601C98.2317 38.3818 95.1496 34.902 91.3582 34.902H83.7953C82.4565 34.902 81.3726 36.1236 81.3726 37.6361V57.6633C81.3726 59.123 82.3866 60.3128 83.6654 60.3869L83.7953 60.3922H93.1565C96.9279 60.3922 100 56.9283 100 52.6711C100 50.1749 98.941 47.9485 97.3075 46.5365V46.5418ZM93.3912 42.6601C93.3912 43.924 92.4771 44.9553 91.3582 44.9553H86.3179V40.3702H91.3582C92.4771 40.3702 93.3912 41.4014 93.3912 42.6654V42.6601ZM93.1615 54.9345H86.3229V50.4182H93.1615C94.2654 50.4182 95.1646 51.4283 95.1646 52.6764C95.1646 53.9244 94.2654 54.9345 93.1615 54.9345Z" fill="white"/>
<path d="M75.4902 45.3503C75.4902 43.9115 74.3929 42.7451 73.0392 42.7451C71.6856 42.7451 70.5883 43.9115 70.5883 45.3503V57.787C70.5883 59.2258 71.6856 60.3922 73.0392 60.3922C74.3929 60.3922 75.4902 59.2258 75.4902 57.787V45.3503Z" fill="white"/>
<path d="M73.0537 32.9412C73.7624 32.0058 74.2928 31.4382 74.5098 31.2111C74.3844 30.984 74.2205 30.7299 73.9649 30.4704C73.4972 29.9892 73.0006 30 73.0006 30H72.9862C72.9862 30 72.4751 30 72.0218 30.4704C71.8193 30.6812 71.6795 30.8759 71.5686 31.0543C71.9881 31.4219 72.5522 32.0221 73.0488 32.9412H73.0537Z" fill="white"/>
<path d="M78.3838 31.7803C78.1957 31.4751 77.8035 30.9857 77.0029 30.9804C76.0734 30.9752 75.4878 31.4804 75.4878 31.4804C75.101 31.8224 74.7141 32.0961 74.2413 32.7591C74.0479 33.0328 73.9673 33.3591 74.1016 33.6643C74.3058 34.1274 74.4777 34.6536 74.6067 35.243C74.6174 35.2904 74.886 36.5165 74.741 37.8795C74.7195 38.0584 74.569 38.19 74.3917 38.19C74.381 38.19 74.3649 38.19 74.3541 38.19C74.1607 38.1689 74.021 38.0005 74.0425 37.8111C74.1768 36.5639 73.9243 35.4061 73.9243 35.3904C73.4622 33.2485 72.2748 31.8593 71.528 31.4383C71.1573 31.233 70.6146 30.9383 70.0021 30.991C69.2016 31.0594 68.847 31.4856 68.6643 31.7856C68.5998 31.8908 68.6213 32.0224 68.718 32.1013C68.9383 32.2855 69.3252 32.6697 69.4863 33.1801C69.6583 33.7222 69.5723 34.1168 69.5562 34.5115C69.5401 34.943 69.3789 36.4849 69.4756 37.3322C69.5723 38.1689 69.9377 40.3528 72.8121 40.7528C73.0109 40.7949 74.0479 40.7949 74.2521 40.7528C77.1319 40.3528 77.4972 38.1689 77.5886 37.3322C77.6853 36.4849 77.5187 34.9378 77.508 34.5115C77.4919 34.1168 77.4059 33.7222 77.5778 33.1801C77.739 32.6749 78.1205 32.2908 78.3408 32.1013C78.4375 32.0224 78.459 31.8856 78.3945 31.7803H78.3838Z" fill="white"/>
</g>
</g>
<defs>
<clipPath id="clip0_188_3883">
<rect width="100" height="30.3922" fill="white" transform="translate(0 30)"/>
</clipPath>
</defs>
</svg>
