<svg width="200" height="101" viewBox="0 0 200 101" fill="none" xmlns="http://www.w3.org/2000/svg">
<g opacity="0.6">
<g clip-path="url(#clip0_188_3888)">
<path d="M34.0007 34V68H0.000732422V45.3371H7.55629V60.4557H26.4452L26.4602 41.5593H11.3341V34H34.0007Z" fill="white"/>
<path d="M8.00073 34H0.000732422V42H8.00073V34Z" fill="white"/>
<path d="M56.4165 49.5461V42H60.0007V60.9886H56.4165V53.1311H49.6106V61H46.0007V42.0114H49.6106V49.5461H56.4165Z" fill="white"/>
<path d="M63.0007 42.0023H70.2311C72.5927 41.9454 74.8633 42.9401 76.4753 44.7436C78.1565 46.547 79.0662 48.9845 78.9971 51.5017C79.0662 54.0152 78.1565 56.4527 76.4753 58.2561C74.867 60.0596 72.5927 61.0581 70.2311 60.9974H63.0007V42.0023ZM66.5923 57.4171H70.2311C71.6794 57.474 73.0803 56.8817 74.081 55.7883C75.089 54.6151 75.6239 53.0774 75.5656 51.5017C75.5656 49.7477 75.0708 48.3277 74.081 47.238C73.0876 46.1332 71.683 45.5295 70.2311 45.5826H66.5923V57.4171Z" fill="white"/>
<path d="M90.2875 61C87.2945 61 85.2002 59.8199 84.0007 57.4598L87.2412 55.6507C87.839 56.8195 88.8557 57.404 90.2875 57.4077C91.2699 57.4077 92.0086 57.1806 92.5075 56.7265C93.0291 56.2314 93.3071 55.5353 93.269 54.8242V42H97.0007V54.8242C97.0007 56.7749 96.3724 58.2937 95.1197 59.3769C93.8669 60.4602 92.2562 61.0037 90.2875 61Z" fill="white"/>
<path d="M109.406 54.3514V47H113.001V60.6166H109.41V59.0923C108.553 60.3613 107.171 60.9977 105.262 60.9977C103.841 61.0397 102.466 60.4947 101.477 59.4962C100.491 58.4825 100.001 57.0991 100.001 55.3575V47H103.592V54.9268C103.545 55.6852 103.81 56.4322 104.328 56.9962C104.869 57.5031 105.597 57.766 106.345 57.7317C107.182 57.7737 108 57.4612 108.588 56.8743C109.13 56.2988 109.406 55.4604 109.406 54.3514Z" fill="white"/>
<path d="M123.741 47.0031C125.154 46.9536 126.525 47.4985 127.498 48.5007C128.498 49.5182 129.001 50.8977 129.001 52.6392V61H125.407V53.0736C125.454 52.3153 125.189 51.5684 124.671 51.0044C124.13 50.4938 123.398 50.227 122.651 50.2689C121.814 50.227 120.996 50.5395 120.412 51.1263C119.863 51.698 119.587 52.5401 119.59 53.6491V61H116.001V47.388H119.59V48.9123C120.447 47.6395 121.829 47.0031 123.741 47.0031Z" fill="white"/>
<path d="M138.013 61C134.11 60.9703 130.971 57.7807 131.001 53.8791C131.016 52.0618 131.728 50.3187 132.993 49.0169C135.282 46.8065 138.755 46.3651 141.526 47.9302C142.554 48.5125 143.392 49.3766 143.941 50.4188L140.996 52.1434C140.732 51.5982 140.313 51.1457 139.79 50.8453C139.237 50.5227 138.61 50.3595 137.972 50.3669C137.019 50.3372 136.098 50.7081 135.427 51.3868C134.752 52.0803 134.388 53.015 134.418 53.983C134.396 54.9472 134.759 55.8819 135.427 56.5791C136.098 57.2504 137.022 57.6176 137.972 57.5879C138.621 57.599 139.259 57.4395 139.827 57.1243C140.35 56.8313 140.773 56.3788 141.033 55.8373L144.001 57.5323C143.426 58.5856 142.569 59.4571 141.522 60.0505C140.458 60.6736 139.248 61.0037 138.013 61Z" fill="white"/>
<path d="M161.001 60H158.001V47H161.001V60Z" fill="white"/>
<path d="M177.124 59.1082C174.17 61.8034 169.588 61.5937 166.893 58.6393C164.377 55.8794 164.369 51.6594 166.877 48.8918C169.832 46.1966 174.414 46.4063 177.109 49.3607C179.625 52.1206 179.633 56.3406 177.124 59.1082ZM169.359 56.6761C170.834 58.0942 173.167 58.0942 174.643 56.6761C176.061 55.1589 176.061 52.7992 174.643 51.282C173.167 49.8639 170.834 49.8639 169.359 51.282C167.975 52.8144 167.975 55.1436 169.359 56.6761Z" fill="white"/>
<path d="M188.739 47.0031C190.153 46.9536 191.524 47.4985 192.497 48.5007C193.502 49.5182 194.005 50.8977 194.001 52.6392V61H190.41V53.0736C190.457 52.3153 190.192 51.5684 189.674 51.0044C189.136 50.4938 188.404 50.227 187.657 50.2689C186.819 50.227 186.001 50.5395 185.413 51.1263C184.868 51.698 184.591 52.5401 184.591 53.6491V61H181.001V47.388H184.591V48.9123C185.448 47.6395 186.831 47.0031 188.739 47.0031Z" fill="white"/>
<path d="M161.001 42H158.001V45H161.001V42Z" fill="white"/>
<path d="M155.001 47.391V50.7311H151.913V56.337C151.878 56.7103 152.008 57.0835 152.268 57.3587C152.559 57.6 152.926 57.7319 153.308 57.7357C153.873 57.7658 154.435 57.7658 155.001 57.7357V60.8873C152.612 61.1588 150.915 60.9401 149.906 60.2276C148.898 59.5151 148.389 58.2295 148.378 56.3634V50.7311H146.001V47.391H148.378V42H151.901V47.391H155.001Z" fill="white"/>
</g>
</g>
<defs>
<clipPath id="clip0_188_3888">
<rect width="194" height="34" fill="white" transform="translate(0.000732422 34)"/>
</clipPath>
</defs>
</svg>
