<svg width="200" height="91" viewBox="0 0 200 91" fill="none" xmlns="http://www.w3.org/2000/svg">
<g opacity="0.6">
<g clip-path="url(#clip0_188_3881)">
<path d="M15.7699 46.759C14.9748 48.4173 13.3163 50.3933 9.93452 50.3933C5.94254 50.3933 3.91733 47.2177 3.91733 40.9562C3.91733 40.2249 3.95953 39.5224 4.00496 38.8712H16.987V38.7942C16.9124 37.0076 16.1302 35.2433 14.8417 33.9602C13.8259 32.9466 12.0116 31.7373 9.14261 31.7373C3.93032 31.7341 0 36.0934 0 41.8736C0 48.2794 4.80661 51.7373 9.32761 51.7373C14.7411 51.7373 16.7696 47.7854 16.9805 46.8071L17 46.7173H15.7894L15.7699 46.759ZM4.11531 37.8031C4.32302 36.4879 4.97213 32.8985 8.95437 32.8985C12.2875 32.8985 13.4299 36.4911 13.4299 37.7902L4.11531 37.8031Z" fill="white"/>
<path d="M49.9762 44.4957V37.7891C49.9762 33.8569 48.0289 31.8638 44.1857 31.8638C41.5668 31.8638 39.2693 33.0786 36.9621 35.6885C36.7468 34.6129 35.7699 31.8638 31.3837 31.8638C28.8226 31.8638 26.4608 33.0818 24.3593 35.4861C24.3593 34.1321 24.1472 32.8857 23.7551 31.7373C21.84 32.3131 19.9184 32.7813 18 32.9078V34.0372C18 34.0372 21.0174 34.1036 21.0174 39.1399V44.4957C21.0174 49.4086 21.0174 49.5984 18.0739 49.5984H18V50.7373H27.3895V49.5984H27.3156C24.3721 49.5984 24.3721 49.4055 24.3721 44.4957V37.3589C25.0276 36.3908 26.9781 33.5373 30.1947 33.5373C31.329 33.5373 32.2063 33.8347 32.7943 34.4231C33.8676 35.4955 33.8258 38.9912 33.8258 39.1367V44.4926C33.8258 49.3074 33.8258 49.5953 30.8824 49.5953H30.8085V50.7341H40.1947V49.5953H40.1208C37.1774 49.5953 37.1774 49.4023 37.1774 44.4926V37.3557C37.8329 36.3877 39.7834 33.5342 43.0032 33.5342C46.6311 33.5342 46.6311 36.4889 46.6311 38.8615V44.4894C46.6311 49.5921 46.5154 49.5921 43.5495 49.5921H43.4756V50.731H53V49.5921H52.9261C49.9827 49.5921 49.9826 49.3042 49.9826 44.4894L49.9762 44.4957Z" fill="white"/>
<path d="M100 31.7373C94.4869 31.7373 90 36.2242 90 41.7373C90 47.2505 94.4869 51.7373 100 51.7373C105.513 51.7373 110 47.2505 110 41.7373C110 36.2242 105.513 31.7373 100 31.7373ZM105.151 46.8656C105.151 46.8656 105.135 46.8816 105.125 46.8912H94.8685C94.8108 46.8335 94.7531 46.7726 94.6953 46.7116V36.8912H105.151V46.8656ZM104.968 36.4358H95.0289C96.331 35.2139 98.0789 34.4666 100 34.4666C101.921 34.4666 103.669 35.2171 104.971 36.4358H104.968ZM92.7261 41.7373C92.7261 40.0664 93.2938 38.5301 94.2431 37.3018V46.176C93.2938 44.9477 92.7261 43.4082 92.7261 41.7373ZM95.372 47.3467H104.628C103.371 48.3858 101.758 49.0144 100 49.0144C98.2425 49.0144 96.6292 48.389 95.372 47.3467ZM105.606 46.3653V37.1125C106.645 38.3698 107.271 39.983 107.271 41.7405C107.271 43.498 106.645 45.1081 105.606 46.3685V46.3653Z" fill="white"/>
<path d="M128.271 32.1119V34.8516C126.447 32.9373 123.862 31.7373 120.998 31.7373C115.486 31.7373 111 36.1786 111 41.6357C111 47.0929 115.486 51.5341 120.998 51.5341C123.862 51.5341 126.447 50.3341 128.271 48.4198V48.8357C128.271 52.804 125.01 56.0357 121.002 56.0357C118.411 56.0357 115.996 54.6548 114.704 52.4357L112.344 53.7849C114.123 56.8357 117.439 58.731 121.002 58.7373C126.514 58.7373 131 54.296 131 48.8357V32.1119H128.274H128.271ZM121.002 48.8357C116.993 48.8357 113.729 45.6071 113.729 41.6357C113.729 37.6643 116.99 34.4357 121.002 34.4357C125.013 34.4357 128.274 37.6643 128.274 41.6357C128.274 45.6071 125.013 48.8357 121.002 48.8357Z" fill="white"/>
<path d="M82.9566 34.4611C84.8923 34.4611 86.7099 35.2182 88.0802 36.5913L90 34.6632C86.1157 30.762 79.7974 30.762 75.9132 34.6632C72.0289 38.5644 72.0289 44.9102 75.9132 48.8114C77.8553 50.762 80.4044 51.7373 82.9566 51.7373C85.5088 51.7373 88.0579 50.762 90 48.8114L88.0802 46.8833C86.7131 48.2564 84.8923 49.0135 82.9566 49.0135C81.0209 49.0135 79.2033 48.2564 77.8362 46.8833C75.0124 44.0472 75.0124 39.4306 77.8362 36.5945C79.2033 35.2214 81.0241 34.4643 82.9566 34.4643V34.4611Z" fill="white"/>
<path d="M71.2976 40.8745L70.0204 36.8108C70.1704 36.6513 70.263 36.4419 70.263 36.2106C70.263 35.7229 69.8575 35.3259 69.3594 35.3259C69.2381 35.3259 69.12 35.3509 69.0146 35.3947L65.48 32.7345C65.4864 32.697 65.4928 32.6595 65.4928 32.622C65.4928 32.1343 65.0873 31.7373 64.5892 31.7373C64.2571 31.7373 63.9666 31.9155 63.8101 32.1812H59.1899C59.0335 31.9186 58.7429 31.7373 58.4108 31.7373C57.9127 31.7373 57.5072 32.1343 57.5072 32.622C57.5072 32.6595 57.5136 32.697 57.52 32.7345L53.9854 35.3947C53.88 35.3509 53.7619 35.3259 53.6406 35.3259C53.1425 35.3259 52.737 35.7229 52.737 36.2106C52.737 36.4419 52.8296 36.6513 52.9796 36.8108L51.7024 40.8745C51.3001 40.9652 51 41.3153 51 41.7373C51 42.1593 51.3001 42.5094 51.7024 42.6001L52.9796 46.6638C52.8296 46.8233 52.737 47.0327 52.737 47.264C52.737 47.7517 53.1425 48.1487 53.6406 48.1487C53.7619 48.1487 53.88 48.1237 53.9854 48.0799L57.52 50.7401C57.5136 50.7776 57.5072 50.8151 57.5072 50.8527C57.5072 51.3403 57.9127 51.7373 58.4108 51.7373C58.7429 51.7373 59.0335 51.5591 59.1899 51.2934H63.8101C63.9666 51.556 64.2571 51.7373 64.5892 51.7373C65.0873 51.7373 65.4928 51.3403 65.4928 50.8527C65.4928 50.8151 65.4864 50.7776 65.48 50.7401L69.0146 48.0799C69.12 48.1237 69.2381 48.1487 69.3594 48.1487C69.8575 48.1487 70.263 47.7517 70.263 47.264C70.263 47.0327 70.1704 46.8233 70.0204 46.6638L71.2976 42.6001C71.6999 42.5094 72 42.1593 72 41.7373C72 41.3153 71.6999 40.9652 71.2976 40.8745ZM69.3562 35.7667C69.6053 35.7667 69.8096 35.9636 69.8096 36.2106C69.8096 36.4575 69.6085 36.6545 69.3562 36.6545C69.104 36.6545 68.9028 36.4575 68.9028 36.2106C68.9028 35.9636 69.104 35.7667 69.3562 35.7667ZM68.7624 36.8702L66.6933 40.8714C66.655 40.862 66.6167 40.862 66.5784 40.8589L66.0803 37.9611C66.3964 37.8236 66.6167 37.5141 66.6167 37.1515C66.6167 37.1515 66.6167 37.1452 66.6167 37.1421L68.5708 36.6388C68.6219 36.7264 68.6857 36.8045 68.7592 36.8702H68.7624ZM65.6333 45.4416C65.2629 45.4728 64.9564 45.7229 64.851 46.0605L62.3829 45.9386C62.3669 45.8573 62.335 45.7823 62.2966 45.7104L65.9973 42.4688C66.0388 42.4969 66.0835 42.5188 66.1314 42.5407L65.6333 45.4416ZM66.1665 46.32C66.1665 46.5638 65.9653 46.7639 65.7131 46.7639C65.4608 46.7639 65.2597 46.5669 65.2597 46.32C65.2597 46.073 65.4608 45.8761 65.7131 45.8761C65.9653 45.8761 66.1665 46.073 66.1665 46.32ZM57.3572 45.4416L56.8591 42.5407C56.9069 42.5188 56.9517 42.4969 56.9932 42.4688L60.6938 45.7104C60.6555 45.7823 60.6235 45.8542 60.6076 45.9355L58.1362 46.0543C58.0277 45.7198 57.7243 45.4728 57.354 45.4385L57.3572 45.4416ZM57.7307 46.32C57.7307 46.5638 57.5296 46.7639 57.2773 46.7639C57.0251 46.7639 56.8239 46.5669 56.8239 46.32C56.8239 46.073 57.0251 45.8761 57.2773 45.8761C57.5296 45.8761 57.7307 46.073 57.7307 46.32ZM57.3572 38.0299C57.7275 37.9986 58.0341 37.7486 58.1394 37.411L60.6076 37.5329C60.6235 37.6141 60.6555 37.6892 60.6938 37.7611L56.9932 41.0027C56.9517 40.9746 56.9069 40.9527 56.8591 40.9308L57.3572 38.033V38.0299ZM56.8271 37.1515C56.8271 36.9077 57.0283 36.7076 57.2805 36.7076C57.5328 36.7076 57.7339 36.9045 57.7339 37.1515C57.7339 37.3984 57.5328 37.5954 57.2805 37.5954C57.0283 37.5954 56.8271 37.3984 56.8271 37.1515ZM65.6333 38.0299L66.1314 40.9277C66.0835 40.9496 66.0388 40.9714 65.9973 40.9996L62.2966 37.7579C62.335 37.686 62.3669 37.6141 62.3829 37.5329L64.8542 37.4141C64.9627 37.7486 65.2661 37.9955 65.6365 38.0299H65.6333ZM65.2597 37.1515C65.2597 36.9077 65.4608 36.7076 65.7131 36.7076C65.9653 36.7076 66.1665 36.9045 66.1665 37.1515C66.1665 37.3984 65.9653 37.5954 65.7131 37.5954C65.4608 37.5954 65.2597 37.3984 65.2597 37.1515ZM65.6971 41.3309C65.6652 41.3872 65.6428 41.4497 65.6237 41.5122H62.3669C62.2839 41.2028 62.038 40.9589 61.7187 40.8777V38.205C61.8177 38.1799 61.9103 38.1424 61.9933 38.0862L65.6939 41.3278L65.6971 41.3309ZM61.9486 41.7373C61.9486 41.9811 61.7475 42.1812 61.4952 42.1812C61.243 42.1812 61.0418 41.9843 61.0418 41.7373C61.0418 41.4904 61.243 41.2934 61.4952 41.2934C61.7475 41.2934 61.9486 41.4904 61.9486 41.7373ZM61.4952 37.7986C61.2462 37.7986 61.0418 37.6016 61.0418 37.3547C61.0418 37.1077 61.243 36.9108 61.4952 36.9108C61.7475 36.9108 61.9486 37.1077 61.9486 37.3547C61.9486 37.6016 61.7475 37.7986 61.4952 37.7986ZM61.2685 38.2081V40.8808C60.9524 40.9621 60.7034 41.2028 60.6203 41.5154H57.3635C57.3476 41.4497 57.322 41.3903 57.2901 41.3341L60.9907 38.0924C61.0737 38.1456 61.1663 38.1862 61.2653 38.2112L61.2685 38.2081ZM56.9453 41.7373C56.9453 41.9811 56.7441 42.1812 56.4919 42.1812C56.2396 42.1812 56.0385 41.9843 56.0385 41.7373C56.0385 41.4904 56.2396 41.2934 56.4919 41.2934C56.7441 41.2934 56.9453 41.4904 56.9453 41.7373ZM57.2933 42.1406C57.3252 42.0843 57.3476 42.0218 57.3667 41.9592H60.6235C60.7066 42.2687 60.9524 42.5125 61.2717 42.5938V45.2665C61.1727 45.2915 61.0801 45.3291 60.9971 45.3853L57.2965 42.1437L57.2933 42.1406ZM61.4952 45.6729C61.7443 45.6729 61.9486 45.8698 61.9486 46.1168C61.9486 46.3638 61.7475 46.5607 61.4952 46.5607C61.243 46.5607 61.0418 46.3638 61.0418 46.1168C61.0418 45.8698 61.243 45.6729 61.4952 45.6729ZM61.7219 45.2634V42.5907C62.038 42.5094 62.2871 42.2687 62.3701 41.9561H65.6269C65.6428 42.0218 65.6684 42.0812 65.7003 42.1374L61.9997 45.3791C61.9167 45.3259 61.8241 45.2853 61.7251 45.2603L61.7219 45.2634ZM66.0452 41.7373C66.0452 41.4935 66.2463 41.2934 66.4986 41.2934C66.7508 41.2934 66.952 41.4904 66.952 41.7373C66.952 41.9843 66.7508 42.1812 66.4986 42.1812C66.2463 42.1812 66.0452 41.9843 66.0452 41.7373ZM68.4654 36.0949C68.459 36.1324 68.4526 36.1699 68.4526 36.2075C68.4526 36.2075 68.4526 36.2075 68.4526 36.2106L66.4986 36.7139C66.3453 36.4482 66.0579 36.2668 65.7259 36.2606L65.0426 33.516L68.4622 36.0918L68.4654 36.0949ZM64.586 32.1749C64.835 32.1749 65.0394 32.3719 65.0394 32.6188C65.0394 32.8658 64.8382 33.0627 64.586 33.0627C64.3337 33.0627 64.1326 32.8658 64.1326 32.6188C64.1326 32.3719 64.3337 32.1749 64.586 32.1749ZM64.3082 33.4566C64.3912 33.4847 64.4806 33.5004 64.5732 33.5035L65.2884 36.3731C65.0553 36.495 64.8829 36.7107 64.8286 36.9733L62.3573 37.0952C62.3158 36.9671 62.2487 36.8514 62.1593 36.7576L64.3114 33.4597L64.3082 33.4566ZM59.1867 33.0596H63.8069C63.842 33.1159 63.8803 33.169 63.925 33.219L61.773 36.5169C61.6836 36.4888 61.591 36.47 61.4952 36.47C61.3994 36.47 61.3036 36.4888 61.2174 36.5169L59.0654 33.219C59.1101 33.1721 59.1484 33.119 59.1835 33.0596H59.1867ZM60.8343 36.7545C60.7449 36.8514 60.6778 36.9639 60.6363 37.0921L58.165 36.9733C58.1107 36.7139 57.9351 36.4982 57.7052 36.3763L58.4172 33.5066C58.5098 33.5066 58.5992 33.4879 58.6822 33.4597L60.8343 36.7576V36.7545ZM58.4076 32.1749C58.6567 32.1749 58.861 32.3719 58.861 32.6188C58.861 32.8658 58.6599 33.0627 58.4076 33.0627C58.1554 33.0627 57.9542 32.8658 57.9542 32.6188C57.9542 32.3719 58.1554 32.1749 58.4076 32.1749ZM57.9479 33.5191L57.2646 36.2637C56.9325 36.2668 56.6451 36.4513 56.4919 36.717L54.5378 36.2106C54.5378 36.2106 54.5378 36.2106 54.5378 36.2075C54.5378 36.1699 54.5314 36.1324 54.525 36.0949L57.9447 33.5191H57.9479ZM54.4196 36.642L56.3737 37.1452C56.3737 37.1452 56.3737 37.1452 56.3737 37.1484C56.3737 37.5079 56.594 37.8173 56.9101 37.9549L56.412 40.8527C56.3737 40.8558 56.3354 40.8589 56.2971 40.8652L54.2281 36.8639C54.3047 36.7983 54.3686 36.7201 54.4164 36.6357L54.4196 36.642ZM53.6342 35.7667C53.8832 35.7667 54.0876 35.9636 54.0876 36.2106C54.0876 36.4575 53.8864 36.6545 53.6342 36.6545C53.3819 36.6545 53.1808 36.4575 53.1808 36.2106C53.1808 35.9636 53.3819 35.7667 53.6342 35.7667ZM53.8321 37.0827L55.898 41.0746C55.7639 41.1903 55.6681 41.3403 55.6202 41.5154H52.7689C52.7306 41.3716 52.6571 41.2434 52.5582 41.1371L53.8321 37.0859V37.0827ZM51.8972 42.1781C51.6482 42.1781 51.4438 41.9811 51.4438 41.7342C51.4438 41.4872 51.645 41.2903 51.8972 41.2903C52.1495 41.2903 52.3506 41.4872 52.3506 41.7342C52.3506 41.9811 52.1495 42.1781 51.8972 42.1781ZM52.5582 42.3344C52.6571 42.2281 52.7306 42.0999 52.7689 41.9561H55.6202C55.6649 42.1281 55.7639 42.2812 55.898 42.3969L53.8321 46.3888L52.5582 42.3375V42.3344ZM53.6342 47.7048C53.3851 47.7048 53.1808 47.5079 53.1808 47.2609C53.1808 47.014 53.3819 46.817 53.6342 46.817C53.8864 46.817 54.0876 47.014 54.0876 47.2609C54.0876 47.5079 53.8864 47.7048 53.6342 47.7048ZM54.2313 46.6013L56.3003 42.6001C56.3386 42.6095 56.3769 42.6095 56.4152 42.6126L56.9133 45.5104C56.5972 45.6479 56.3769 45.9574 56.3769 46.32C56.3769 46.32 56.3769 46.3262 56.3769 46.3294L54.4228 46.8326C54.3718 46.7451 54.3079 46.667 54.2345 46.6013H54.2313ZM54.5282 47.3766C54.5346 47.3391 54.541 47.3015 54.541 47.264C54.541 47.264 54.541 47.264 54.541 47.2609L56.4951 46.7576C56.6483 47.0233 56.9357 47.2046 57.2678 47.2109L57.951 49.9555L54.5314 47.3797L54.5282 47.3766ZM58.4076 51.2965C58.1586 51.2965 57.9542 51.0996 57.9542 50.8527C57.9542 50.6057 58.1554 50.4088 58.4076 50.4088C58.6599 50.4088 58.861 50.6057 58.861 50.8527C58.861 51.0996 58.6599 51.2965 58.4076 51.2965ZM58.6854 50.0149C58.6024 49.9868 58.513 49.9711 58.4204 49.968L57.7052 47.0984C57.9383 46.9764 58.1107 46.7608 58.165 46.4982L60.6363 46.3763C60.6778 46.5044 60.7449 46.6201 60.8343 46.7139L58.6822 50.0118L58.6854 50.0149ZM63.8069 50.4119H59.1867C59.1516 50.3556 59.1133 50.3025 59.0686 50.2525L61.2206 46.9546C61.31 46.9827 61.4026 47.0014 61.4984 47.0014C61.5942 47.0014 61.69 46.9827 61.7762 46.9546L63.9282 50.2525C63.8835 50.2994 63.8452 50.3525 63.8101 50.4119H63.8069ZM62.1561 46.717C62.2456 46.6201 62.3126 46.5075 62.3541 46.3794L64.8255 46.4982C64.8797 46.7576 65.0553 46.9733 65.2852 47.0952L64.5732 49.9649C64.4806 49.9649 64.3912 49.9836 64.3082 50.0118L62.1561 46.7139V46.717ZM64.586 51.2965C64.3369 51.2965 64.1326 51.0996 64.1326 50.8527C64.1326 50.6057 64.3337 50.4088 64.586 50.4088C64.8382 50.4088 65.0394 50.6057 65.0394 50.8527C65.0394 51.0996 64.8382 51.2965 64.586 51.2965ZM65.0426 49.9524L65.7259 47.2078C66.0579 47.2046 66.3453 47.0202 66.4986 46.7545L68.4526 47.2578C68.4526 47.2578 68.4526 47.2578 68.4526 47.2609C68.4526 47.2984 68.459 47.3359 68.4654 47.3734L65.0458 49.9492L65.0426 49.9524ZM68.5708 46.8295L66.6167 46.3262C66.6167 46.3262 66.6167 46.3262 66.6167 46.3231C66.6167 45.9636 66.3964 45.6542 66.0803 45.5166L66.5784 42.6157C66.6167 42.6126 66.655 42.6095 66.6933 42.6032L68.7624 46.6045C68.6857 46.6701 68.6219 46.7482 68.574 46.8358L68.5708 46.8295ZM69.3562 47.7048C69.1072 47.7048 68.9028 47.5079 68.9028 47.2609C68.9028 47.014 69.104 46.817 69.3562 46.817C69.6085 46.817 69.8096 47.014 69.8096 47.2609C69.8096 47.5079 69.6085 47.7048 69.3562 47.7048ZM69.1583 46.3888L67.0924 42.3969C67.2265 42.2812 67.3223 42.1312 67.3702 41.9561H70.2215C70.2598 42.0999 70.3333 42.2281 70.4323 42.3344L69.1583 46.3856V46.3888ZM70.2247 41.5154H67.3734C67.3287 41.3434 67.2297 41.1903 67.0956 41.0746L69.1615 37.0827L70.4355 41.134C70.3365 41.2403 70.263 41.3684 70.2247 41.5122V41.5154ZM71.0964 42.1781C70.8473 42.1781 70.643 41.9811 70.643 41.7342C70.643 41.4872 70.8442 41.2903 71.0964 41.2903C71.3486 41.2903 71.5498 41.4872 71.5498 41.7342C71.5498 41.9811 71.3486 42.1781 71.0964 42.1781Z" fill="white"/>
</g>
</g>
<defs>
<clipPath id="clip0_188_3881">
<rect width="131" height="27" fill="white" transform="translate(0 31.7373)"/>
</clipPath>
</defs>
</svg>
