<svg width="202" height="90" viewBox="0 0 202 90" fill="none" xmlns="http://www.w3.org/2000/svg">
<g opacity="0.6">
<g clip-path="url(#clip0_1457_12919)">
<path d="M135.981 45.1829C135.984 47.5466 135.285 49.8579 133.974 51.8246C132.663 53.7912 130.798 55.3249 128.615 56.2315C126.432 57.1381 124.029 57.3769 121.711 56.9178C119.392 56.4587 117.262 55.3223 115.589 53.6522C113.916 51.9822 112.776 49.8536 112.313 47.5357C111.851 45.2177 112.085 42.8146 112.989 40.6302C113.892 38.4459 115.422 36.5784 117.387 35.264C119.351 33.9496 121.662 33.2474 124.025 33.2461C127.189 33.2596 130.219 34.5209 132.458 36.7561C134.696 38.9912 135.963 42.0195 135.981 45.1829ZM123.993 53.2479C125.59 53.2492 127.152 52.7774 128.481 51.8921C129.81 51.0068 130.847 49.7477 131.462 48.2736C132.076 46.7994 132.24 45.1764 131.933 43.6092C131.626 42.042 130.861 40.6008 129.736 39.4675C128.611 38.3343 127.175 37.5596 125.61 37.2414C124.045 36.9231 122.421 37.0755 120.943 37.6794C119.464 38.2832 118.198 39.3113 117.303 40.6342C116.408 41.957 115.925 43.5152 115.915 45.1121C115.927 47.2563 116.78 49.3102 118.291 50.8318C119.801 52.3534 121.849 53.221 123.993 53.2479Z" fill="white"/>
<path d="M96.7435 47.189H85.5978C85.5978 47.4784 85.5528 47.7486 85.5528 48.0187V55.0933C85.5707 55.4707 85.4716 55.8444 85.269 56.1633C85.0663 56.4822 84.7701 56.7307 84.4208 56.8748C84.1001 57.0512 83.73 57.1165 83.3682 57.0607C83.0065 57.0049 82.6733 56.831 82.4206 56.5661C82.039 56.1358 81.8126 55.5901 81.7775 55.0161C81.7325 48.4303 81.7389 41.8445 81.7775 35.2651C81.7599 35.0011 81.7967 34.7363 81.8857 34.4872C81.9748 34.238 82.1141 34.0099 82.295 33.8168C82.476 33.6238 82.6947 33.4701 82.9376 33.3652C83.1805 33.2603 83.4424 33.2064 83.7069 33.207C83.9718 33.2113 84.2329 33.2701 84.474 33.3797C84.7151 33.4893 84.9311 33.6474 85.1085 33.844C85.2858 34.0407 85.4208 34.2718 85.505 34.5229C85.5892 34.7741 85.6208 35.0398 85.5978 35.3037C85.5978 37.7219 85.5978 40.1401 85.5978 42.5584C85.5978 43.1372 85.7586 43.3044 86.3374 43.3044C89.5531 43.3044 92.8203 43.2723 96.0618 43.3044C96.7049 43.3044 96.8207 43.06 96.8142 42.5005C96.8142 40.1337 96.8142 37.7669 96.8142 35.4259C96.8142 34.1396 97.541 33.2585 98.6794 33.2328C98.9525 33.2268 99.2238 33.279 99.4753 33.3858C99.7268 33.4925 99.9527 33.6515 100.138 33.8522C100.324 34.0528 100.464 34.2905 100.551 34.5496C100.638 34.8087 100.668 35.0833 100.641 35.3551C100.641 41.9152 100.641 48.4732 100.641 55.029C100.657 55.2919 100.619 55.5553 100.529 55.8029C100.439 56.0506 100.299 56.2772 100.118 56.4688C99.9377 56.6604 99.7196 56.8129 99.4776 56.9171C99.2357 57.0212 98.975 57.0747 98.7115 57.0742C98.4471 57.0722 98.186 57.0147 97.9452 56.9055C97.7043 56.7962 97.489 56.6377 97.3133 56.4401C97.1375 56.2425 97.0051 56.0103 96.9247 55.7583C96.8443 55.5064 96.8176 55.2404 96.8464 54.9775C96.8464 52.6622 96.8464 50.3469 96.8464 48.0315L96.7435 47.189Z" fill="white"/>
<path d="M46.2748 47.1496V53.3173H55.5683C55.9858 53.2937 56.3998 53.4063 56.7478 53.6383C57.0958 53.8703 57.359 54.2091 57.4977 54.6036C57.6427 54.9658 57.6653 55.3656 57.5619 55.7418C57.4586 56.118 57.235 56.4501 56.9253 56.6874C56.5213 56.9465 56.0545 57.091 55.5747 57.1055C51.8959 57.1055 48.2171 57.1055 44.5448 57.1055C44.2517 57.1371 43.9552 57.1042 43.6762 57.009C43.3973 56.9139 43.1425 56.7588 42.9298 56.5547C42.7171 56.3506 42.5517 56.1024 42.4451 55.8276C42.3386 55.5527 42.2935 55.2579 42.313 54.9638C42.313 54.7837 42.313 54.6036 42.313 54.4235V35.7723C42.313 34.0165 42.9562 33.3477 44.7313 33.3477H55.2982C56.6873 33.3477 57.5234 34.0551 57.5363 35.2256C57.5492 36.3962 56.7002 37.2001 55.2982 37.2001H46.2813V43.3164H47.2331C49.5484 43.3164 51.8638 43.3164 54.1791 43.3164C55.4654 43.3164 56.3272 44.1075 56.3272 45.2459C56.3272 46.3842 55.4589 47.1753 54.1598 47.1753H46.2748V47.1496Z" fill="white"/>
<path d="M12.73 40.3599C11.3022 43.8779 9.95806 47.2094 8.61388 50.5409C7.93215 52.2323 7.25684 53.9302 6.5751 55.6217C6.07345 56.863 5.05729 57.3518 3.93178 56.908C2.80628 56.4642 2.4847 55.403 2.96706 54.2004C5.61682 47.6789 8.25371 41.1531 10.8777 34.623C10.9928 34.2196 11.2361 33.8647 11.5709 33.612C11.9057 33.3593 12.3138 33.2227 12.7332 33.2227C13.1527 33.2227 13.5607 33.3593 13.8955 33.612C14.2303 33.8647 14.4737 34.2196 14.5887 34.623C17.2085 41.1745 19.8475 47.726 22.5058 54.2775C22.624 54.5142 22.6923 54.7726 22.7065 55.0367C22.7206 55.3008 22.6803 55.5651 22.588 55.813C22.4957 56.0608 22.3535 56.2871 22.17 56.4777C21.9866 56.6683 21.766 56.8191 21.5218 56.9209C20.4413 57.3518 19.4252 56.9209 18.9492 55.6796C17.0069 50.8603 15.0775 46.0453 13.1609 41.2345C13.0323 40.9966 12.9294 40.7715 12.73 40.3599Z" fill="white"/>
<path d="M72.2377 37.2108V54.9295C72.2432 55.1828 72.1987 55.4348 72.1068 55.671C72.0149 55.9072 71.8774 56.123 71.7021 56.306C71.5268 56.4891 71.3172 56.6358 71.0852 56.7378C70.8532 56.8399 70.6034 56.8952 70.35 56.9007C70.0967 56.9062 69.8447 56.8617 69.6085 56.7698C69.3723 56.6779 69.1565 56.5404 68.9735 56.3652C68.7904 56.1899 68.6437 55.9802 68.5417 55.7483C68.4396 55.5163 68.3843 55.2665 68.3788 55.0131C68.3788 52.061 68.3788 49.1026 68.3788 46.1441V37.1722H64.7386C64.1726 37.1722 63.6067 37.1722 63.0407 37.1722C62.5368 37.1604 62.0575 36.952 61.7054 36.5914C61.3532 36.2308 61.1561 35.7468 61.1563 35.2428C61.168 34.7389 61.3765 34.2596 61.7371 33.9075C62.0976 33.5553 62.5817 33.3582 63.0857 33.3584C67.9479 33.3584 72.8079 33.3584 77.6658 33.3584C77.9251 33.3439 78.1845 33.3836 78.4275 33.4749C78.6706 33.5662 78.892 33.707 79.0777 33.8885C79.2634 34.0699 79.4094 34.288 79.5062 34.529C79.603 34.7699 79.6487 35.0283 79.6403 35.2878C79.6404 35.5461 79.5886 35.8018 79.4881 36.0398C79.3875 36.2777 79.2402 36.493 79.0548 36.673C78.8695 36.8529 78.6499 36.9938 78.4091 37.0873C78.1683 37.1808 77.9112 37.225 77.653 37.2172C76.0065 37.2172 74.36 37.2172 72.7136 37.2172L72.2377 37.2108Z" fill="white"/>
<path d="M28.9278 53.3206H29.9246C32.6966 53.3206 35.475 53.3206 38.2534 53.3206C38.5988 53.3047 38.9421 53.382 39.2475 53.5442C39.5529 53.7065 39.809 53.9478 39.9891 54.243C40.1692 54.5381 40.2667 54.8763 40.2714 55.222C40.2761 55.5678 40.1877 55.9085 40.0156 56.2084C39.8688 56.4817 39.6494 56.7092 39.3816 56.8658C39.1138 57.0224 38.808 57.102 38.4978 57.0959C34.6389 57.0959 30.8379 57.0959 27.0048 57.0959C26.7417 57.0922 26.4822 57.0348 26.2422 56.9272C26.0022 56.8196 25.7867 56.664 25.609 56.47C25.4314 56.2761 25.2952 56.0478 25.2089 55.7993C25.1227 55.5508 25.0882 55.2873 25.1075 55.025C25.1075 52.581 25.1075 50.1371 25.1075 47.6931C25.1075 43.5577 25.1075 39.4158 25.1075 35.2804C25.0703 34.8129 25.2094 34.3483 25.4974 33.9782C25.7854 33.608 26.2016 33.359 26.6639 33.2802C27.084 33.1936 27.5212 33.256 27.9003 33.4567C28.2794 33.6574 28.5767 33.9839 28.7413 34.38C28.8768 34.7947 28.9378 35.2302 28.9213 35.6663C28.9213 41.2145 28.9213 46.767 28.9213 52.3238L28.9278 53.3206Z" fill="white"/>
<path d="M108.559 45.211C108.559 48.5039 108.559 51.7968 108.559 55.0833C108.594 55.5173 108.473 55.9493 108.219 56.3026C107.964 56.6559 107.593 56.9075 107.17 57.0127C106.789 57.1397 106.375 57.1352 105.997 57C105.618 56.8647 105.295 56.6066 105.08 56.2667C104.858 55.8945 104.736 55.4713 104.726 55.0382C104.701 48.4782 104.701 41.9224 104.726 35.3708C104.726 34.8591 104.93 34.3684 105.291 34.0065C105.653 33.6447 106.144 33.4414 106.656 33.4414C107.167 33.4414 107.658 33.6447 108.02 34.0065C108.382 34.3684 108.585 34.8591 108.585 35.3708C108.559 38.6316 108.559 41.9245 108.559 45.211Z" fill="white"/>
<path d="M108.651 29.8177C108.662 30.0892 108.618 30.3602 108.521 30.614C108.424 30.8678 108.276 31.0991 108.086 31.2936C107.896 31.4882 107.669 31.6419 107.418 31.7453C107.166 31.8488 106.896 31.8997 106.625 31.8951C106.338 31.9274 106.047 31.8987 105.772 31.811C105.497 31.7233 105.243 31.5784 105.028 31.386C104.813 31.1936 104.641 30.9578 104.523 30.6942C104.405 30.4306 104.344 30.1451 104.344 29.8563C104.344 29.5675 104.405 29.282 104.523 29.0184C104.641 28.7548 104.813 28.5191 105.028 28.3266C105.243 28.1342 105.497 27.9894 105.772 27.9017C106.047 27.8139 106.338 27.7853 106.625 27.8176C106.89 27.8133 107.153 27.8619 107.399 27.9606C107.645 28.0593 107.869 28.206 108.058 28.3923C108.246 28.5785 108.396 28.8005 108.498 29.0453C108.6 29.29 108.652 29.5526 108.651 29.8177Z" fill="white"/>
<path d="M14.7967 48.6165C14.7903 49.0251 14.6628 49.4225 14.4304 49.7585C14.1979 50.0945 13.871 50.354 13.491 50.5041C13.111 50.6542 12.6951 50.6882 12.2957 50.6018C11.8964 50.5154 11.5317 50.3124 11.2478 50.0186C10.9639 49.7248 10.7736 49.3533 10.7009 48.9513C10.6282 48.5492 10.6765 48.1346 10.8395 47.76C11.0026 47.3854 11.2732 47.0676 11.617 46.8469C11.9607 46.6261 12.3623 46.5123 12.7708 46.5199C13.3172 46.53 13.8374 46.7564 14.2171 47.1495C14.5969 47.5425 14.8053 48.0701 14.7967 48.6165Z" fill="white"/>
</g>
</g>
<defs>
<clipPath id="clip0_1457_12919">
<rect width="140" height="30.871" fill="white" transform="translate(0 27)"/>
</clipPath>
</defs>
</svg>
