<svg width="200" height="101" viewBox="0 0 200 101" fill="none" xmlns="http://www.w3.org/2000/svg">
<g opacity="0.6">
<g clip-path="url(#clip0_188_3886)">
<path d="M38 36.7373H44.8018V54.7804H54.4145V60.7373H38V36.7373ZM59.6199 60.7373H66.4217V36.7373H59.6199V60.7373ZM87.1567 50.1221L77.4398 36.7373H71.6184V60.7373H77.865V47.3888L87.5818 60.7373H93.3685V36.7373H87.1567V50.1221ZM98.5652 36.7373V60.7282H117.634V55.2526H105.376V51.4479H116.203V45.9723H105.376V42.2038H117.313V36.7373H98.5739H98.5652ZM139.341 52.8917C140.59 52.138 141.536 51.1119 142.204 49.8315C142.872 48.5421 143.202 47.0165 143.202 45.264C143.202 42.5489 142.36 40.4513 140.669 38.962C138.977 37.4728 136.6 36.7373 133.528 36.7373H122.831V60.7373H129.633V54.2719H133.233L136.279 60.7373H144L139.358 52.9008L139.341 52.8917ZM135.897 47.9246C135.342 48.4967 134.552 48.7782 133.528 48.7782H129.633V42.2038H133.528C134.552 42.2038 135.35 42.4853 135.897 43.0392C136.452 43.5932 136.73 44.4013 136.73 45.4547C136.73 46.508 136.452 47.3525 135.897 47.9155V47.9246Z" fill="white"/>
<path d="M11.6247 36.7373C5.21348 36.7373 0 41.9952 0 48.461C0 54.9268 5.21348 60.1847 11.6247 60.1847C18.0358 60.1847 23.2493 54.9268 23.2493 48.461C23.2493 41.9952 18.027 36.7373 11.6247 36.7373ZM11.6247 54.2429C8.4631 54.2429 5.89159 51.6495 5.89159 48.461C5.89159 45.2725 8.4631 42.6791 11.6247 42.6791C14.7862 42.6791 17.3577 45.2725 17.3577 48.461C17.3577 51.6495 14.7862 54.2429 11.6247 54.2429ZM25.4686 56.6143C23.5135 56.6143 21.9371 58.213 21.9371 60.1758C21.9371 62.1386 23.5223 63.7373 25.4686 63.7373C27.4148 63.7373 29 62.1386 29 60.1758C29 58.213 27.4148 56.6143 25.4686 56.6143Z" fill="white"/>
</g>
</g>
<defs>
<clipPath id="clip0_188_3886">
<rect width="144" height="27" fill="white" transform="translate(0 36.7373)"/>
</clipPath>
</defs>
</svg>
