<svg width="200" height="90" viewBox="0 0 200 90" fill="none" xmlns="http://www.w3.org/2000/svg">
<g opacity="0.6">
<g clip-path="url(#clip0_1536_14697)">
<path d="M107.888 33.0308C106.241 33.03 104.619 33.4326 103.163 34.2032C101.707 34.9738 100.462 36.0891 99.537 37.4516V28H97.7656V43.1024C97.7656 43.115 97.7656 43.1252 97.7656 43.1353C97.7656 43.1454 97.7656 43.158 97.7656 43.1682V53.2499H99.537V48.8214C100.517 50.262 101.853 51.4246 103.415 52.1965C104.977 52.9684 106.712 53.3233 108.451 53.2268C110.191 53.1303 111.876 52.5856 113.343 51.6456C114.81 50.7057 116.009 49.4023 116.824 47.8622C117.638 46.3221 118.041 44.5976 117.992 42.856C117.944 41.1144 117.445 39.4149 116.546 37.9226C115.647 36.4304 114.377 35.1959 112.86 34.3392C111.343 33.4825 109.63 33.0326 107.888 33.0333V33.0308ZM107.888 51.4785C105.677 51.4785 103.556 50.6019 101.991 49.0407C100.426 47.4795 99.543 45.3613 99.537 43.1505V43.1277C99.537 41.476 100.027 39.8615 100.944 38.4882C101.862 37.1149 103.166 36.0446 104.692 35.4125C106.218 34.7805 107.897 34.6151 109.517 34.9373C111.137 35.2595 112.625 36.0549 113.793 37.2227C114.961 38.3906 115.756 39.8786 116.078 41.4985C116.4 43.1184 116.235 44.7975 115.603 46.3234C114.971 47.8493 113.901 49.1536 112.527 50.0712C111.154 50.9888 109.54 51.4785 107.888 51.4785Z" fill="white"/>
<path d="M95.1328 43.1282V33.2894H93.3614V37.4521C92.1461 35.6658 90.3902 34.316 88.3514 33.6008C86.3126 32.8857 84.0983 32.8429 82.0334 33.4787C79.9685 34.1145 78.1617 35.3954 76.8783 37.1334C75.5949 38.8715 74.9023 40.9752 74.9023 43.1358C74.9023 45.2964 75.5949 47.4 76.8783 49.1381C78.1617 50.8762 79.9685 52.1571 82.0334 52.7929C84.0983 53.4287 86.3126 53.3859 88.3514 52.6707C90.3902 51.9556 92.1461 50.6058 93.3614 48.8194V53.2504H95.1328V43.1282ZM85.0105 51.479C83.3589 51.479 81.7443 50.9893 80.371 50.0717C78.9977 49.1541 77.9274 47.8498 77.2953 46.3239C76.6633 44.798 76.4979 43.1189 76.8201 41.499C77.1423 39.8791 77.9377 38.3911 79.1056 37.2232C80.2735 36.0554 81.7615 35.26 83.3814 34.9378C85.0013 34.6156 86.6803 34.7809 88.2063 35.413C89.7322 36.0451 91.0364 37.1154 91.954 38.4887C92.8716 39.862 93.3614 41.4765 93.3614 43.1282C93.3614 45.3408 92.4833 47.4629 90.9199 49.0286C89.3566 50.5944 87.2358 51.4757 85.0232 51.479H85.0105Z" fill="white"/>
<path d="M39.5478 42.8378V33.29H36.9034V36.3266C35.9575 35.2897 34.8057 34.4616 33.5216 33.8952C32.2375 33.3287 30.8493 33.0364 29.4458 33.0369C25.7132 33.0369 20.7837 34.7298 18.5062 42.7821C17.0385 47.9723 14.2043 50.604 10.1123 50.604C8.13245 50.604 6.23367 49.8175 4.83368 48.4176C3.4337 47.0176 2.64718 45.1188 2.64718 43.1389C2.64718 41.159 3.4337 39.2602 4.83368 37.8602C6.23367 36.4603 8.13245 35.6737 10.1123 35.6737C12.2329 35.6737 13.9512 36.3848 15.3683 37.85L17.2713 36.0128C16.3505 35.0457 15.2385 34.281 14.0059 33.7673C12.7734 33.2537 11.4474 33.0023 10.1123 33.0293C8.78539 33.0293 7.47145 33.2907 6.24551 33.7985C5.01957 34.3063 3.90564 35.0506 2.96735 35.9889C2.02906 36.9271 1.28477 38.0411 0.776974 39.267C0.269174 40.4929 0.0078125 41.8069 0.0078125 43.1338C0.0078125 44.4608 0.269174 45.7747 0.776974 47.0007C1.28477 48.2266 2.02906 49.3405 2.96735 50.2788C3.90564 51.2171 5.01957 51.9614 6.24551 52.4692C7.47145 52.977 8.78539 53.2384 10.1123 53.2384C12.8327 53.2384 15.1735 52.3527 17.0613 50.604C18.2086 49.5129 19.143 48.2181 19.817 46.7854C21.9655 51.0722 25.1945 53.2384 29.4458 53.2384C30.8494 53.2395 32.2378 52.9475 33.522 52.381C34.8062 51.8145 35.9579 50.986 36.9034 49.9486V53.2384H39.5478V43.4375C39.5478 43.3388 39.5478 43.2376 39.5478 43.1364C39.5478 43.0352 39.5529 42.9364 39.5478 42.8378ZM29.4458 50.599C28.0034 50.599 23.6635 50.599 21.1633 43.1161C22.6816 38.1107 25.3868 35.6763 29.4458 35.6763C31.3723 35.6785 33.2235 36.4247 34.6131 37.7591C36.0026 39.0935 36.8231 40.9129 36.9034 42.8378V43.4375C36.8231 45.3623 36.0026 47.1818 34.6131 48.5162C33.2235 49.8506 31.3723 50.5967 29.4458 50.599Z" fill="white"/>
<path d="M65.2069 33.2852H62.5625V53.2437H65.2069V33.2852Z" fill="white"/>
<path d="M73.1466 28H71.3828V53.2474H73.1466V28Z" fill="white"/>
<path d="M65.2069 28H62.5625V30.6444H65.2069V28Z" fill="white"/>
<path d="M10.5626 61.1762C8.46448 61.1742 6.45279 60.3403 4.96851 58.8575C3.48423 57.3746 2.64846 55.3637 2.64444 53.2656H0C0.0429208 56.0383 1.17452 58.683 3.15047 60.6286C5.12643 62.5742 7.78826 63.6647 10.5613 63.6647C13.3344 63.6647 15.9962 62.5742 17.9721 60.6286C19.9481 58.683 21.0797 56.0383 21.1226 53.2656H18.4782C18.4748 55.3635 17.6396 57.3744 16.1557 58.8573C14.6718 60.3402 12.6604 61.1741 10.5626 61.1762Z" fill="white"/>
<path d="M41.2695 53.2462H59.9172V50.6018H45.369L60.3272 35.5399L60.3145 33.2852H42.1957V35.9296H56.2125L41.2695 50.9915V53.2462Z" fill="white"/>
</g>
</g>
<defs>
<clipPath id="clip0_1536_14697">
<rect width="118" height="35.8201" fill="white" transform="translate(0 28)"/>
</clipPath>
</defs>
</svg>
