<svg width="200" height="90" viewBox="0 0 200 90" fill="none" xmlns="http://www.w3.org/2000/svg">
<g opacity="0.6">
<g clip-path="url(#clip0_1536_14555)">
<path fill-rule="evenodd" clip-rule="evenodd" d="M122.533 35.8773C122.533 34.2935 123.754 33 125.267 33C126.779 33 128 34.2852 128 35.8773V43C128 48.5141 123.746 53 118.5 53C113.254 53 109 48.5224 109 43V35.8773C109 34.2935 110.221 33 111.733 33C113.246 33 114.467 34.2852 114.467 35.8773V43C114.467 45.3466 116.279 47.2537 118.508 47.2537C120.737 47.2537 122.541 45.3466 122.541 43V35.8773H122.533Z" fill="white"/>
<path fill-rule="evenodd" clip-rule="evenodd" d="M99.4436 23.8119C99.4436 22.2641 100.685 21 102.222 21C103.759 21 105 22.256 105 23.8119V50.1881C105 51.7359 103.759 53 102.222 53C101.165 53 100.244 52.4004 99.7718 51.5171C98.2906 52.4571 96.5372 53 94.6557 53C89.3315 53 85 48.6242 85 43.2274C85 37.8306 89.3235 33.4548 94.6557 33.4548C96.4011 33.4548 98.0344 33.9248 99.4436 34.7432V23.8119ZM94.6557 38.3897C97.2978 38.3897 99.4355 40.5614 99.4355 43.2274C99.4355 45.8934 97.2898 48.0651 94.6557 48.0651C92.0216 48.0651 89.8759 45.8934 89.8759 43.2274C89.8759 40.5614 92.0216 38.3897 94.6557 38.3897Z" fill="white"/>
<path fill-rule="evenodd" clip-rule="evenodd" d="M29.5 53H29.437C24.2222 52.9668 20 48.4975 20 43C20 37.5025 24.2537 33 29.5 33C34.7463 33 39 37.4776 39 43C39 44.1443 38.1177 45.073 37.0307 45.073H25.2305C25.9789 46.7728 27.6095 47.9502 29.5 47.9502C30.8234 47.9502 31.8947 49.0779 31.8947 50.471C31.8947 51.864 30.8234 52.9917 29.5 52.9917V53ZM33.7695 40.927C33.0211 39.2272 31.3905 38.0497 29.5 38.0497C27.6095 38.0497 25.971 39.2272 25.2305 40.927H33.7774H33.7695Z" fill="white"/>
<path fill-rule="evenodd" clip-rule="evenodd" d="M15.2488 33.0299C17.6075 33.0465 18.8794 36.0143 17.3016 37.8083C17.3016 37.8083 12.069 43.7854 9.93573 46.2159C9.78278 46.3978 9.74253 46.654 9.83913 46.869C9.93573 47.0839 10.145 47.2327 10.3785 47.2327H15.2488C18.1951 47.2493 19.0484 51.5729 16.3195 52.7386C15.9813 52.8874 15.603 52.9618 15.2327 52.9618C11.0869 52.9949 6.93304 53.028 2.78725 52.9618C2.41694 52.9618 2.04664 52.8791 1.70048 52.7386C-0.046385 51.9946 -0.53744 49.6137 0.710324 48.1835C0.710324 48.1835 5.91873 42.2394 8.06006 39.7924C8.21301 39.6105 8.25326 39.3542 8.15666 39.1393C8.06006 38.9243 7.8427 38.7838 7.60925 38.7838C5.99923 38.8086 4.38922 38.8169 2.7792 38.7673C2.40889 38.759 2.03859 38.6846 1.69243 38.5441C0.283669 37.9406 -0.368389 36.2293 0.211218 34.7908C0.637873 33.7244 1.66828 33.063 2.7792 33.0382C6.92499 32.972 11.0788 33.0051 15.2246 33.0382H15.2407L15.2488 33.0299Z" fill="white"/>
<path fill-rule="evenodd" clip-rule="evenodd" d="M72.5 53H72.437C67.2222 52.9668 63 48.4975 63 43C63 37.5025 67.2537 33 72.5 33C77.7463 33 82 37.4776 82 43C82 44.1443 81.1177 45.073 80.0307 45.073H68.2305C68.9789 46.7728 70.6095 47.9502 72.5 47.9502C73.8234 47.9502 74.8947 49.0779 74.8947 50.471C74.8947 51.864 73.8234 52.9917 72.5 52.9917V53ZM76.7695 40.927C76.0211 39.2272 74.3905 38.0497 72.4921 38.0497C70.5937 38.0497 68.9631 39.2272 68.2226 40.927H76.7695Z" fill="white"/>
<path fill-rule="evenodd" clip-rule="evenodd" d="M57.2488 33.0299C59.6075 33.0465 60.8794 36.0143 59.3016 37.8083C59.3016 37.8083 54.069 43.7854 51.9357 46.2159C51.7828 46.3978 51.7425 46.654 51.8391 46.869C51.9357 47.0839 52.145 47.2327 52.3785 47.2327H57.2488C60.1951 47.2493 61.0484 51.5729 58.3195 52.7386C57.9813 52.8874 57.603 52.9618 57.2327 52.9618C53.0869 52.9949 48.933 53.028 44.7872 52.9618C44.4169 52.9618 44.0466 52.8791 43.7005 52.7386C41.9536 51.9946 41.4626 49.6137 42.7103 48.1835C42.7103 48.1835 47.9187 42.2394 50.0601 39.7924C50.213 39.6105 50.2533 39.3542 50.1567 39.1393C50.0601 38.9243 49.8427 38.7838 49.6093 38.7838C47.9992 38.8086 46.3892 38.8169 44.7792 38.7673C44.4089 38.759 44.0386 38.6846 43.6924 38.5441C42.2837 37.9406 41.6316 36.2293 42.2112 34.7908C42.6379 33.7244 43.6683 33.063 44.7792 33.0382C48.925 32.972 53.0788 33.0051 57.2246 33.0382H57.2407L57.2488 33.0299Z" fill="white"/>
</g>
</g>
<defs>
<clipPath id="clip0_1536_14555">
<rect width="128" height="32" fill="white" transform="translate(0 21)"/>
</clipPath>
</defs>
</svg>
